<?xml version="1.0" encoding="UTF-8" standalone="no"?>
<!-- Created with Inkscape (http://www.inkscape.org/) -->

<svg
   xmlns:dc="http://purl.org/dc/elements/1.1/"
   xmlns:cc="http://creativecommons.org/ns#"
   xmlns:rdf="http://www.w3.org/1999/02/22-rdf-syntax-ns#"
   xmlns:svg="http://www.w3.org/2000/svg"
   xmlns="http://www.w3.org/2000/svg"
   xmlns:sodipodi="http://sodipodi.sourceforge.net/DTD/sodipodi-0.dtd"
   xmlns:inkscape="http://www.inkscape.org/namespaces/inkscape"
   id="svg2"
   version="1.1"
   inkscape:version="0.91 r13725"
   xml:space="preserve"
   width="350.69376"
   height="456.97375"
   viewBox="0 0 350.69376 456.97375"
   sodipodi:docname="b.svg"><metadata
     id="metadata8"><rdf:RDF><cc:Work
         rdf:about=""><dc:format>image/svg+xml</dc:format><dc:type
           rdf:resource="http://purl.org/dc/dcmitype/StillImage" /><dc:title></dc:title></cc:Work></rdf:RDF></metadata><defs
     id="defs6"><clipPath
       clipPathUnits="userSpaceOnUse"
       id="clipPath12"><path
         d="M 0.0316467,0 280.545,0 l 0,365.547 -280.5133533,0 0,-365.547 z"
         id="path14"
         inkscape:connector-curvature="0" /></clipPath><clipPath
       clipPathUnits="userSpaceOnUse"
       id="clipPath20"><path
         d="m 0,365.579 280.555,0 L 280.555,0 0,0 0,365.579 Z"
         id="path22"
         inkscape:connector-curvature="0" /></clipPath></defs><sodipodi:namedview
     pagecolor="#ffffff"
     bordercolor="#666666"
     borderopacity="1"
     objecttolerance="10"
     gridtolerance="10"
     guidetolerance="10"
     inkscape:pageopacity="0"
     inkscape:pageshadow="2"
     inkscape:window-width="1600"
     inkscape:window-height="837"
     id="namedview4"
     showgrid="false"
     inkscape:zoom="1.0328821"
     inkscape:cx="204.27254"
     inkscape:cy="190.03753"
     inkscape:window-x="-8"
     inkscape:window-y="-8"
     inkscape:window-maximized="1"
     inkscape:current-layer="g18" /><g
     id="g10"
     inkscape:groupmode="layer"
     inkscape:label="vania-hiksove"
     transform="matrix(1.25,0,0,-1.25,0,456.97375)"
     clip-path="url(#clipPath12)"><g
       clip-path="url(#clipPath20)"
       id="g18"><g
         transform="translate(189.8932,159.7272)"
         id="g704"><path
           inkscape:connector-curvature="0"
           id="path706"
           style="fill:#ed1c24;fill-opacity:1;fill-rule:nonzero;stroke:none"
           d="m 0,0 3.464,-3.464 c 0.492,-0.491 1.29,-0.491 1.782,0 0.492,0.493 0.492,1.29 0,1.783 L 1.782,1.782 5.246,5.246 c 0.492,0.492 0.492,1.29 0,1.782 -0.492,0.492 -1.29,0.492 -1.782,0 L 0,3.564 -3.464,7.028 c -0.492,0.492 -1.29,0.492 -1.782,0 -0.246,-0.246 -0.369,-0.569 -0.369,-0.891 0,-0.322 0.123,-0.645 0.369,-0.891 l 3.464,-3.464 -3.464,-3.463 c -0.246,-0.246 -0.369,-0.569 -0.369,-0.892 0,-0.322 0.123,-0.645 0.369,-0.891 0.492,-0.491 1.29,-0.491 1.782,0 L 0,0 Z" /></g><g
         transform="translate(189.8932,145.5542)"
         id="g708"><path
           inkscape:connector-curvature="0"
           id="path710"
           style="fill:#ed1c24;fill-opacity:1;fill-rule:nonzero;stroke:none"
           d="m 0,0 3.464,-3.464 c 0.492,-0.491 1.29,-0.491 1.782,0 0.492,0.493 0.492,1.29 0,1.783 L 1.782,1.782 5.246,5.246 c 0.492,0.492 0.492,1.29 0,1.782 -0.492,0.492 -1.29,0.492 -1.782,0 L 0,3.564 -3.464,7.028 c -0.492,0.492 -1.29,0.492 -1.782,0 -0.246,-0.246 -0.369,-0.569 -0.369,-0.891 0,-0.322 0.123,-0.645 0.369,-0.891 l 3.464,-3.464 -3.464,-3.463 c -0.246,-0.246 -0.369,-0.569 -0.369,-0.892 0,-0.322 0.123,-0.645 0.369,-0.891 0.492,-0.491 1.29,-0.491 1.782,0 L 0,0 Z" /></g><g
         transform="translate(189.8932,131.3811)"
         id="g712"><path
           inkscape:connector-curvature="0"
           id="path714"
           style="fill:#ed1c24;fill-opacity:1;fill-rule:nonzero;stroke:none"
           d="m 0,0 3.464,-3.464 c 0.492,-0.491 1.29,-0.491 1.782,0 0.492,0.493 0.492,1.29 0,1.783 L 1.782,1.782 5.246,5.246 c 0.492,0.492 0.492,1.29 0,1.782 -0.492,0.492 -1.29,0.492 -1.782,0 L 0,3.564 -3.464,7.028 c -0.492,0.492 -1.29,0.492 -1.782,0 -0.246,-0.246 -0.369,-0.569 -0.369,-0.891 0,-0.322 0.123,-0.645 0.369,-0.891 l 3.464,-3.464 -3.464,-3.463 c -0.246,-0.246 -0.369,-0.569 -0.369,-0.892 0,-0.322 0.123,-0.645 0.369,-0.891 0.492,-0.491 1.29,-0.491 1.782,0 L 0,0 Z" /></g><g
         transform="translate(189.8932,117.208)"
         id="g716"><path
           inkscape:connector-curvature="0"
           id="path718"
           style="fill:#ed1c24;fill-opacity:1;fill-rule:nonzero;stroke:none"
           d="m 0,0 3.464,-3.464 c 0.492,-0.491 1.29,-0.491 1.782,0 0.492,0.493 0.492,1.29 0,1.783 L 1.782,1.782 5.246,5.246 c 0.492,0.492 0.492,1.29 0,1.782 -0.492,0.492 -1.29,0.492 -1.782,0 L 0,3.564 -3.464,7.028 c -0.492,0.492 -1.29,0.492 -1.782,0 -0.246,-0.246 -0.369,-0.569 -0.369,-0.891 0,-0.322 0.123,-0.645 0.369,-0.891 l 3.464,-3.464 -3.464,-3.463 c -0.246,-0.246 -0.369,-0.569 -0.369,-0.892 0,-0.322 0.123,-0.645 0.369,-0.891 0.492,-0.491 1.29,-0.491 1.782,0 L 0,0 Z" /></g><g
         transform="translate(189.8932,103.0349)"
         id="g720"><path
           inkscape:connector-curvature="0"
           id="path722"
           style="fill:#ed1c24;fill-opacity:1;fill-rule:nonzero;stroke:none"
           d="m 0,0 3.464,-3.464 c 0.492,-0.491 1.29,-0.491 1.782,0 0.492,0.493 0.492,1.29 0,1.783 L 1.782,1.782 5.246,5.246 c 0.492,0.492 0.492,1.29 0,1.782 -0.492,0.492 -1.29,0.492 -1.782,0 L 0,3.564 -3.464,7.028 c -0.492,0.492 -1.29,0.492 -1.782,0 -0.246,-0.246 -0.369,-0.569 -0.369,-0.891 0,-0.322 0.123,-0.645 0.369,-0.891 l 3.464,-3.464 -3.464,-3.463 c -0.246,-0.246 -0.369,-0.569 -0.369,-0.892 0,-0.322 0.123,-0.645 0.369,-0.891 0.492,-0.491 1.29,-0.491 1.782,0 L 0,0 Z" /></g><g
         transform="translate(189.8932,88.8618)"
         id="g724"><path
           inkscape:connector-curvature="0"
           id="path726"
           style="fill:#ed1c24;fill-opacity:1;fill-rule:nonzero;stroke:none"
           d="m 0,0 3.464,-3.464 c 0.492,-0.491 1.29,-0.491 1.782,0 0.492,0.493 0.492,1.29 0,1.783 L 1.782,1.782 5.246,5.246 c 0.492,0.492 0.492,1.29 0,1.782 -0.492,0.492 -1.29,0.492 -1.782,0 L 0,3.564 -3.464,7.028 c -0.492,0.492 -1.29,0.492 -1.782,0 -0.246,-0.246 -0.369,-0.569 -0.369,-0.891 0,-0.322 0.123,-0.645 0.369,-0.891 l 3.464,-3.464 -3.464,-3.463 c -0.246,-0.246 -0.369,-0.569 -0.369,-0.892 0,-0.322 0.123,-0.645 0.369,-0.891 0.492,-0.491 1.29,-0.491 1.782,0 L 0,0 Z" /></g><g
         transform="translate(175.7204,173.9003)"
         id="g804"><path
           inkscape:connector-curvature="0"
           id="path806"
           style="fill:#ed1c24;fill-opacity:1;fill-rule:nonzero;stroke:none"
           d="m 0,0 3.464,-3.464 c 0.492,-0.491 1.29,-0.491 1.782,0 0.492,0.493 0.492,1.29 0,1.783 L 1.782,1.782 5.246,5.246 c 0.492,0.492 0.492,1.29 0,1.782 -0.492,0.492 -1.29,0.492 -1.782,0 L 0,3.564 -3.464,7.028 c -0.492,0.492 -1.29,0.492 -1.782,0 -0.246,-0.246 -0.369,-0.569 -0.369,-0.891 0,-0.322 0.123,-0.645 0.369,-0.891 l 3.464,-3.464 -3.464,-3.463 c -0.246,-0.246 -0.369,-0.569 -0.369,-0.892 0,-0.322 0.123,-0.645 0.369,-0.891 0.492,-0.491 1.29,-0.491 1.782,0 L 0,0 Z" /></g><g
         transform="translate(175.7204,159.7272)"
         id="g808"><path
           inkscape:connector-curvature="0"
           id="path810"
           style="fill:#ed1c24;fill-opacity:1;fill-rule:nonzero;stroke:none"
           d="m 0,0 3.464,-3.464 c 0.492,-0.491 1.29,-0.491 1.782,0 0.492,0.493 0.492,1.29 0,1.783 L 1.782,1.782 5.246,5.246 c 0.492,0.492 0.492,1.29 0,1.782 -0.492,0.492 -1.29,0.492 -1.782,0 L 0,3.564 -3.464,7.028 c -0.492,0.492 -1.29,0.492 -1.782,0 -0.246,-0.246 -0.369,-0.569 -0.369,-0.891 0,-0.322 0.123,-0.645 0.369,-0.891 l 3.464,-3.464 -3.464,-3.463 c -0.246,-0.246 -0.369,-0.569 -0.369,-0.892 0,-0.322 0.123,-0.645 0.369,-0.891 0.492,-0.491 1.29,-0.491 1.782,0 L 0,0 Z" /></g><g
         transform="translate(175.7204,145.5542)"
         id="g812"><path
           inkscape:connector-curvature="0"
           id="path814"
           style="fill:#ed1c24;fill-opacity:1;fill-rule:nonzero;stroke:none"
           d="m 0,0 3.464,-3.464 c 0.492,-0.491 1.29,-0.491 1.782,0 0.492,0.493 0.492,1.29 0,1.783 L 1.782,1.782 5.246,5.246 c 0.492,0.492 0.492,1.29 0,1.782 -0.492,0.492 -1.29,0.492 -1.782,0 L 0,3.564 -3.464,7.028 c -0.492,0.492 -1.29,0.492 -1.782,0 -0.246,-0.246 -0.369,-0.569 -0.369,-0.891 0,-0.322 0.123,-0.645 0.369,-0.891 l 3.464,-3.464 -3.464,-3.463 c -0.246,-0.246 -0.369,-0.569 -0.369,-0.892 0,-0.322 0.123,-0.645 0.369,-0.891 0.492,-0.491 1.29,-0.491 1.782,0 L 0,0 Z" /></g><g
         transform="translate(175.7204,131.3811)"
         id="g816"><path
           inkscape:connector-curvature="0"
           id="path818"
           style="fill:#ed1c24;fill-opacity:1;fill-rule:nonzero;stroke:none"
           d="m 0,0 3.464,-3.464 c 0.492,-0.491 1.29,-0.491 1.782,0 0.492,0.493 0.492,1.29 0,1.783 L 1.782,1.782 5.246,5.246 c 0.492,0.492 0.492,1.29 0,1.782 -0.492,0.492 -1.29,0.492 -1.782,0 L 0,3.564 -3.464,7.028 c -0.492,0.492 -1.29,0.492 -1.782,0 -0.246,-0.246 -0.369,-0.569 -0.369,-0.891 0,-0.322 0.123,-0.645 0.369,-0.891 l 3.464,-3.464 -3.464,-3.463 c -0.246,-0.246 -0.369,-0.569 -0.369,-0.892 0,-0.322 0.123,-0.645 0.369,-0.891 0.492,-0.491 1.29,-0.491 1.782,0 L 0,0 Z" /></g><g
         transform="translate(175.7204,117.208)"
         id="g820"><path
           inkscape:connector-curvature="0"
           id="path822"
           style="fill:#ed1c24;fill-opacity:1;fill-rule:nonzero;stroke:none"
           d="m 0,0 3.464,-3.464 c 0.492,-0.491 1.29,-0.491 1.782,0 0.492,0.493 0.492,1.29 0,1.783 L 1.782,1.782 5.246,5.246 c 0.492,0.492 0.492,1.29 0,1.782 -0.492,0.492 -1.29,0.492 -1.782,0 L 0,3.564 -3.464,7.028 c -0.492,0.492 -1.29,0.492 -1.782,0 -0.246,-0.246 -0.369,-0.569 -0.369,-0.891 0,-0.322 0.123,-0.645 0.369,-0.891 l 3.464,-3.464 -3.464,-3.463 c -0.246,-0.246 -0.369,-0.569 -0.369,-0.892 0,-0.322 0.123,-0.645 0.369,-0.891 0.492,-0.491 1.29,-0.491 1.782,0 L 0,0 Z" /></g><g
         transform="translate(175.7204,103.0349)"
         id="g824"><path
           inkscape:connector-curvature="0"
           id="path826"
           style="fill:#ed1c24;fill-opacity:1;fill-rule:nonzero;stroke:none"
           d="m 0,0 3.464,-3.464 c 0.492,-0.491 1.29,-0.491 1.782,0 0.492,0.493 0.492,1.29 0,1.783 L 1.782,1.782 5.246,5.246 c 0.492,0.492 0.492,1.29 0,1.782 -0.492,0.492 -1.29,0.492 -1.782,0 L 0,3.564 -3.464,7.028 c -0.492,0.492 -1.29,0.492 -1.782,0 -0.246,-0.246 -0.369,-0.569 -0.369,-0.891 0,-0.322 0.123,-0.645 0.369,-0.891 l 3.464,-3.464 -3.464,-3.463 c -0.246,-0.246 -0.369,-0.569 -0.369,-0.892 0,-0.322 0.123,-0.645 0.369,-0.891 0.492,-0.491 1.29,-0.491 1.782,0 L 0,0 Z" /></g><g
         transform="translate(175.7204,88.8618)"
         id="g828"><path
           inkscape:connector-curvature="0"
           id="path830"
           style="fill:#ed1c24;fill-opacity:1;fill-rule:nonzero;stroke:none"
           d="m 0,0 3.464,-3.464 c 0.492,-0.491 1.29,-0.491 1.782,0 0.492,0.493 0.492,1.29 0,1.783 L 1.782,1.782 5.246,5.246 c 0.492,0.492 0.492,1.29 0,1.782 -0.492,0.492 -1.29,0.492 -1.782,0 L 0,3.564 -3.464,7.028 c -0.492,0.492 -1.29,0.492 -1.782,0 -0.246,-0.246 -0.369,-0.569 -0.369,-0.891 0,-0.322 0.123,-0.645 0.369,-0.891 l 3.464,-3.464 -3.464,-3.463 c -0.246,-0.246 -0.369,-0.569 -0.369,-0.892 0,-0.322 0.123,-0.645 0.369,-0.891 0.492,-0.491 1.29,-0.491 1.782,0 L 0,0 Z" /></g><g
         transform="translate(161.5475,188.0734)"
         id="g904"><path
           inkscape:connector-curvature="0"
           id="path906"
           style="fill:#ed1c24;fill-opacity:1;fill-rule:nonzero;stroke:none"
           d="m 0,0 3.464,-3.464 c 0.492,-0.491 1.29,-0.491 1.782,0 0.492,0.493 0.492,1.29 0,1.783 L 1.782,1.782 5.246,5.246 c 0.492,0.492 0.492,1.29 0,1.782 -0.492,0.492 -1.29,0.492 -1.782,0 L 0,3.564 -3.464,7.028 c -0.492,0.492 -1.29,0.492 -1.782,0 -0.246,-0.246 -0.369,-0.569 -0.369,-0.891 0,-0.322 0.123,-0.645 0.369,-0.891 l 3.464,-3.464 -3.464,-3.463 c -0.246,-0.246 -0.369,-0.569 -0.369,-0.892 0,-0.322 0.123,-0.645 0.369,-0.891 0.492,-0.491 1.29,-0.491 1.782,0 L 0,0 Z" /></g><g
         transform="translate(161.5475,173.9003)"
         id="g908"><path
           inkscape:connector-curvature="0"
           id="path910"
           style="fill:#ed1c24;fill-opacity:1;fill-rule:nonzero;stroke:none"
           d="m 0,0 3.464,-3.464 c 0.492,-0.491 1.29,-0.491 1.782,0 0.492,0.493 0.492,1.29 0,1.783 L 1.782,1.782 5.246,5.246 c 0.492,0.492 0.492,1.29 0,1.782 -0.492,0.492 -1.29,0.492 -1.782,0 L 0,3.564 -3.464,7.028 c -0.492,0.492 -1.29,0.492 -1.782,0 -0.246,-0.246 -0.369,-0.569 -0.369,-0.891 0,-0.322 0.123,-0.645 0.369,-0.891 l 3.464,-3.464 -3.464,-3.463 c -0.246,-0.246 -0.369,-0.569 -0.369,-0.892 0,-0.322 0.123,-0.645 0.369,-0.891 0.492,-0.491 1.29,-0.491 1.782,0 L 0,0 Z" /></g><g
         transform="translate(161.5475,159.7272)"
         id="g912"><path
           inkscape:connector-curvature="0"
           id="path914"
           style="fill:#ed1c24;fill-opacity:1;fill-rule:nonzero;stroke:none"
           d="m 0,0 3.464,-3.464 c 0.492,-0.491 1.29,-0.491 1.782,0 0.492,0.493 0.492,1.29 0,1.783 L 1.782,1.782 5.246,5.246 c 0.492,0.492 0.492,1.29 0,1.782 -0.492,0.492 -1.29,0.492 -1.782,0 L 0,3.564 -3.464,7.028 c -0.492,0.492 -1.29,0.492 -1.782,0 -0.246,-0.246 -0.369,-0.569 -0.369,-0.891 0,-0.322 0.123,-0.645 0.369,-0.891 l 3.464,-3.464 -3.464,-3.463 c -0.246,-0.246 -0.369,-0.569 -0.369,-0.892 0,-0.322 0.123,-0.645 0.369,-0.891 0.492,-0.491 1.29,-0.491 1.782,0 L 0,0 Z" /></g><g
         transform="translate(161.5475,103.0349)"
         id="g928"><path
           inkscape:connector-curvature="0"
           id="path930"
           style="fill:#ed1c24;fill-opacity:1;fill-rule:nonzero;stroke:none"
           d="m 0,0 3.464,-3.464 c 0.492,-0.491 1.29,-0.491 1.782,0 0.492,0.493 0.492,1.29 0,1.783 L 1.782,1.782 5.246,5.246 c 0.492,0.492 0.492,1.29 0,1.782 -0.492,0.492 -1.29,0.492 -1.782,0 L 0,3.564 -3.464,7.028 c -0.492,0.492 -1.29,0.492 -1.782,0 -0.246,-0.246 -0.369,-0.569 -0.369,-0.891 0,-0.322 0.123,-0.645 0.369,-0.891 l 3.464,-3.464 -3.464,-3.463 c -0.246,-0.246 -0.369,-0.569 -0.369,-0.892 0,-0.322 0.123,-0.645 0.369,-0.891 0.492,-0.491 1.29,-0.491 1.782,0 L 0,0 Z" /></g><g
         transform="translate(161.5475,88.8618)"
         id="g932"><path
           inkscape:connector-curvature="0"
           id="path934"
           style="fill:#ed1c24;fill-opacity:1;fill-rule:nonzero;stroke:none"
           d="m 0,0 3.464,-3.464 c 0.492,-0.491 1.29,-0.491 1.782,0 0.492,0.493 0.492,1.29 0,1.783 L 1.782,1.782 5.246,5.246 c 0.492,0.492 0.492,1.29 0,1.782 -0.492,0.492 -1.29,0.492 -1.782,0 L 0,3.564 -3.464,7.028 c -0.492,0.492 -1.29,0.492 -1.782,0 -0.246,-0.246 -0.369,-0.569 -0.369,-0.891 0,-0.322 0.123,-0.645 0.369,-0.891 l 3.464,-3.464 -3.464,-3.463 c -0.246,-0.246 -0.369,-0.569 -0.369,-0.892 0,-0.322 0.123,-0.645 0.369,-0.891 0.492,-0.491 1.29,-0.491 1.782,0 L 0,0 Z" /></g><g
         transform="translate(147.3747,188.0734)"
         id="g1008"><path
           inkscape:connector-curvature="0"
           id="path1010"
           style="fill:#ed1c24;fill-opacity:1;fill-rule:nonzero;stroke:none"
           d="m 0,0 3.464,-3.464 c 0.492,-0.491 1.29,-0.491 1.782,0 0.492,0.493 0.492,1.29 0,1.783 L 1.782,1.782 5.246,5.246 c 0.492,0.492 0.492,1.29 0,1.782 -0.492,0.492 -1.29,0.492 -1.782,0 L 0,3.564 -3.464,7.028 c -0.492,0.492 -1.29,0.492 -1.782,0 -0.246,-0.246 -0.369,-0.569 -0.369,-0.891 0,-0.322 0.123,-0.645 0.369,-0.891 l 3.464,-3.464 -3.464,-3.463 c -0.246,-0.246 -0.369,-0.569 -0.369,-0.892 0,-0.322 0.123,-0.645 0.369,-0.891 0.492,-0.491 1.29,-0.491 1.782,0 L 0,0 Z" /></g><g
         transform="translate(147.3747,173.9003)"
         id="g1012"><path
           inkscape:connector-curvature="0"
           id="path1014"
           style="fill:#ed1c24;fill-opacity:1;fill-rule:nonzero;stroke:none"
           d="m 0,0 3.464,-3.464 c 0.492,-0.491 1.29,-0.491 1.782,0 0.492,0.493 0.492,1.29 0,1.783 L 1.782,1.782 5.246,5.246 c 0.492,0.492 0.492,1.29 0,1.782 -0.492,0.492 -1.29,0.492 -1.782,0 L 0,3.564 -3.464,7.028 c -0.492,0.492 -1.29,0.492 -1.782,0 -0.246,-0.246 -0.369,-0.569 -0.369,-0.891 0,-0.322 0.123,-0.645 0.369,-0.891 l 3.464,-3.464 -3.464,-3.463 c -0.246,-0.246 -0.369,-0.569 -0.369,-0.892 0,-0.322 0.123,-0.645 0.369,-0.891 0.492,-0.491 1.29,-0.491 1.782,0 L 0,0 Z" /></g><g
         transform="translate(147.3747,103.0349)"
         id="g1032"><path
           inkscape:connector-curvature="0"
           id="path1034"
           style="fill:#ed1c24;fill-opacity:1;fill-rule:nonzero;stroke:none"
           d="m 0,0 3.464,-3.464 c 0.492,-0.491 1.29,-0.491 1.782,0 0.492,0.493 0.492,1.29 0,1.783 L 1.782,1.782 5.246,5.246 c 0.492,0.492 0.492,1.29 0,1.782 -0.492,0.492 -1.29,0.492 -1.782,0 L 0,3.564 -3.464,7.028 c -0.492,0.492 -1.29,0.492 -1.782,0 -0.246,-0.246 -0.369,-0.569 -0.369,-0.891 0,-0.322 0.123,-0.645 0.369,-0.891 l 3.464,-3.464 -3.464,-3.463 c -0.246,-0.246 -0.369,-0.569 -0.369,-0.892 0,-0.322 0.123,-0.645 0.369,-0.891 0.492,-0.491 1.29,-0.491 1.782,0 L 0,0 Z" /></g><g
         transform="translate(147.3747,88.8618)"
         id="g1036"><path
           inkscape:connector-curvature="0"
           id="path1038"
           style="fill:#ed1c24;fill-opacity:1;fill-rule:nonzero;stroke:none"
           d="m 0,0 3.464,-3.464 c 0.492,-0.491 1.29,-0.491 1.782,0 0.492,0.493 0.492,1.29 0,1.783 L 1.782,1.782 5.246,5.246 c 0.492,0.492 0.492,1.29 0,1.782 -0.492,0.492 -1.29,0.492 -1.782,0 L 0,3.564 -3.464,7.028 c -0.492,0.492 -1.29,0.492 -1.782,0 -0.246,-0.246 -0.369,-0.569 -0.369,-0.891 0,-0.322 0.123,-0.645 0.369,-0.891 l 3.464,-3.464 -3.464,-3.463 c -0.246,-0.246 -0.369,-0.569 -0.369,-0.892 0,-0.322 0.123,-0.645 0.369,-0.891 0.492,-0.491 1.29,-0.491 1.782,0 L 0,0 Z" /></g><g
         transform="translate(133.2018,188.0734)"
         id="g1112"><path
           inkscape:connector-curvature="0"
           id="path1114"
           style="fill:#ed1c24;fill-opacity:1;fill-rule:nonzero;stroke:none"
           d="m 0,0 3.464,-3.464 c 0.492,-0.491 1.29,-0.491 1.782,0 0.492,0.493 0.492,1.29 0,1.783 L 1.782,1.782 5.246,5.246 c 0.492,0.492 0.492,1.29 0,1.782 -0.492,0.492 -1.29,0.492 -1.782,0 L 0,3.564 -3.464,7.028 c -0.492,0.492 -1.29,0.492 -1.782,0 -0.246,-0.246 -0.369,-0.569 -0.369,-0.891 0,-0.322 0.123,-0.645 0.369,-0.891 l 3.464,-3.464 -3.464,-3.463 c -0.246,-0.246 -0.369,-0.569 -0.369,-0.892 0,-0.322 0.123,-0.645 0.369,-0.891 0.492,-0.491 1.29,-0.491 1.782,0 L 0,0 Z" /></g><g
         transform="translate(133.2018,173.9003)"
         id="g1116"><path
           inkscape:connector-curvature="0"
           id="path1118"
           style="fill:#ed1c24;fill-opacity:1;fill-rule:nonzero;stroke:none"
           d="m 0,0 3.464,-3.464 c 0.492,-0.491 1.29,-0.491 1.782,0 0.492,0.493 0.492,1.29 0,1.783 L 1.782,1.782 5.246,5.246 c 0.492,0.492 0.492,1.29 0,1.782 -0.492,0.492 -1.29,0.492 -1.782,0 L 0,3.564 -3.464,7.028 c -0.492,0.492 -1.29,0.492 -1.782,0 -0.246,-0.246 -0.369,-0.569 -0.369,-0.891 0,-0.322 0.123,-0.645 0.369,-0.891 l 3.464,-3.464 -3.464,-3.463 c -0.246,-0.246 -0.369,-0.569 -0.369,-0.892 0,-0.322 0.123,-0.645 0.369,-0.891 0.492,-0.491 1.29,-0.491 1.782,0 L 0,0 Z" /></g><g
         transform="translate(133.2018,103.0349)"
         id="g1136"><path
           inkscape:connector-curvature="0"
           id="path1138"
           style="fill:#ed1c24;fill-opacity:1;fill-rule:nonzero;stroke:none"
           d="m 0,0 3.464,-3.464 c 0.492,-0.491 1.29,-0.491 1.782,0 0.492,0.493 0.492,1.29 0,1.783 L 1.782,1.782 5.246,5.246 c 0.492,0.492 0.492,1.29 0,1.782 -0.492,0.492 -1.29,0.492 -1.782,0 L 0,3.564 -3.464,7.028 c -0.492,0.492 -1.29,0.492 -1.782,0 -0.246,-0.246 -0.369,-0.569 -0.369,-0.891 0,-0.322 0.123,-0.645 0.369,-0.891 l 3.464,-3.464 -3.464,-3.463 c -0.246,-0.246 -0.369,-0.569 -0.369,-0.892 0,-0.322 0.123,-0.645 0.369,-0.891 0.492,-0.491 1.29,-0.491 1.782,0 L 0,0 Z" /></g><g
         transform="translate(133.2018,88.8618)"
         id="g1140"><path
           inkscape:connector-curvature="0"
           id="path1142"
           style="fill:#ed1c24;fill-opacity:1;fill-rule:nonzero;stroke:none"
           d="m 0,0 3.464,-3.464 c 0.492,-0.491 1.29,-0.491 1.782,0 0.492,0.493 0.492,1.29 0,1.783 L 1.782,1.782 5.246,5.246 c 0.492,0.492 0.492,1.29 0,1.782 -0.492,0.492 -1.29,0.492 -1.782,0 L 0,3.564 -3.464,7.028 c -0.492,0.492 -1.29,0.492 -1.782,0 -0.246,-0.246 -0.369,-0.569 -0.369,-0.891 0,-0.322 0.123,-0.645 0.369,-0.891 l 3.464,-3.464 -3.464,-3.463 c -0.246,-0.246 -0.369,-0.569 -0.369,-0.892 0,-0.322 0.123,-0.645 0.369,-0.891 0.492,-0.491 1.29,-0.491 1.782,0 L 0,0 Z" /></g><g
         transform="translate(119.029,188.0734)"
         id="g1216"><path
           inkscape:connector-curvature="0"
           id="path1218"
           style="fill:#ed1c24;fill-opacity:1;fill-rule:nonzero;stroke:none"
           d="m 0,0 3.464,-3.464 c 0.492,-0.491 1.29,-0.491 1.782,0 0.492,0.493 0.492,1.29 0,1.783 L 1.782,1.782 5.246,5.246 c 0.492,0.492 0.492,1.29 0,1.782 -0.492,0.492 -1.29,0.492 -1.782,0 L 0,3.564 -3.464,7.028 c -0.492,0.492 -1.29,0.492 -1.782,0 -0.246,-0.246 -0.369,-0.569 -0.369,-0.891 0,-0.322 0.123,-0.645 0.369,-0.891 l 3.464,-3.464 -3.464,-3.463 c -0.246,-0.246 -0.369,-0.569 -0.369,-0.892 0,-0.322 0.123,-0.645 0.369,-0.891 0.492,-0.491 1.29,-0.491 1.782,0 L 0,0 Z" /></g><g
         transform="translate(119.029,173.9003)"
         id="g1220"><path
           inkscape:connector-curvature="0"
           id="path1222"
           style="fill:#ed1c24;fill-opacity:1;fill-rule:nonzero;stroke:none"
           d="m 0,0 3.464,-3.464 c 0.492,-0.491 1.29,-0.491 1.782,0 0.492,0.493 0.492,1.29 0,1.783 L 1.782,1.782 5.246,5.246 c 0.492,0.492 0.492,1.29 0,1.782 -0.492,0.492 -1.29,0.492 -1.782,0 L 0,3.564 -3.464,7.028 c -0.492,0.492 -1.29,0.492 -1.782,0 -0.246,-0.246 -0.369,-0.569 -0.369,-0.891 0,-0.322 0.123,-0.645 0.369,-0.891 l 3.464,-3.464 -3.464,-3.463 c -0.246,-0.246 -0.369,-0.569 -0.369,-0.892 0,-0.322 0.123,-0.645 0.369,-0.891 0.492,-0.491 1.29,-0.491 1.782,0 L 0,0 Z" /></g><g
         transform="translate(119.029,103.0349)"
         id="g1240"><path
           inkscape:connector-curvature="0"
           id="path1242"
           style="fill:#ed1c24;fill-opacity:1;fill-rule:nonzero;stroke:none"
           d="m 0,0 3.464,-3.464 c 0.492,-0.491 1.29,-0.491 1.782,0 0.492,0.493 0.492,1.29 0,1.783 L 1.782,1.782 5.246,5.246 c 0.492,0.492 0.492,1.29 0,1.782 -0.492,0.492 -1.29,0.492 -1.782,0 L 0,3.564 -3.464,7.028 c -0.492,0.492 -1.29,0.492 -1.782,0 -0.246,-0.246 -0.369,-0.569 -0.369,-0.891 0,-0.322 0.123,-0.645 0.369,-0.891 l 3.464,-3.464 -3.464,-3.463 c -0.246,-0.246 -0.369,-0.569 -0.369,-0.892 0,-0.322 0.123,-0.645 0.369,-0.891 0.492,-0.491 1.29,-0.491 1.782,0 L 0,0 Z" /></g><g
         transform="translate(119.029,88.8618)"
         id="g1244"><path
           inkscape:connector-curvature="0"
           id="path1246"
           style="fill:#ed1c24;fill-opacity:1;fill-rule:nonzero;stroke:none"
           d="m 0,0 3.464,-3.464 c 0.492,-0.491 1.29,-0.491 1.782,0 0.492,0.493 0.492,1.29 0,1.783 L 1.782,1.782 5.246,5.246 c 0.492,0.492 0.492,1.29 0,1.782 -0.492,0.492 -1.29,0.492 -1.782,0 L 0,3.564 -3.464,7.028 c -0.492,0.492 -1.29,0.492 -1.782,0 -0.246,-0.246 -0.369,-0.569 -0.369,-0.891 0,-0.322 0.123,-0.645 0.369,-0.891 l 3.464,-3.464 -3.464,-3.463 c -0.246,-0.246 -0.369,-0.569 -0.369,-0.892 0,-0.322 0.123,-0.645 0.369,-0.891 0.492,-0.491 1.29,-0.491 1.782,0 L 0,0 Z" /></g><g
         transform="translate(104.8561,329.8044)"
         id="g1280"><path
           inkscape:connector-curvature="0"
           id="path1282"
           style="fill:#ed1c24;fill-opacity:1;fill-rule:nonzero;stroke:none"
           d="m 0,0 3.464,-3.464 c 0.492,-0.491 1.29,-0.491 1.782,0 0.492,0.493 0.492,1.29 0,1.783 L 1.782,1.782 5.246,5.246 c 0.492,0.492 0.492,1.29 0,1.782 -0.492,0.492 -1.29,0.492 -1.782,0 L 0,3.564 -3.464,7.028 c -0.492,0.492 -1.29,0.492 -1.782,0 -0.246,-0.246 -0.369,-0.569 -0.369,-0.891 0,-0.322 0.123,-0.645 0.369,-0.891 l 3.464,-3.464 -3.464,-3.463 c -0.246,-0.246 -0.369,-0.569 -0.369,-0.892 0,-0.322 0.123,-0.645 0.369,-0.891 0.492,-0.491 1.29,-0.491 1.782,0 L 0,0 Z" /></g><g
         transform="translate(104.8561,315.6313)"
         id="g1284"><path
           inkscape:connector-curvature="0"
           id="path1286"
           style="fill:#ed1c24;fill-opacity:1;fill-rule:nonzero;stroke:none"
           d="m 0,0 3.464,-3.464 c 0.492,-0.491 1.29,-0.491 1.782,0 0.492,0.493 0.492,1.29 0,1.783 L 1.782,1.782 5.246,5.246 c 0.492,0.492 0.492,1.29 0,1.782 -0.492,0.492 -1.29,0.492 -1.782,0 L 0,3.564 -3.464,7.028 c -0.492,0.492 -1.29,0.492 -1.782,0 -0.246,-0.246 -0.369,-0.569 -0.369,-0.891 0,-0.322 0.123,-0.645 0.369,-0.891 l 3.464,-3.464 -3.464,-3.463 c -0.246,-0.246 -0.369,-0.569 -0.369,-0.892 0,-0.322 0.123,-0.645 0.369,-0.891 0.492,-0.491 1.29,-0.491 1.782,0 L 0,0 Z" /></g><g
         transform="translate(104.8561,301.4582)"
         id="g1288"><path
           inkscape:connector-curvature="0"
           id="path1290"
           style="fill:#ed1c24;fill-opacity:1;fill-rule:nonzero;stroke:none"
           d="m 0,0 3.464,-3.464 c 0.492,-0.491 1.29,-0.491 1.782,0 0.492,0.493 0.492,1.29 0,1.783 L 1.782,1.782 5.246,5.246 c 0.492,0.492 0.492,1.29 0,1.782 -0.492,0.492 -1.29,0.492 -1.782,0 L 0,3.564 -3.464,7.028 c -0.492,0.492 -1.29,0.492 -1.782,0 -0.246,-0.246 -0.369,-0.569 -0.369,-0.891 0,-0.322 0.123,-0.645 0.369,-0.891 l 3.464,-3.464 -3.464,-3.463 c -0.246,-0.246 -0.369,-0.569 -0.369,-0.892 0,-0.322 0.123,-0.645 0.369,-0.891 0.492,-0.491 1.29,-0.491 1.782,0 L 0,0 Z" /></g><g
         transform="translate(104.8561,287.2851)"
         id="g1292"><path
           inkscape:connector-curvature="0"
           id="path1294"
           style="fill:#ed1c24;fill-opacity:1;fill-rule:nonzero;stroke:none"
           d="m 0,0 3.464,-3.464 c 0.492,-0.491 1.29,-0.491 1.782,0 0.492,0.493 0.492,1.29 0,1.783 L 1.782,1.782 5.246,5.246 c 0.492,0.492 0.492,1.29 0,1.782 -0.492,0.492 -1.29,0.492 -1.782,0 L 0,3.564 -3.464,7.028 c -0.492,0.492 -1.29,0.492 -1.782,0 -0.246,-0.246 -0.369,-0.569 -0.369,-0.891 0,-0.322 0.123,-0.645 0.369,-0.891 l 3.464,-3.464 -3.464,-3.463 c -0.246,-0.246 -0.369,-0.569 -0.369,-0.892 0,-0.322 0.123,-0.645 0.369,-0.891 0.492,-0.491 1.29,-0.491 1.782,0 L 0,0 Z" /></g><g
         transform="translate(104.8561,273.112)"
         id="g1296"><path
           inkscape:connector-curvature="0"
           id="path1298"
           style="fill:#ed1c24;fill-opacity:1;fill-rule:nonzero;stroke:none"
           d="m 0,0 3.464,-3.464 c 0.492,-0.491 1.29,-0.491 1.782,0 0.492,0.493 0.492,1.29 0,1.783 L 1.782,1.782 5.246,5.246 c 0.492,0.492 0.492,1.29 0,1.782 -0.492,0.492 -1.29,0.492 -1.782,0 L 0,3.564 -3.464,7.028 c -0.492,0.492 -1.29,0.492 -1.782,0 -0.246,-0.246 -0.369,-0.569 -0.369,-0.891 0,-0.322 0.123,-0.645 0.369,-0.891 l 3.464,-3.464 -3.464,-3.463 c -0.246,-0.246 -0.369,-0.569 -0.369,-0.892 0,-0.322 0.123,-0.645 0.369,-0.891 0.492,-0.491 1.29,-0.491 1.782,0 L 0,0 Z" /></g><g
         transform="translate(104.8561,258.9389)"
         id="g1300"><path
           inkscape:connector-curvature="0"
           id="path1302"
           style="fill:#ed1c24;fill-opacity:1;fill-rule:nonzero;stroke:none"
           d="m 0,0 3.464,-3.464 c 0.492,-0.491 1.29,-0.491 1.782,0 0.492,0.493 0.492,1.29 0,1.783 L 1.782,1.782 5.246,5.246 c 0.492,0.492 0.492,1.29 0,1.782 -0.492,0.492 -1.29,0.492 -1.782,0 L 0,3.564 -3.464,7.028 c -0.492,0.492 -1.29,0.492 -1.782,0 -0.246,-0.246 -0.369,-0.569 -0.369,-0.891 0,-0.322 0.123,-0.645 0.369,-0.891 l 3.464,-3.464 -3.464,-3.463 c -0.246,-0.246 -0.369,-0.569 -0.369,-0.892 0,-0.322 0.123,-0.645 0.369,-0.891 0.492,-0.491 1.29,-0.491 1.782,0 L 0,0 Z" /></g><g
         transform="translate(104.8561,244.7658)"
         id="g1304"><path
           inkscape:connector-curvature="0"
           id="path1306"
           style="fill:#ed1c24;fill-opacity:1;fill-rule:nonzero;stroke:none"
           d="m 0,0 3.464,-3.464 c 0.492,-0.491 1.29,-0.491 1.782,0 0.492,0.493 0.492,1.29 0,1.783 L 1.782,1.782 5.246,5.246 c 0.492,0.492 0.492,1.29 0,1.782 -0.492,0.492 -1.29,0.492 -1.782,0 L 0,3.564 -3.464,7.028 c -0.492,0.492 -1.29,0.492 -1.782,0 -0.246,-0.246 -0.369,-0.569 -0.369,-0.891 0,-0.322 0.123,-0.645 0.369,-0.891 l 3.464,-3.464 -3.464,-3.463 c -0.246,-0.246 -0.369,-0.569 -0.369,-0.892 0,-0.322 0.123,-0.645 0.369,-0.891 0.492,-0.491 1.29,-0.491 1.782,0 L 0,0 Z" /></g><g
         transform="translate(104.8561,230.5927)"
         id="g1308"><path
           inkscape:connector-curvature="0"
           id="path1310"
           style="fill:#ed1c24;fill-opacity:1;fill-rule:nonzero;stroke:none"
           d="m 0,0 3.464,-3.464 c 0.492,-0.491 1.29,-0.491 1.782,0 0.492,0.493 0.492,1.29 0,1.783 L 1.782,1.782 5.246,5.246 c 0.492,0.492 0.492,1.29 0,1.782 -0.492,0.492 -1.29,0.492 -1.782,0 L 0,3.564 -3.464,7.028 c -0.492,0.492 -1.29,0.492 -1.782,0 -0.246,-0.246 -0.369,-0.569 -0.369,-0.891 0,-0.322 0.123,-0.645 0.369,-0.891 l 3.464,-3.464 -3.464,-3.463 c -0.246,-0.246 -0.369,-0.569 -0.369,-0.892 0,-0.322 0.123,-0.645 0.369,-0.891 0.492,-0.491 1.29,-0.491 1.782,0 L 0,0 Z" /></g><g
         transform="translate(104.8561,216.4196)"
         id="g1312"><path
           inkscape:connector-curvature="0"
           id="path1314"
           style="fill:#ed1c24;fill-opacity:1;fill-rule:nonzero;stroke:none"
           d="m 0,0 3.464,-3.464 c 0.492,-0.491 1.29,-0.491 1.782,0 0.492,0.493 0.492,1.29 0,1.783 L 1.782,1.782 5.246,5.246 c 0.492,0.492 0.492,1.29 0,1.782 -0.492,0.492 -1.29,0.492 -1.782,0 L 0,3.564 -3.464,7.028 c -0.492,0.492 -1.29,0.492 -1.782,0 -0.246,-0.246 -0.369,-0.569 -0.369,-0.891 0,-0.322 0.123,-0.645 0.369,-0.891 l 3.464,-3.464 -3.464,-3.463 c -0.246,-0.246 -0.369,-0.569 -0.369,-0.892 0,-0.322 0.123,-0.645 0.369,-0.891 0.492,-0.491 1.29,-0.491 1.782,0 L 0,0 Z" /></g><g
         transform="translate(104.8561,202.2465)"
         id="g1316"><path
           inkscape:connector-curvature="0"
           id="path1318"
           style="fill:#ed1c24;fill-opacity:1;fill-rule:nonzero;stroke:none"
           d="m 0,0 3.464,-3.464 c 0.492,-0.491 1.29,-0.491 1.782,0 0.492,0.493 0.492,1.29 0,1.783 L 1.782,1.782 5.246,5.246 c 0.492,0.492 0.492,1.29 0,1.782 -0.492,0.492 -1.29,0.492 -1.782,0 L 0,3.564 -3.464,7.028 c -0.492,0.492 -1.29,0.492 -1.782,0 -0.246,-0.246 -0.369,-0.569 -0.369,-0.891 0,-0.322 0.123,-0.645 0.369,-0.891 l 3.464,-3.464 -3.464,-3.463 c -0.246,-0.246 -0.369,-0.569 -0.369,-0.892 0,-0.322 0.123,-0.645 0.369,-0.891 0.492,-0.491 1.29,-0.491 1.782,0 L 0,0 Z" /></g><g
         transform="translate(104.8561,188.0734)"
         id="g1320"><path
           inkscape:connector-curvature="0"
           id="path1322"
           style="fill:#ed1c24;fill-opacity:1;fill-rule:nonzero;stroke:none"
           d="m 0,0 3.464,-3.464 c 0.492,-0.491 1.29,-0.491 1.782,0 0.492,0.493 0.492,1.29 0,1.783 L 1.782,1.782 5.246,5.246 c 0.492,0.492 0.492,1.29 0,1.782 -0.492,0.492 -1.29,0.492 -1.782,0 L 0,3.564 -3.464,7.028 c -0.492,0.492 -1.29,0.492 -1.782,0 -0.246,-0.246 -0.369,-0.569 -0.369,-0.891 0,-0.322 0.123,-0.645 0.369,-0.891 l 3.464,-3.464 -3.464,-3.463 c -0.246,-0.246 -0.369,-0.569 -0.369,-0.892 0,-0.322 0.123,-0.645 0.369,-0.891 0.492,-0.491 1.29,-0.491 1.782,0 L 0,0 Z" /></g><g
         transform="translate(104.8561,173.9003)"
         id="g1324"><path
           inkscape:connector-curvature="0"
           id="path1326"
           style="fill:#ed1c24;fill-opacity:1;fill-rule:nonzero;stroke:none"
           d="m 0,0 3.464,-3.464 c 0.492,-0.491 1.29,-0.491 1.782,0 0.492,0.493 0.492,1.29 0,1.783 L 1.782,1.782 5.246,5.246 c 0.492,0.492 0.492,1.29 0,1.782 -0.492,0.492 -1.29,0.492 -1.782,0 L 0,3.564 -3.464,7.028 c -0.492,0.492 -1.29,0.492 -1.782,0 -0.246,-0.246 -0.369,-0.569 -0.369,-0.891 0,-0.322 0.123,-0.645 0.369,-0.891 l 3.464,-3.464 -3.464,-3.463 c -0.246,-0.246 -0.369,-0.569 -0.369,-0.892 0,-0.322 0.123,-0.645 0.369,-0.891 0.492,-0.491 1.29,-0.491 1.782,0 L 0,0 Z" /></g><g
         transform="translate(104.8561,159.7272)"
         id="g1328"><path
           inkscape:connector-curvature="0"
           id="path1330"
           style="fill:#ed1c24;fill-opacity:1;fill-rule:nonzero;stroke:none"
           d="m 0,0 3.464,-3.464 c 0.492,-0.491 1.29,-0.491 1.782,0 0.492,0.493 0.492,1.29 0,1.783 L 1.782,1.782 5.246,5.246 c 0.492,0.492 0.492,1.29 0,1.782 -0.492,0.492 -1.29,0.492 -1.782,0 L 0,3.564 -3.464,7.028 c -0.492,0.492 -1.29,0.492 -1.782,0 -0.246,-0.246 -0.369,-0.569 -0.369,-0.891 0,-0.322 0.123,-0.645 0.369,-0.891 l 3.464,-3.464 -3.464,-3.463 c -0.246,-0.246 -0.369,-0.569 -0.369,-0.892 0,-0.322 0.123,-0.645 0.369,-0.891 0.492,-0.491 1.29,-0.491 1.782,0 L 0,0 Z" /></g><g
         transform="translate(104.8561,145.5542)"
         id="g1332"><path
           inkscape:connector-curvature="0"
           id="path1334"
           style="fill:#ed1c24;fill-opacity:1;fill-rule:nonzero;stroke:none"
           d="m 0,0 3.464,-3.464 c 0.492,-0.491 1.29,-0.491 1.782,0 0.492,0.493 0.492,1.29 0,1.783 L 1.782,1.782 5.246,5.246 c 0.492,0.492 0.492,1.29 0,1.782 -0.492,0.492 -1.29,0.492 -1.782,0 L 0,3.564 -3.464,7.028 c -0.492,0.492 -1.29,0.492 -1.782,0 -0.246,-0.246 -0.369,-0.569 -0.369,-0.891 0,-0.322 0.123,-0.645 0.369,-0.891 l 3.464,-3.464 -3.464,-3.463 c -0.246,-0.246 -0.369,-0.569 -0.369,-0.892 0,-0.322 0.123,-0.645 0.369,-0.891 0.492,-0.491 1.29,-0.491 1.782,0 L 0,0 Z" /></g><g
         transform="translate(104.8561,131.3811)"
         id="g1336"><path
           inkscape:connector-curvature="0"
           id="path1338"
           style="fill:#ed1c24;fill-opacity:1;fill-rule:nonzero;stroke:none"
           d="m 0,0 3.464,-3.464 c 0.492,-0.491 1.29,-0.491 1.782,0 0.492,0.493 0.492,1.29 0,1.783 L 1.782,1.782 5.246,5.246 c 0.492,0.492 0.492,1.29 0,1.782 -0.492,0.492 -1.29,0.492 -1.782,0 L 0,3.564 -3.464,7.028 c -0.492,0.492 -1.29,0.492 -1.782,0 -0.246,-0.246 -0.369,-0.569 -0.369,-0.891 0,-0.322 0.123,-0.645 0.369,-0.891 l 3.464,-3.464 -3.464,-3.463 c -0.246,-0.246 -0.369,-0.569 -0.369,-0.892 0,-0.322 0.123,-0.645 0.369,-0.891 0.492,-0.491 1.29,-0.491 1.782,0 L 0,0 Z" /></g><g
         transform="translate(104.8561,117.208)"
         id="g1340"><path
           inkscape:connector-curvature="0"
           id="path1342"
           style="fill:#ed1c24;fill-opacity:1;fill-rule:nonzero;stroke:none"
           d="m 0,0 3.464,-3.464 c 0.492,-0.491 1.29,-0.491 1.782,0 0.492,0.493 0.492,1.29 0,1.783 L 1.782,1.782 5.246,5.246 c 0.492,0.492 0.492,1.29 0,1.782 -0.492,0.492 -1.29,0.492 -1.782,0 L 0,3.564 -3.464,7.028 c -0.492,0.492 -1.29,0.492 -1.782,0 -0.246,-0.246 -0.369,-0.569 -0.369,-0.891 0,-0.322 0.123,-0.645 0.369,-0.891 l 3.464,-3.464 -3.464,-3.463 c -0.246,-0.246 -0.369,-0.569 -0.369,-0.892 0,-0.322 0.123,-0.645 0.369,-0.891 0.492,-0.491 1.29,-0.491 1.782,0 L 0,0 Z" /></g><g
         transform="translate(104.8561,103.0349)"
         id="g1344"><path
           inkscape:connector-curvature="0"
           id="path1346"
           style="fill:#ed1c24;fill-opacity:1;fill-rule:nonzero;stroke:none"
           d="m 0,0 3.464,-3.464 c 0.492,-0.491 1.29,-0.491 1.782,0 0.492,0.493 0.492,1.29 0,1.783 L 1.782,1.782 5.246,5.246 c 0.492,0.492 0.492,1.29 0,1.782 -0.492,0.492 -1.29,0.492 -1.782,0 L 0,3.564 -3.464,7.028 c -0.492,0.492 -1.29,0.492 -1.782,0 -0.246,-0.246 -0.369,-0.569 -0.369,-0.891 0,-0.322 0.123,-0.645 0.369,-0.891 l 3.464,-3.464 -3.464,-3.463 c -0.246,-0.246 -0.369,-0.569 -0.369,-0.892 0,-0.322 0.123,-0.645 0.369,-0.891 0.492,-0.491 1.29,-0.491 1.782,0 L 0,0 Z" /></g><g
         transform="translate(104.8561,88.8618)"
         id="g1348"><path
           inkscape:connector-curvature="0"
           id="path1350"
           style="fill:#ed1c24;fill-opacity:1;fill-rule:nonzero;stroke:none"
           d="m 0,0 3.464,-3.464 c 0.492,-0.491 1.29,-0.491 1.782,0 0.492,0.493 0.492,1.29 0,1.783 L 1.782,1.782 5.246,5.246 c 0.492,0.492 0.492,1.29 0,1.782 -0.492,0.492 -1.29,0.492 -1.782,0 L 0,3.564 -3.464,7.028 c -0.492,0.492 -1.29,0.492 -1.782,0 -0.246,-0.246 -0.369,-0.569 -0.369,-0.891 0,-0.322 0.123,-0.645 0.369,-0.891 l 3.464,-3.464 -3.464,-3.463 c -0.246,-0.246 -0.369,-0.569 -0.369,-0.892 0,-0.322 0.123,-0.645 0.369,-0.891 0.492,-0.491 1.29,-0.491 1.782,0 L 0,0 Z" /></g><g
         transform="translate(90.6833,329.8044)"
         id="g1384"><path
           inkscape:connector-curvature="0"
           id="path1386"
           style="fill:#ed1c24;fill-opacity:1;fill-rule:nonzero;stroke:none"
           d="m 0,0 3.464,-3.464 c 0.492,-0.491 1.29,-0.491 1.782,0 0.492,0.493 0.492,1.29 0,1.783 L 1.782,1.782 5.246,5.246 c 0.492,0.492 0.492,1.29 0,1.782 -0.492,0.492 -1.29,0.492 -1.782,0 L 0,3.564 -3.464,7.028 c -0.492,0.492 -1.29,0.492 -1.782,0 -0.246,-0.246 -0.369,-0.569 -0.369,-0.891 0,-0.322 0.123,-0.645 0.369,-0.891 l 3.464,-3.464 -3.464,-3.463 c -0.246,-0.246 -0.369,-0.569 -0.369,-0.892 0,-0.322 0.123,-0.645 0.369,-0.891 0.492,-0.491 1.29,-0.491 1.782,0 L 0,0 Z" /></g><g
         transform="translate(90.6833,315.6313)"
         id="g1388"><path
           inkscape:connector-curvature="0"
           id="path1390"
           style="fill:#ed1c24;fill-opacity:1;fill-rule:nonzero;stroke:none"
           d="m 0,0 3.464,-3.464 c 0.492,-0.491 1.29,-0.491 1.782,0 0.492,0.493 0.492,1.29 0,1.783 L 1.782,1.782 5.246,5.246 c 0.492,0.492 0.492,1.29 0,1.782 -0.492,0.492 -1.29,0.492 -1.782,0 L 0,3.564 -3.464,7.028 c -0.492,0.492 -1.29,0.492 -1.782,0 -0.246,-0.246 -0.369,-0.569 -0.369,-0.891 0,-0.322 0.123,-0.645 0.369,-0.891 l 3.464,-3.464 -3.464,-3.463 c -0.246,-0.246 -0.369,-0.569 -0.369,-0.892 0,-0.322 0.123,-0.645 0.369,-0.891 0.492,-0.491 1.29,-0.491 1.782,0 L 0,0 Z" /></g><g
         transform="translate(90.6833,301.4582)"
         id="g1392"><path
           inkscape:connector-curvature="0"
           id="path1394"
           style="fill:#ed1c24;fill-opacity:1;fill-rule:nonzero;stroke:none"
           d="m 0,0 3.464,-3.464 c 0.492,-0.491 1.29,-0.491 1.782,0 0.492,0.493 0.492,1.29 0,1.783 L 1.782,1.782 5.246,5.246 c 0.492,0.492 0.492,1.29 0,1.782 -0.492,0.492 -1.29,0.492 -1.782,0 L 0,3.564 -3.464,7.028 c -0.492,0.492 -1.29,0.492 -1.782,0 -0.246,-0.246 -0.369,-0.569 -0.369,-0.891 0,-0.322 0.123,-0.645 0.369,-0.891 l 3.464,-3.464 -3.464,-3.463 c -0.246,-0.246 -0.369,-0.569 -0.369,-0.892 0,-0.322 0.123,-0.645 0.369,-0.891 0.492,-0.491 1.29,-0.491 1.782,0 L 0,0 Z" /></g><g
         transform="translate(90.6833,287.2851)"
         id="g1396"><path
           inkscape:connector-curvature="0"
           id="path1398"
           style="fill:#ed1c24;fill-opacity:1;fill-rule:nonzero;stroke:none"
           d="m 0,0 3.464,-3.464 c 0.492,-0.491 1.29,-0.491 1.782,0 0.492,0.493 0.492,1.29 0,1.783 L 1.782,1.782 5.246,5.246 c 0.492,0.492 0.492,1.29 0,1.782 -0.492,0.492 -1.29,0.492 -1.782,0 L 0,3.564 -3.464,7.028 c -0.492,0.492 -1.29,0.492 -1.782,0 -0.246,-0.246 -0.369,-0.569 -0.369,-0.891 0,-0.322 0.123,-0.645 0.369,-0.891 l 3.464,-3.464 -3.464,-3.463 c -0.246,-0.246 -0.369,-0.569 -0.369,-0.892 0,-0.322 0.123,-0.645 0.369,-0.891 0.492,-0.491 1.29,-0.491 1.782,0 L 0,0 Z" /></g><g
         transform="translate(90.6833,273.112)"
         id="g1400"><path
           inkscape:connector-curvature="0"
           id="path1402"
           style="fill:#ed1c24;fill-opacity:1;fill-rule:nonzero;stroke:none"
           d="m 0,0 3.464,-3.464 c 0.492,-0.491 1.29,-0.491 1.782,0 0.492,0.493 0.492,1.29 0,1.783 L 1.782,1.782 5.246,5.246 c 0.492,0.492 0.492,1.29 0,1.782 -0.492,0.492 -1.29,0.492 -1.782,0 L 0,3.564 -3.464,7.028 c -0.492,0.492 -1.29,0.492 -1.782,0 -0.246,-0.246 -0.369,-0.569 -0.369,-0.891 0,-0.322 0.123,-0.645 0.369,-0.891 l 3.464,-3.464 -3.464,-3.463 c -0.246,-0.246 -0.369,-0.569 -0.369,-0.892 0,-0.322 0.123,-0.645 0.369,-0.891 0.492,-0.491 1.29,-0.491 1.782,0 L 0,0 Z" /></g><g
         transform="translate(90.6833,258.9389)"
         id="g1404"><path
           inkscape:connector-curvature="0"
           id="path1406"
           style="fill:#ed1c24;fill-opacity:1;fill-rule:nonzero;stroke:none"
           d="m 0,0 3.464,-3.464 c 0.492,-0.491 1.29,-0.491 1.782,0 0.492,0.493 0.492,1.29 0,1.783 L 1.782,1.782 5.246,5.246 c 0.492,0.492 0.492,1.29 0,1.782 -0.492,0.492 -1.29,0.492 -1.782,0 L 0,3.564 -3.464,7.028 c -0.492,0.492 -1.29,0.492 -1.782,0 -0.246,-0.246 -0.369,-0.569 -0.369,-0.891 0,-0.322 0.123,-0.645 0.369,-0.891 l 3.464,-3.464 -3.464,-3.463 c -0.246,-0.246 -0.369,-0.569 -0.369,-0.892 0,-0.322 0.123,-0.645 0.369,-0.891 0.492,-0.491 1.29,-0.491 1.782,0 L 0,0 Z" /></g><g
         transform="translate(90.6833,244.7658)"
         id="g1408"><path
           inkscape:connector-curvature="0"
           id="path1410"
           style="fill:#ed1c24;fill-opacity:1;fill-rule:nonzero;stroke:none"
           d="m 0,0 3.464,-3.464 c 0.492,-0.491 1.29,-0.491 1.782,0 0.492,0.493 0.492,1.29 0,1.783 L 1.782,1.782 5.246,5.246 c 0.492,0.492 0.492,1.29 0,1.782 -0.492,0.492 -1.29,0.492 -1.782,0 L 0,3.564 -3.464,7.028 c -0.492,0.492 -1.29,0.492 -1.782,0 -0.246,-0.246 -0.369,-0.569 -0.369,-0.891 0,-0.322 0.123,-0.645 0.369,-0.891 l 3.464,-3.464 -3.464,-3.463 c -0.246,-0.246 -0.369,-0.569 -0.369,-0.892 0,-0.322 0.123,-0.645 0.369,-0.891 0.492,-0.491 1.29,-0.491 1.782,0 L 0,0 Z" /></g><g
         transform="translate(90.6833,230.5927)"
         id="g1412"><path
           inkscape:connector-curvature="0"
           id="path1414"
           style="fill:#ed1c24;fill-opacity:1;fill-rule:nonzero;stroke:none"
           d="m 0,0 3.464,-3.464 c 0.492,-0.491 1.29,-0.491 1.782,0 0.492,0.493 0.492,1.29 0,1.783 L 1.782,1.782 5.246,5.246 c 0.492,0.492 0.492,1.29 0,1.782 -0.492,0.492 -1.29,0.492 -1.782,0 L 0,3.564 -3.464,7.028 c -0.492,0.492 -1.29,0.492 -1.782,0 -0.246,-0.246 -0.369,-0.569 -0.369,-0.891 0,-0.322 0.123,-0.645 0.369,-0.891 l 3.464,-3.464 -3.464,-3.463 c -0.246,-0.246 -0.369,-0.569 -0.369,-0.892 0,-0.322 0.123,-0.645 0.369,-0.891 0.492,-0.491 1.29,-0.491 1.782,0 L 0,0 Z" /></g><g
         transform="translate(90.6833,216.4196)"
         id="g1416"><path
           inkscape:connector-curvature="0"
           id="path1418"
           style="fill:#ed1c24;fill-opacity:1;fill-rule:nonzero;stroke:none"
           d="m 0,0 3.464,-3.464 c 0.492,-0.491 1.29,-0.491 1.782,0 0.492,0.493 0.492,1.29 0,1.783 L 1.782,1.782 5.246,5.246 c 0.492,0.492 0.492,1.29 0,1.782 -0.492,0.492 -1.29,0.492 -1.782,0 L 0,3.564 -3.464,7.028 c -0.492,0.492 -1.29,0.492 -1.782,0 -0.246,-0.246 -0.369,-0.569 -0.369,-0.891 0,-0.322 0.123,-0.645 0.369,-0.891 l 3.464,-3.464 -3.464,-3.463 c -0.246,-0.246 -0.369,-0.569 -0.369,-0.892 0,-0.322 0.123,-0.645 0.369,-0.891 0.492,-0.491 1.29,-0.491 1.782,0 L 0,0 Z" /></g><g
         transform="translate(90.6833,202.2465)"
         id="g1420"><path
           inkscape:connector-curvature="0"
           id="path1422"
           style="fill:#ed1c24;fill-opacity:1;fill-rule:nonzero;stroke:none"
           d="m 0,0 3.464,-3.464 c 0.492,-0.491 1.29,-0.491 1.782,0 0.492,0.493 0.492,1.29 0,1.783 L 1.782,1.782 5.246,5.246 c 0.492,0.492 0.492,1.29 0,1.782 -0.492,0.492 -1.29,0.492 -1.782,0 L 0,3.564 -3.464,7.028 c -0.492,0.492 -1.29,0.492 -1.782,0 -0.246,-0.246 -0.369,-0.569 -0.369,-0.891 0,-0.322 0.123,-0.645 0.369,-0.891 l 3.464,-3.464 -3.464,-3.463 c -0.246,-0.246 -0.369,-0.569 -0.369,-0.892 0,-0.322 0.123,-0.645 0.369,-0.891 0.492,-0.491 1.29,-0.491 1.782,0 L 0,0 Z" /></g><g
         transform="translate(90.6833,188.0734)"
         id="g1424"><path
           inkscape:connector-curvature="0"
           id="path1426"
           style="fill:#ed1c24;fill-opacity:1;fill-rule:nonzero;stroke:none"
           d="m 0,0 3.464,-3.464 c 0.492,-0.491 1.29,-0.491 1.782,0 0.492,0.493 0.492,1.29 0,1.783 L 1.782,1.782 5.246,5.246 c 0.492,0.492 0.492,1.29 0,1.782 -0.492,0.492 -1.29,0.492 -1.782,0 L 0,3.564 -3.464,7.028 c -0.492,0.492 -1.29,0.492 -1.782,0 -0.246,-0.246 -0.369,-0.569 -0.369,-0.891 0,-0.322 0.123,-0.645 0.369,-0.891 l 3.464,-3.464 -3.464,-3.463 c -0.246,-0.246 -0.369,-0.569 -0.369,-0.892 0,-0.322 0.123,-0.645 0.369,-0.891 0.492,-0.491 1.29,-0.491 1.782,0 L 0,0 Z" /></g><g
         transform="translate(90.6833,173.9003)"
         id="g1428"><path
           inkscape:connector-curvature="0"
           id="path1430"
           style="fill:#ed1c24;fill-opacity:1;fill-rule:nonzero;stroke:none"
           d="m 0,0 3.464,-3.464 c 0.492,-0.491 1.29,-0.491 1.782,0 0.492,0.493 0.492,1.29 0,1.783 L 1.782,1.782 5.246,5.246 c 0.492,0.492 0.492,1.29 0,1.782 -0.492,0.492 -1.29,0.492 -1.782,0 L 0,3.564 -3.464,7.028 c -0.492,0.492 -1.29,0.492 -1.782,0 -0.246,-0.246 -0.369,-0.569 -0.369,-0.891 0,-0.322 0.123,-0.645 0.369,-0.891 l 3.464,-3.464 -3.464,-3.463 c -0.246,-0.246 -0.369,-0.569 -0.369,-0.892 0,-0.322 0.123,-0.645 0.369,-0.891 0.492,-0.491 1.29,-0.491 1.782,0 L 0,0 Z" /></g><g
         transform="translate(90.6833,159.7272)"
         id="g1432"><path
           inkscape:connector-curvature="0"
           id="path1434"
           style="fill:#ed1c24;fill-opacity:1;fill-rule:nonzero;stroke:none"
           d="m 0,0 3.464,-3.464 c 0.492,-0.491 1.29,-0.491 1.782,0 0.492,0.493 0.492,1.29 0,1.783 L 1.782,1.782 5.246,5.246 c 0.492,0.492 0.492,1.29 0,1.782 -0.492,0.492 -1.29,0.492 -1.782,0 L 0,3.564 -3.464,7.028 c -0.492,0.492 -1.29,0.492 -1.782,0 -0.246,-0.246 -0.369,-0.569 -0.369,-0.891 0,-0.322 0.123,-0.645 0.369,-0.891 l 3.464,-3.464 -3.464,-3.463 c -0.246,-0.246 -0.369,-0.569 -0.369,-0.892 0,-0.322 0.123,-0.645 0.369,-0.891 0.492,-0.491 1.29,-0.491 1.782,0 L 0,0 Z" /></g><g
         transform="translate(90.6833,145.5542)"
         id="g1436"><path
           inkscape:connector-curvature="0"
           id="path1438"
           style="fill:#ed1c24;fill-opacity:1;fill-rule:nonzero;stroke:none"
           d="m 0,0 3.464,-3.464 c 0.492,-0.491 1.29,-0.491 1.782,0 0.492,0.493 0.492,1.29 0,1.783 L 1.782,1.782 5.246,5.246 c 0.492,0.492 0.492,1.29 0,1.782 -0.492,0.492 -1.29,0.492 -1.782,0 L 0,3.564 -3.464,7.028 c -0.492,0.492 -1.29,0.492 -1.782,0 -0.246,-0.246 -0.369,-0.569 -0.369,-0.891 0,-0.322 0.123,-0.645 0.369,-0.891 l 3.464,-3.464 -3.464,-3.463 c -0.246,-0.246 -0.369,-0.569 -0.369,-0.892 0,-0.322 0.123,-0.645 0.369,-0.891 0.492,-0.491 1.29,-0.491 1.782,0 L 0,0 Z" /></g><g
         transform="translate(90.6833,131.3811)"
         id="g1440"><path
           inkscape:connector-curvature="0"
           id="path1442"
           style="fill:#ed1c24;fill-opacity:1;fill-rule:nonzero;stroke:none"
           d="m 0,0 3.464,-3.464 c 0.492,-0.491 1.29,-0.491 1.782,0 0.492,0.493 0.492,1.29 0,1.783 L 1.782,1.782 5.246,5.246 c 0.492,0.492 0.492,1.29 0,1.782 -0.492,0.492 -1.29,0.492 -1.782,0 L 0,3.564 -3.464,7.028 c -0.492,0.492 -1.29,0.492 -1.782,0 -0.246,-0.246 -0.369,-0.569 -0.369,-0.891 0,-0.322 0.123,-0.645 0.369,-0.891 l 3.464,-3.464 -3.464,-3.463 c -0.246,-0.246 -0.369,-0.569 -0.369,-0.892 0,-0.322 0.123,-0.645 0.369,-0.891 0.492,-0.491 1.29,-0.491 1.782,0 L 0,0 Z" /></g><g
         transform="translate(90.6833,117.208)"
         id="g1444"><path
           inkscape:connector-curvature="0"
           id="path1446"
           style="fill:#ed1c24;fill-opacity:1;fill-rule:nonzero;stroke:none"
           d="m 0,0 3.464,-3.464 c 0.492,-0.491 1.29,-0.491 1.782,0 0.492,0.493 0.492,1.29 0,1.783 L 1.782,1.782 5.246,5.246 c 0.492,0.492 0.492,1.29 0,1.782 -0.492,0.492 -1.29,0.492 -1.782,0 L 0,3.564 -3.464,7.028 c -0.492,0.492 -1.29,0.492 -1.782,0 -0.246,-0.246 -0.369,-0.569 -0.369,-0.891 0,-0.322 0.123,-0.645 0.369,-0.891 l 3.464,-3.464 -3.464,-3.463 c -0.246,-0.246 -0.369,-0.569 -0.369,-0.892 0,-0.322 0.123,-0.645 0.369,-0.891 0.492,-0.491 1.29,-0.491 1.782,0 L 0,0 Z" /></g><g
         transform="translate(90.6833,103.0349)"
         id="g1448"><path
           inkscape:connector-curvature="0"
           id="path1450"
           style="fill:#ed1c24;fill-opacity:1;fill-rule:nonzero;stroke:none"
           d="m 0,0 3.464,-3.464 c 0.492,-0.491 1.29,-0.491 1.782,0 0.492,0.493 0.492,1.29 0,1.783 L 1.782,1.782 5.246,5.246 c 0.492,0.492 0.492,1.29 0,1.782 -0.492,0.492 -1.29,0.492 -1.782,0 L 0,3.564 -3.464,7.028 c -0.492,0.492 -1.29,0.492 -1.782,0 -0.246,-0.246 -0.369,-0.569 -0.369,-0.891 0,-0.322 0.123,-0.645 0.369,-0.891 l 3.464,-3.464 -3.464,-3.463 c -0.246,-0.246 -0.369,-0.569 -0.369,-0.892 0,-0.322 0.123,-0.645 0.369,-0.891 0.492,-0.491 1.29,-0.491 1.782,0 L 0,0 Z" /></g><g
         transform="translate(90.6833,88.8618)"
         id="g1452"><path
           inkscape:connector-curvature="0"
           id="path1454"
           style="fill:#ed1c24;fill-opacity:1;fill-rule:nonzero;stroke:none"
           d="m 0,0 3.464,-3.464 c 0.492,-0.491 1.29,-0.491 1.782,0 0.492,0.493 0.492,1.29 0,1.783 L 1.782,1.782 5.246,5.246 c 0.492,0.492 0.492,1.29 0,1.782 -0.492,0.492 -1.29,0.492 -1.782,0 L 0,3.564 -3.464,7.028 c -0.492,0.492 -1.29,0.492 -1.782,0 -0.246,-0.246 -0.369,-0.569 -0.369,-0.891 0,-0.322 0.123,-0.645 0.369,-0.891 l 3.464,-3.464 -3.464,-3.463 c -0.246,-0.246 -0.369,-0.569 -0.369,-0.892 0,-0.322 0.123,-0.645 0.369,-0.891 0.492,-0.491 1.29,-0.491 1.782,0 L 0,0 Z" /></g></g></g></svg>