<?xml version="1.0" encoding="UTF-8" standalone="no"?>
<!-- Created with Inkscape (http://www.inkscape.org/) -->

<svg
   xmlns:dc="http://purl.org/dc/elements/1.1/"
   xmlns:cc="http://creativecommons.org/ns#"
   xmlns:rdf="http://www.w3.org/1999/02/22-rdf-syntax-ns#"
   xmlns:svg="http://www.w3.org/2000/svg"
   xmlns="http://www.w3.org/2000/svg"
   xmlns:sodipodi="http://sodipodi.sourceforge.net/DTD/sodipodi-0.dtd"
   xmlns:inkscape="http://www.inkscape.org/namespaces/inkscape"
   id="svg2"
   version="1.1"
   inkscape:version="0.91 r13725"
   xml:space="preserve"
   width="350.69376"
   height="456.97375"
   viewBox="0 0 350.69376 456.97375"
   sodipodi:docname="c.svg"><metadata
     id="metadata8"><rdf:RDF><cc:Work
         rdf:about=""><dc:format>image/svg+xml</dc:format><dc:type
           rdf:resource="http://purl.org/dc/dcmitype/StillImage" /><dc:title></dc:title></cc:Work></rdf:RDF></metadata><defs
     id="defs6"><clipPath
       clipPathUnits="userSpaceOnUse"
       id="clipPath16"><path
         d="m 0,365.579 280.555,0 L 280.555,0 0,0 0,365.579 Z"
         id="path18"
         inkscape:connector-curvature="0" /></clipPath></defs><sodipodi:namedview
     pagecolor="#ffffff"
     bordercolor="#666666"
     borderopacity="1"
     objecttolerance="10"
     gridtolerance="10"
     guidetolerance="10"
     inkscape:pageopacity="0"
     inkscape:pageshadow="2"
     inkscape:window-width="1600"
     inkscape:window-height="837"
     id="namedview4"
     showgrid="false"
     inkscape:zoom="1.0328821"
     inkscape:cx="130.8846"
     inkscape:cy="212.09402"
     inkscape:window-x="-8"
     inkscape:window-y="-8"
     inkscape:window-maximized="1"
     inkscape:current-layer="g14" /><g
     id="g10"
     inkscape:groupmode="layer"
     inkscape:label="vania-hiksove"
     transform="matrix(1.25,0,0,-1.25,0,456.97375)"><g
       id="g12"><g
         id="g14"
         clip-path="url(#clipPath16)"><g
           id="g608"
           transform="translate(189.6661,117.208)"><path
             d="m 0,0 3.464,-3.464 c 0.492,-0.491 1.29,-0.491 1.782,0 0.492,0.493 0.492,1.29 0,1.783 L 1.782,1.782 5.246,5.246 c 0.492,0.492 0.492,1.29 0,1.782 -0.492,0.492 -1.29,0.492 -1.782,0 L 0,3.564 -3.464,7.028 c -0.492,0.492 -1.29,0.492 -1.782,0 -0.246,-0.246 -0.369,-0.569 -0.369,-0.891 0,-0.322 0.123,-0.645 0.369,-0.891 l 3.464,-3.464 -3.464,-3.463 c -0.246,-0.246 -0.369,-0.569 -0.369,-0.892 0,-0.322 0.123,-0.645 0.369,-0.891 0.492,-0.491 1.29,-0.491 1.782,0 L 0,0 Z"
             style="fill:#ed1c24;fill-opacity:1;fill-rule:nonzero;stroke:none"
             id="path610"
             inkscape:connector-curvature="0" /></g><g
           id="g688"
           transform="translate(175.4932,202.2465)"><path
             d="m 0,0 3.464,-3.464 c 0.492,-0.491 1.29,-0.491 1.782,0 0.492,0.493 0.492,1.29 0,1.783 L 1.782,1.782 5.246,5.246 c 0.492,0.492 0.492,1.29 0,1.782 -0.492,0.492 -1.29,0.492 -1.782,0 L 0,3.564 -3.464,7.028 c -0.492,0.492 -1.29,0.492 -1.782,0 -0.246,-0.246 -0.369,-0.569 -0.369,-0.891 0,-0.322 0.123,-0.645 0.369,-0.891 l 3.464,-3.464 -3.464,-3.463 c -0.246,-0.246 -0.369,-0.569 -0.369,-0.892 0,-0.322 0.123,-0.645 0.369,-0.891 0.492,-0.491 1.29,-0.491 1.782,0 L 0,0 Z"
             style="fill:#ed1c24;fill-opacity:1;fill-rule:nonzero;stroke:none"
             id="path690"
             inkscape:connector-curvature="0" /></g><g
           id="g692"
           transform="translate(175.4932,188.0734)"><path
             d="m 0,0 3.464,-3.464 c 0.492,-0.491 1.29,-0.491 1.782,0 0.492,0.493 0.492,1.29 0,1.783 L 1.782,1.782 5.246,5.246 c 0.492,0.492 0.492,1.29 0,1.782 -0.492,0.492 -1.29,0.492 -1.782,0 L 0,3.564 -3.464,7.028 c -0.492,0.492 -1.29,0.492 -1.782,0 -0.246,-0.246 -0.369,-0.569 -0.369,-0.891 0,-0.322 0.123,-0.645 0.369,-0.891 l 3.464,-3.464 -3.464,-3.463 c -0.246,-0.246 -0.369,-0.569 -0.369,-0.892 0,-0.322 0.123,-0.645 0.369,-0.891 0.492,-0.491 1.29,-0.491 1.782,0 L 0,0 Z"
             style="fill:#ed1c24;fill-opacity:1;fill-rule:nonzero;stroke:none"
             id="path694"
             inkscape:connector-curvature="0" /></g><g
           id="g712"
           transform="translate(175.4932,117.208)"><path
             d="m 0,0 3.464,-3.464 c 0.492,-0.491 1.29,-0.491 1.782,0 0.492,0.493 0.492,1.29 0,1.783 L 1.782,1.782 5.246,5.246 c 0.492,0.492 0.492,1.29 0,1.782 -0.492,0.492 -1.29,0.492 -1.782,0 L 0,3.564 -3.464,7.028 c -0.492,0.492 -1.29,0.492 -1.782,0 -0.246,-0.246 -0.369,-0.569 -0.369,-0.891 0,-0.322 0.123,-0.645 0.369,-0.891 l 3.464,-3.464 -3.464,-3.463 c -0.246,-0.246 -0.369,-0.569 -0.369,-0.892 0,-0.322 0.123,-0.645 0.369,-0.891 0.492,-0.491 1.29,-0.491 1.782,0 L 0,0 Z"
             style="fill:#ed1c24;fill-opacity:1;fill-rule:nonzero;stroke:none"
             id="path714"
             inkscape:connector-curvature="0" /></g><g
           id="g716"
           transform="translate(175.4932,103.0349)"><path
             d="m 0,0 3.464,-3.464 c 0.492,-0.491 1.29,-0.491 1.782,0 0.492,0.493 0.492,1.29 0,1.783 L 1.782,1.782 5.246,5.246 c 0.492,0.492 0.492,1.29 0,1.782 -0.492,0.492 -1.29,0.492 -1.782,0 L 0,3.564 -3.464,7.028 c -0.492,0.492 -1.29,0.492 -1.782,0 -0.246,-0.246 -0.369,-0.569 -0.369,-0.891 0,-0.322 0.123,-0.645 0.369,-0.891 l 3.464,-3.464 -3.464,-3.463 c -0.246,-0.246 -0.369,-0.569 -0.369,-0.892 0,-0.322 0.123,-0.645 0.369,-0.891 0.492,-0.491 1.29,-0.491 1.782,0 L 0,0 Z"
             style="fill:#ed1c24;fill-opacity:1;fill-rule:nonzero;stroke:none"
             id="path718"
             inkscape:connector-curvature="0" /></g><g
           id="g720"
           transform="translate(175.4932,88.8618)"><path
             d="m 0,0 3.464,-3.464 c 0.492,-0.491 1.29,-0.491 1.782,0 0.492,0.493 0.492,1.29 0,1.783 L 1.782,1.782 5.246,5.246 c 0.492,0.492 0.492,1.29 0,1.782 -0.492,0.492 -1.29,0.492 -1.782,0 L 0,3.564 -3.464,7.028 c -0.492,0.492 -1.29,0.492 -1.782,0 -0.246,-0.246 -0.369,-0.569 -0.369,-0.891 0,-0.322 0.123,-0.645 0.369,-0.891 l 3.464,-3.464 -3.464,-3.463 c -0.246,-0.246 -0.369,-0.569 -0.369,-0.892 0,-0.322 0.123,-0.645 0.369,-0.891 0.492,-0.491 1.29,-0.491 1.782,0 L 0,0 Z"
             style="fill:#ed1c24;fill-opacity:1;fill-rule:nonzero;stroke:none"
             id="path722"
             inkscape:connector-curvature="0" /></g><g
           id="g788"
           transform="translate(161.3204,216.4196)"><path
             d="m 0,0 3.464,-3.464 c 0.492,-0.491 1.29,-0.491 1.782,0 0.492,0.493 0.492,1.29 0,1.783 L 1.782,1.782 5.246,5.246 c 0.492,0.492 0.492,1.29 0,1.782 -0.492,0.492 -1.29,0.492 -1.782,0 L 0,3.564 -3.464,7.028 c -0.492,0.492 -1.29,0.492 -1.782,0 -0.246,-0.246 -0.369,-0.569 -0.369,-0.891 0,-0.322 0.123,-0.645 0.369,-0.891 l 3.464,-3.464 -3.464,-3.463 c -0.246,-0.246 -0.369,-0.569 -0.369,-0.892 0,-0.322 0.123,-0.645 0.369,-0.891 0.492,-0.491 1.29,-0.491 1.782,0 L 0,0 Z"
             style="fill:#ed1c24;fill-opacity:1;fill-rule:nonzero;stroke:none"
             id="path790"
             inkscape:connector-curvature="0" /></g><g
           id="g792"
           transform="translate(161.3204,202.2465)"><path
             d="m 0,0 3.464,-3.464 c 0.492,-0.491 1.29,-0.491 1.782,0 0.492,0.493 0.492,1.29 0,1.783 L 1.782,1.782 5.246,5.246 c 0.492,0.492 0.492,1.29 0,1.782 -0.492,0.492 -1.29,0.492 -1.782,0 L 0,3.564 -3.464,7.028 c -0.492,0.492 -1.29,0.492 -1.782,0 -0.246,-0.246 -0.369,-0.569 -0.369,-0.891 0,-0.322 0.123,-0.645 0.369,-0.891 l 3.464,-3.464 -3.464,-3.463 c -0.246,-0.246 -0.369,-0.569 -0.369,-0.892 0,-0.322 0.123,-0.645 0.369,-0.891 0.492,-0.491 1.29,-0.491 1.782,0 L 0,0 Z"
             style="fill:#ed1c24;fill-opacity:1;fill-rule:nonzero;stroke:none"
             id="path794"
             inkscape:connector-curvature="0" /></g><g
           id="g820"
           transform="translate(161.3204,103.0349)"><path
             d="m 0,0 3.464,-3.464 c 0.492,-0.491 1.29,-0.491 1.782,0 0.492,0.493 0.492,1.29 0,1.783 L 1.782,1.782 5.246,5.246 c 0.492,0.492 0.492,1.29 0,1.782 -0.492,0.492 -1.29,0.492 -1.782,0 L 0,3.564 -3.464,7.028 c -0.492,0.492 -1.29,0.492 -1.782,0 -0.246,-0.246 -0.369,-0.569 -0.369,-0.891 0,-0.322 0.123,-0.645 0.369,-0.891 l 3.464,-3.464 -3.464,-3.463 c -0.246,-0.246 -0.369,-0.569 -0.369,-0.892 0,-0.322 0.123,-0.645 0.369,-0.891 0.492,-0.491 1.29,-0.491 1.782,0 L 0,0 Z"
             style="fill:#ed1c24;fill-opacity:1;fill-rule:nonzero;stroke:none"
             id="path822"
             inkscape:connector-curvature="0" /></g><g
           id="g824"
           transform="translate(161.3204,88.8618)"><path
             d="m 0,0 3.464,-3.464 c 0.492,-0.491 1.29,-0.491 1.782,0 0.492,0.493 0.492,1.29 0,1.783 L 1.782,1.782 5.246,5.246 c 0.492,0.492 0.492,1.29 0,1.782 -0.492,0.492 -1.29,0.492 -1.782,0 L 0,3.564 -3.464,7.028 c -0.492,0.492 -1.29,0.492 -1.782,0 -0.246,-0.246 -0.369,-0.569 -0.369,-0.891 0,-0.322 0.123,-0.645 0.369,-0.891 l 3.464,-3.464 -3.464,-3.463 c -0.246,-0.246 -0.369,-0.569 -0.369,-0.892 0,-0.322 0.123,-0.645 0.369,-0.891 0.492,-0.491 1.29,-0.491 1.782,0 L 0,0 Z"
             style="fill:#ed1c24;fill-opacity:1;fill-rule:nonzero;stroke:none"
             id="path826"
             inkscape:connector-curvature="0" /></g><g
           id="g892"
           transform="translate(147.1475,216.4196)"><path
             d="m 0,0 3.464,-3.464 c 0.492,-0.491 1.29,-0.491 1.782,0 0.492,0.493 0.492,1.29 0,1.783 L 1.782,1.782 5.246,5.246 c 0.492,0.492 0.492,1.29 0,1.782 -0.492,0.492 -1.29,0.492 -1.782,0 L 0,3.564 -3.464,7.028 c -0.492,0.492 -1.29,0.492 -1.782,0 -0.246,-0.246 -0.369,-0.569 -0.369,-0.891 0,-0.322 0.123,-0.645 0.369,-0.891 l 3.464,-3.464 -3.464,-3.463 c -0.246,-0.246 -0.369,-0.569 -0.369,-0.892 0,-0.322 0.123,-0.645 0.369,-0.891 0.492,-0.491 1.29,-0.491 1.782,0 L 0,0 Z"
             style="fill:#ed1c24;fill-opacity:1;fill-rule:nonzero;stroke:none"
             id="path894"
             inkscape:connector-curvature="0" /></g><g
           id="g896"
           transform="translate(147.1475,202.2465)"><path
             d="m 0,0 3.464,-3.464 c 0.492,-0.491 1.29,-0.491 1.782,0 0.492,0.493 0.492,1.29 0,1.783 L 1.782,1.782 5.246,5.246 c 0.492,0.492 0.492,1.29 0,1.782 -0.492,0.492 -1.29,0.492 -1.782,0 L 0,3.564 -3.464,7.028 c -0.492,0.492 -1.29,0.492 -1.782,0 -0.246,-0.246 -0.369,-0.569 -0.369,-0.891 0,-0.322 0.123,-0.645 0.369,-0.891 l 3.464,-3.464 -3.464,-3.463 c -0.246,-0.246 -0.369,-0.569 -0.369,-0.892 0,-0.322 0.123,-0.645 0.369,-0.891 0.492,-0.491 1.29,-0.491 1.782,0 L 0,0 Z"
             style="fill:#ed1c24;fill-opacity:1;fill-rule:nonzero;stroke:none"
             id="path898"
             inkscape:connector-curvature="0" /></g><g
           id="g924"
           transform="translate(147.1475,103.0349)"><path
             d="m 0,0 3.464,-3.464 c 0.492,-0.491 1.29,-0.491 1.782,0 0.492,0.493 0.492,1.29 0,1.783 L 1.782,1.782 5.246,5.246 c 0.492,0.492 0.492,1.29 0,1.782 -0.492,0.492 -1.29,0.492 -1.782,0 L 0,3.564 -3.464,7.028 c -0.492,0.492 -1.29,0.492 -1.782,0 -0.246,-0.246 -0.369,-0.569 -0.369,-0.891 0,-0.322 0.123,-0.645 0.369,-0.891 l 3.464,-3.464 -3.464,-3.463 c -0.246,-0.246 -0.369,-0.569 -0.369,-0.892 0,-0.322 0.123,-0.645 0.369,-0.891 0.492,-0.491 1.29,-0.491 1.782,0 L 0,0 Z"
             style="fill:#ed1c24;fill-opacity:1;fill-rule:nonzero;stroke:none"
             id="path926"
             inkscape:connector-curvature="0" /></g><g
           id="g928"
           transform="translate(147.1475,88.8618)"><path
             d="m 0,0 3.464,-3.464 c 0.492,-0.491 1.29,-0.491 1.782,0 0.492,0.493 0.492,1.29 0,1.783 L 1.782,1.782 5.246,5.246 c 0.492,0.492 0.492,1.29 0,1.782 -0.492,0.492 -1.29,0.492 -1.782,0 L 0,3.564 -3.464,7.028 c -0.492,0.492 -1.29,0.492 -1.782,0 -0.246,-0.246 -0.369,-0.569 -0.369,-0.891 0,-0.322 0.123,-0.645 0.369,-0.891 l 3.464,-3.464 -3.464,-3.463 c -0.246,-0.246 -0.369,-0.569 -0.369,-0.892 0,-0.322 0.123,-0.645 0.369,-0.891 0.492,-0.491 1.29,-0.491 1.782,0 L 0,0 Z"
             style="fill:#ed1c24;fill-opacity:1;fill-rule:nonzero;stroke:none"
             id="path930"
             inkscape:connector-curvature="0" /></g><g
           id="g1100"
           transform="translate(133.2018,216.4196)"><path
             d="m 0,0 3.464,-3.464 c 0.492,-0.491 1.29,-0.491 1.782,0 0.492,0.493 0.492,1.29 0,1.783 L 1.782,1.782 5.246,5.246 c 0.492,0.492 0.492,1.29 0,1.782 -0.492,0.492 -1.29,0.492 -1.782,0 L 0,3.564 -3.464,7.028 c -0.492,0.492 -1.29,0.492 -1.782,0 -0.246,-0.246 -0.369,-0.569 -0.369,-0.891 0,-0.322 0.123,-0.645 0.369,-0.891 l 3.464,-3.464 -3.464,-3.463 c -0.246,-0.246 -0.369,-0.569 -0.369,-0.892 0,-0.322 0.123,-0.645 0.369,-0.891 0.492,-0.491 1.29,-0.491 1.782,0 L 0,0 Z"
             style="fill:#ed1c24;fill-opacity:1;fill-rule:nonzero;stroke:none"
             id="path1102"
             inkscape:connector-curvature="0" /></g><g
           id="g1104"
           transform="translate(133.2018,202.2465)"><path
             d="m 0,0 3.464,-3.464 c 0.492,-0.491 1.29,-0.491 1.782,0 0.492,0.493 0.492,1.29 0,1.783 L 1.782,1.782 5.246,5.246 c 0.492,0.492 0.492,1.29 0,1.782 -0.492,0.492 -1.29,0.492 -1.782,0 L 0,3.564 -3.464,7.028 c -0.492,0.492 -1.29,0.492 -1.782,0 -0.246,-0.246 -0.369,-0.569 -0.369,-0.891 0,-0.322 0.123,-0.645 0.369,-0.891 l 3.464,-3.464 -3.464,-3.463 c -0.246,-0.246 -0.369,-0.569 -0.369,-0.892 0,-0.322 0.123,-0.645 0.369,-0.891 0.492,-0.491 1.29,-0.491 1.782,0 L 0,0 Z"
             style="fill:#ed1c24;fill-opacity:1;fill-rule:nonzero;stroke:none"
             id="path1106"
             inkscape:connector-curvature="0" /></g><g
           id="g1132"
           transform="translate(133.2018,103.0349)"><path
             d="m 0,0 3.464,-3.464 c 0.492,-0.491 1.29,-0.491 1.782,0 0.492,0.493 0.492,1.29 0,1.783 L 1.782,1.782 5.246,5.246 c 0.492,0.492 0.492,1.29 0,1.782 -0.492,0.492 -1.29,0.492 -1.782,0 L 0,3.564 -3.464,7.028 c -0.492,0.492 -1.29,0.492 -1.782,0 -0.246,-0.246 -0.369,-0.569 -0.369,-0.891 0,-0.322 0.123,-0.645 0.369,-0.891 l 3.464,-3.464 -3.464,-3.463 c -0.246,-0.246 -0.369,-0.569 -0.369,-0.892 0,-0.322 0.123,-0.645 0.369,-0.891 0.492,-0.491 1.29,-0.491 1.782,0 L 0,0 Z"
             style="fill:#ed1c24;fill-opacity:1;fill-rule:nonzero;stroke:none"
             id="path1134"
             inkscape:connector-curvature="0" /></g><g
           id="g1136"
           transform="translate(133.2018,88.8618)"><path
             d="m 0,0 3.464,-3.464 c 0.492,-0.491 1.29,-0.491 1.782,0 0.492,0.493 0.492,1.29 0,1.783 L 1.782,1.782 5.246,5.246 c 0.492,0.492 0.492,1.29 0,1.782 -0.492,0.492 -1.29,0.492 -1.782,0 L 0,3.564 -3.464,7.028 c -0.492,0.492 -1.29,0.492 -1.782,0 -0.246,-0.246 -0.369,-0.569 -0.369,-0.891 0,-0.322 0.123,-0.645 0.369,-0.891 l 3.464,-3.464 -3.464,-3.463 c -0.246,-0.246 -0.369,-0.569 -0.369,-0.892 0,-0.322 0.123,-0.645 0.369,-0.891 0.492,-0.491 1.29,-0.491 1.782,0 L 0,0 Z"
             style="fill:#ed1c24;fill-opacity:1;fill-rule:nonzero;stroke:none"
             id="path1138"
             inkscape:connector-curvature="0" /></g><g
           id="g1204"
           transform="translate(119.029,216.4196)"><path
             d="m 0,0 3.464,-3.464 c 0.492,-0.491 1.29,-0.491 1.782,0 0.492,0.493 0.492,1.29 0,1.783 L 1.782,1.782 5.246,5.246 c 0.492,0.492 0.492,1.29 0,1.782 -0.492,0.492 -1.29,0.492 -1.782,0 L 0,3.564 -3.464,7.028 c -0.492,0.492 -1.29,0.492 -1.782,0 -0.246,-0.246 -0.369,-0.569 -0.369,-0.891 0,-0.322 0.123,-0.645 0.369,-0.891 l 3.464,-3.464 -3.464,-3.463 c -0.246,-0.246 -0.369,-0.569 -0.369,-0.892 0,-0.322 0.123,-0.645 0.369,-0.891 0.492,-0.491 1.29,-0.491 1.782,0 L 0,0 Z"
             style="fill:#ed1c24;fill-opacity:1;fill-rule:nonzero;stroke:none"
             id="path1206"
             inkscape:connector-curvature="0" /></g><g
           id="g1208"
           transform="translate(119.029,202.2465)"><path
             d="m 0,0 3.464,-3.464 c 0.492,-0.491 1.29,-0.491 1.782,0 0.492,0.493 0.492,1.29 0,1.783 L 1.782,1.782 5.246,5.246 c 0.492,0.492 0.492,1.29 0,1.782 -0.492,0.492 -1.29,0.492 -1.782,0 L 0,3.564 -3.464,7.028 c -0.492,0.492 -1.29,0.492 -1.782,0 -0.246,-0.246 -0.369,-0.569 -0.369,-0.891 0,-0.322 0.123,-0.645 0.369,-0.891 l 3.464,-3.464 -3.464,-3.463 c -0.246,-0.246 -0.369,-0.569 -0.369,-0.892 0,-0.322 0.123,-0.645 0.369,-0.891 0.492,-0.491 1.29,-0.491 1.782,0 L 0,0 Z"
             style="fill:#ed1c24;fill-opacity:1;fill-rule:nonzero;stroke:none"
             id="path1210"
             inkscape:connector-curvature="0" /></g><g
           id="g1236"
           transform="translate(119.029,103.0349)"><path
             d="m 0,0 3.464,-3.464 c 0.492,-0.491 1.29,-0.491 1.782,0 0.492,0.493 0.492,1.29 0,1.783 L 1.782,1.782 5.246,5.246 c 0.492,0.492 0.492,1.29 0,1.782 -0.492,0.492 -1.29,0.492 -1.782,0 L 0,3.564 -3.464,7.028 c -0.492,0.492 -1.29,0.492 -1.782,0 -0.246,-0.246 -0.369,-0.569 -0.369,-0.891 0,-0.322 0.123,-0.645 0.369,-0.891 l 3.464,-3.464 -3.464,-3.463 c -0.246,-0.246 -0.369,-0.569 -0.369,-0.892 0,-0.322 0.123,-0.645 0.369,-0.891 0.492,-0.491 1.29,-0.491 1.782,0 L 0,0 Z"
             style="fill:#ed1c24;fill-opacity:1;fill-rule:nonzero;stroke:none"
             id="path1238"
             inkscape:connector-curvature="0" /></g><g
           id="g1240"
           transform="translate(119.029,88.8618)"><path
             d="m 0,0 3.464,-3.464 c 0.492,-0.491 1.29,-0.491 1.782,0 0.492,0.493 0.492,1.29 0,1.783 L 1.782,1.782 5.246,5.246 c 0.492,0.492 0.492,1.29 0,1.782 -0.492,0.492 -1.29,0.492 -1.782,0 L 0,3.564 -3.464,7.028 c -0.492,0.492 -1.29,0.492 -1.782,0 -0.246,-0.246 -0.369,-0.569 -0.369,-0.891 0,-0.322 0.123,-0.645 0.369,-0.891 l 3.464,-3.464 -3.464,-3.463 c -0.246,-0.246 -0.369,-0.569 -0.369,-0.892 0,-0.322 0.123,-0.645 0.369,-0.891 0.492,-0.491 1.29,-0.491 1.782,0 L 0,0 Z"
             style="fill:#ed1c24;fill-opacity:1;fill-rule:nonzero;stroke:none"
             id="path1242"
             inkscape:connector-curvature="0" /></g><g
           id="g1308"
           transform="translate(104.8561,216.4196)"><path
             d="m 0,0 3.464,-3.464 c 0.492,-0.491 1.29,-0.491 1.782,0 0.492,0.493 0.492,1.29 0,1.783 L 1.782,1.782 5.246,5.246 c 0.492,0.492 0.492,1.29 0,1.782 -0.492,0.492 -1.29,0.492 -1.782,0 L 0,3.564 -3.464,7.028 c -0.492,0.492 -1.29,0.492 -1.782,0 -0.246,-0.246 -0.369,-0.569 -0.369,-0.891 0,-0.322 0.123,-0.645 0.369,-0.891 l 3.464,-3.464 -3.464,-3.463 c -0.246,-0.246 -0.369,-0.569 -0.369,-0.892 0,-0.322 0.123,-0.645 0.369,-0.891 0.492,-0.491 1.29,-0.491 1.782,0 L 0,0 Z"
             style="fill:#ed1c24;fill-opacity:1;fill-rule:nonzero;stroke:none"
             id="path1310"
             inkscape:connector-curvature="0" /></g><g
           id="g1312"
           transform="translate(104.8561,202.2465)"><path
             d="m 0,0 3.464,-3.464 c 0.492,-0.491 1.29,-0.491 1.782,0 0.492,0.493 0.492,1.29 0,1.783 L 1.782,1.782 5.246,5.246 c 0.492,0.492 0.492,1.29 0,1.782 -0.492,0.492 -1.29,0.492 -1.782,0 L 0,3.564 -3.464,7.028 c -0.492,0.492 -1.29,0.492 -1.782,0 -0.246,-0.246 -0.369,-0.569 -0.369,-0.891 0,-0.322 0.123,-0.645 0.369,-0.891 l 3.464,-3.464 -3.464,-3.463 c -0.246,-0.246 -0.369,-0.569 -0.369,-0.892 0,-0.322 0.123,-0.645 0.369,-0.891 0.492,-0.491 1.29,-0.491 1.782,0 L 0,0 Z"
             style="fill:#ed1c24;fill-opacity:1;fill-rule:nonzero;stroke:none"
             id="path1314"
             inkscape:connector-curvature="0" /></g><g
           id="g1340"
           transform="translate(104.8561,103.0349)"><path
             d="m 0,0 3.464,-3.464 c 0.492,-0.491 1.29,-0.491 1.782,0 0.492,0.493 0.492,1.29 0,1.783 L 1.782,1.782 5.246,5.246 c 0.492,0.492 0.492,1.29 0,1.782 -0.492,0.492 -1.29,0.492 -1.782,0 L 0,3.564 -3.464,7.028 c -0.492,0.492 -1.29,0.492 -1.782,0 -0.246,-0.246 -0.369,-0.569 -0.369,-0.891 0,-0.322 0.123,-0.645 0.369,-0.891 l 3.464,-3.464 -3.464,-3.463 c -0.246,-0.246 -0.369,-0.569 -0.369,-0.892 0,-0.322 0.123,-0.645 0.369,-0.891 0.492,-0.491 1.29,-0.491 1.782,0 L 0,0 Z"
             style="fill:#ed1c24;fill-opacity:1;fill-rule:nonzero;stroke:none"
             id="path1342"
             inkscape:connector-curvature="0" /></g><g
           id="g1344"
           transform="translate(104.8561,88.8618)"><path
             d="m 0,0 3.464,-3.464 c 0.492,-0.491 1.29,-0.491 1.782,0 0.492,0.493 0.492,1.29 0,1.783 L 1.782,1.782 5.246,5.246 c 0.492,0.492 0.492,1.29 0,1.782 -0.492,0.492 -1.29,0.492 -1.782,0 L 0,3.564 -3.464,7.028 c -0.492,0.492 -1.29,0.492 -1.782,0 -0.246,-0.246 -0.369,-0.569 -0.369,-0.891 0,-0.322 0.123,-0.645 0.369,-0.891 l 3.464,-3.464 -3.464,-3.463 c -0.246,-0.246 -0.369,-0.569 -0.369,-0.892 0,-0.322 0.123,-0.645 0.369,-0.891 0.492,-0.491 1.29,-0.491 1.782,0 L 0,0 Z"
             style="fill:#ed1c24;fill-opacity:1;fill-rule:nonzero;stroke:none"
             id="path1346"
             inkscape:connector-curvature="0" /></g><g
           id="g1416"
           transform="translate(90.6833,202.2465)"><path
             d="m 0,0 3.464,-3.464 c 0.492,-0.491 1.29,-0.491 1.782,0 0.492,0.493 0.492,1.29 0,1.783 L 1.782,1.782 5.246,5.246 c 0.492,0.492 0.492,1.29 0,1.782 -0.492,0.492 -1.29,0.492 -1.782,0 L 0,3.564 -3.464,7.028 c -0.492,0.492 -1.29,0.492 -1.782,0 -0.246,-0.246 -0.369,-0.569 -0.369,-0.891 0,-0.322 0.123,-0.645 0.369,-0.891 l 3.464,-3.464 -3.464,-3.463 c -0.246,-0.246 -0.369,-0.569 -0.369,-0.892 0,-0.322 0.123,-0.645 0.369,-0.891 0.492,-0.491 1.29,-0.491 1.782,0 L 0,0 Z"
             style="fill:#ed1c24;fill-opacity:1;fill-rule:nonzero;stroke:none"
             id="path1418"
             inkscape:connector-curvature="0" /></g><g
           id="g1420"
           transform="translate(90.6833,188.0734)"><path
             d="m 0,0 3.464,-3.464 c 0.492,-0.491 1.29,-0.491 1.782,0 0.492,0.493 0.492,1.29 0,1.783 L 1.782,1.782 5.246,5.246 c 0.492,0.492 0.492,1.29 0,1.782 -0.492,0.492 -1.29,0.492 -1.782,0 L 0,3.564 -3.464,7.028 c -0.492,0.492 -1.29,0.492 -1.782,0 -0.246,-0.246 -0.369,-0.569 -0.369,-0.891 0,-0.322 0.123,-0.645 0.369,-0.891 l 3.464,-3.464 -3.464,-3.463 c -0.246,-0.246 -0.369,-0.569 -0.369,-0.892 0,-0.322 0.123,-0.645 0.369,-0.891 0.492,-0.491 1.29,-0.491 1.782,0 L 0,0 Z"
             style="fill:#ed1c24;fill-opacity:1;fill-rule:nonzero;stroke:none"
             id="path1422"
             inkscape:connector-curvature="0" /></g><g
           id="g1424"
           transform="translate(90.6833,173.9003)"><path
             d="m 0,0 3.464,-3.464 c 0.492,-0.491 1.29,-0.491 1.782,0 0.492,0.493 0.492,1.29 0,1.783 L 1.782,1.782 5.246,5.246 c 0.492,0.492 0.492,1.29 0,1.782 -0.492,0.492 -1.29,0.492 -1.782,0 L 0,3.564 -3.464,7.028 c -0.492,0.492 -1.29,0.492 -1.782,0 -0.246,-0.246 -0.369,-0.569 -0.369,-0.891 0,-0.322 0.123,-0.645 0.369,-0.891 l 3.464,-3.464 -3.464,-3.463 c -0.246,-0.246 -0.369,-0.569 -0.369,-0.892 0,-0.322 0.123,-0.645 0.369,-0.891 0.492,-0.491 1.29,-0.491 1.782,0 L 0,0 Z"
             style="fill:#ed1c24;fill-opacity:1;fill-rule:nonzero;stroke:none"
             id="path1426"
             inkscape:connector-curvature="0" /></g><g
           id="g1436"
           transform="translate(90.6833,131.3811)"><path
             d="m 0,0 3.464,-3.464 c 0.492,-0.491 1.29,-0.491 1.782,0 0.492,0.493 0.492,1.29 0,1.783 L 1.782,1.782 5.246,5.246 c 0.492,0.492 0.492,1.29 0,1.782 -0.492,0.492 -1.29,0.492 -1.782,0 L 0,3.564 -3.464,7.028 c -0.492,0.492 -1.29,0.492 -1.782,0 -0.246,-0.246 -0.369,-0.569 -0.369,-0.891 0,-0.322 0.123,-0.645 0.369,-0.891 l 3.464,-3.464 -3.464,-3.463 c -0.246,-0.246 -0.369,-0.569 -0.369,-0.892 0,-0.322 0.123,-0.645 0.369,-0.891 0.492,-0.491 1.29,-0.491 1.782,0 L 0,0 Z"
             style="fill:#ed1c24;fill-opacity:1;fill-rule:nonzero;stroke:none"
             id="path1438"
             inkscape:connector-curvature="0" /></g><g
           id="g1440"
           transform="translate(90.6833,117.208)"><path
             d="m 0,0 3.464,-3.464 c 0.492,-0.491 1.29,-0.491 1.782,0 0.492,0.493 0.492,1.29 0,1.783 L 1.782,1.782 5.246,5.246 c 0.492,0.492 0.492,1.29 0,1.782 -0.492,0.492 -1.29,0.492 -1.782,0 L 0,3.564 -3.464,7.028 c -0.492,0.492 -1.29,0.492 -1.782,0 -0.246,-0.246 -0.369,-0.569 -0.369,-0.891 0,-0.322 0.123,-0.645 0.369,-0.891 l 3.464,-3.464 -3.464,-3.463 c -0.246,-0.246 -0.369,-0.569 -0.369,-0.892 0,-0.322 0.123,-0.645 0.369,-0.891 0.492,-0.491 1.29,-0.491 1.782,0 L 0,0 Z"
             style="fill:#ed1c24;fill-opacity:1;fill-rule:nonzero;stroke:none"
             id="path1442"
             inkscape:connector-curvature="0" /></g><g
           id="g1444"
           transform="translate(90.6833,103.0349)"><path
             d="m 0,0 3.464,-3.464 c 0.492,-0.491 1.29,-0.491 1.782,0 0.492,0.493 0.492,1.29 0,1.783 L 1.782,1.782 5.246,5.246 c 0.492,0.492 0.492,1.29 0,1.782 -0.492,0.492 -1.29,0.492 -1.782,0 L 0,3.564 -3.464,7.028 c -0.492,0.492 -1.29,0.492 -1.782,0 -0.246,-0.246 -0.369,-0.569 -0.369,-0.891 0,-0.322 0.123,-0.645 0.369,-0.891 l 3.464,-3.464 -3.464,-3.463 c -0.246,-0.246 -0.369,-0.569 -0.369,-0.892 0,-0.322 0.123,-0.645 0.369,-0.891 0.492,-0.491 1.29,-0.491 1.782,0 L 0,0 Z"
             style="fill:#ed1c24;fill-opacity:1;fill-rule:nonzero;stroke:none"
             id="path1446"
             inkscape:connector-curvature="0" /></g><g
           id="g1448"
           transform="translate(90.6833,88.8618)"><path
             d="m 0,0 3.464,-3.464 c 0.492,-0.491 1.29,-0.491 1.782,0 0.492,0.493 0.492,1.29 0,1.783 L 1.782,1.782 5.246,5.246 c 0.492,0.492 0.492,1.29 0,1.782 -0.492,0.492 -1.29,0.492 -1.782,0 L 0,3.564 -3.464,7.028 c -0.492,0.492 -1.29,0.492 -1.782,0 -0.246,-0.246 -0.369,-0.569 -0.369,-0.891 0,-0.322 0.123,-0.645 0.369,-0.891 l 3.464,-3.464 -3.464,-3.463 c -0.246,-0.246 -0.369,-0.569 -0.369,-0.892 0,-0.322 0.123,-0.645 0.369,-0.891 0.492,-0.491 1.29,-0.491 1.782,0 L 0,0 Z"
             style="fill:#ed1c24;fill-opacity:1;fill-rule:nonzero;stroke:none"
             id="path1450"
             inkscape:connector-curvature="0" /></g><g
           id="g1524"
           transform="translate(76.5104,188.0734)"><path
             d="m 0,0 3.464,-3.464 c 0.492,-0.491 1.29,-0.491 1.782,0 0.492,0.493 0.492,1.29 0,1.783 L 1.782,1.782 5.246,5.246 c 0.492,0.492 0.492,1.29 0,1.782 -0.492,0.492 -1.29,0.492 -1.782,0 L 0,3.564 -3.464,7.028 c -0.492,0.492 -1.29,0.492 -1.782,0 -0.246,-0.246 -0.369,-0.569 -0.369,-0.891 0,-0.322 0.123,-0.645 0.369,-0.891 l 3.464,-3.464 -3.464,-3.463 c -0.246,-0.246 -0.369,-0.569 -0.369,-0.892 0,-0.322 0.123,-0.645 0.369,-0.891 0.492,-0.491 1.29,-0.491 1.782,0 L 0,0 Z"
             style="fill:#ed1c24;fill-opacity:1;fill-rule:nonzero;stroke:none"
             id="path1526"
             inkscape:connector-curvature="0" /></g><g
           id="g1528"
           transform="translate(76.5104,173.9003)"><path
             d="m 0,0 3.464,-3.464 c 0.492,-0.491 1.29,-0.491 1.782,0 0.492,0.493 0.492,1.29 0,1.783 L 1.782,1.782 5.246,5.246 c 0.492,0.492 0.492,1.29 0,1.782 -0.492,0.492 -1.29,0.492 -1.782,0 L 0,3.564 -3.464,7.028 c -0.492,0.492 -1.29,0.492 -1.782,0 -0.246,-0.246 -0.369,-0.569 -0.369,-0.891 0,-0.322 0.123,-0.645 0.369,-0.891 l 3.464,-3.464 -3.464,-3.463 c -0.246,-0.246 -0.369,-0.569 -0.369,-0.892 0,-0.322 0.123,-0.645 0.369,-0.891 0.492,-0.491 1.29,-0.491 1.782,0 L 0,0 Z"
             style="fill:#ed1c24;fill-opacity:1;fill-rule:nonzero;stroke:none"
             id="path1530"
             inkscape:connector-curvature="0" /></g><g
           id="g1532"
           transform="translate(76.5104,159.7272)"><path
             d="m 0,0 3.464,-3.464 c 0.492,-0.491 1.29,-0.491 1.782,0 0.492,0.493 0.492,1.29 0,1.783 L 1.782,1.782 5.246,5.246 c 0.492,0.492 0.492,1.29 0,1.782 -0.492,0.492 -1.29,0.492 -1.782,0 L 0,3.564 -3.464,7.028 c -0.492,0.492 -1.29,0.492 -1.782,0 -0.246,-0.246 -0.369,-0.569 -0.369,-0.891 0,-0.322 0.123,-0.645 0.369,-0.891 l 3.464,-3.464 -3.464,-3.463 c -0.246,-0.246 -0.369,-0.569 -0.369,-0.892 0,-0.322 0.123,-0.645 0.369,-0.891 0.492,-0.491 1.29,-0.491 1.782,0 L 0,0 Z"
             style="fill:#ed1c24;fill-opacity:1;fill-rule:nonzero;stroke:none"
             id="path1534"
             inkscape:connector-curvature="0" /></g><g
           id="g1536"
           transform="translate(76.5104,145.5542)"><path
             d="m 0,0 3.464,-3.464 c 0.492,-0.491 1.29,-0.491 1.782,0 0.492,0.493 0.492,1.29 0,1.783 L 1.782,1.782 5.246,5.246 c 0.492,0.492 0.492,1.29 0,1.782 -0.492,0.492 -1.29,0.492 -1.782,0 L 0,3.564 -3.464,7.028 c -0.492,0.492 -1.29,0.492 -1.782,0 -0.246,-0.246 -0.369,-0.569 -0.369,-0.891 0,-0.322 0.123,-0.645 0.369,-0.891 l 3.464,-3.464 -3.464,-3.463 c -0.246,-0.246 -0.369,-0.569 -0.369,-0.892 0,-0.322 0.123,-0.645 0.369,-0.891 0.492,-0.491 1.29,-0.491 1.782,0 L 0,0 Z"
             style="fill:#ed1c24;fill-opacity:1;fill-rule:nonzero;stroke:none"
             id="path1538"
             inkscape:connector-curvature="0" /></g><g
           id="g1540"
           transform="translate(76.5104,131.3811)"><path
             d="m 0,0 3.464,-3.464 c 0.492,-0.491 1.29,-0.491 1.782,0 0.492,0.493 0.492,1.29 0,1.783 L 1.782,1.782 5.246,5.246 c 0.492,0.492 0.492,1.29 0,1.782 -0.492,0.492 -1.29,0.492 -1.782,0 L 0,3.564 -3.464,7.028 c -0.492,0.492 -1.29,0.492 -1.782,0 -0.246,-0.246 -0.369,-0.569 -0.369,-0.891 0,-0.322 0.123,-0.645 0.369,-0.891 l 3.464,-3.464 -3.464,-3.463 c -0.246,-0.246 -0.369,-0.569 -0.369,-0.892 0,-0.322 0.123,-0.645 0.369,-0.891 0.492,-0.491 1.29,-0.491 1.782,0 L 0,0 Z"
             style="fill:#ed1c24;fill-opacity:1;fill-rule:nonzero;stroke:none"
             id="path1542"
             inkscape:connector-curvature="0" /></g><g
           id="g1544"
           transform="translate(76.5104,117.208)"><path
             d="m 0,0 3.464,-3.464 c 0.492,-0.491 1.29,-0.491 1.782,0 0.492,0.493 0.492,1.29 0,1.783 L 1.782,1.782 5.246,5.246 c 0.492,0.492 0.492,1.29 0,1.782 -0.492,0.492 -1.29,0.492 -1.782,0 L 0,3.564 -3.464,7.028 c -0.492,0.492 -1.29,0.492 -1.782,0 -0.246,-0.246 -0.369,-0.569 -0.369,-0.891 0,-0.322 0.123,-0.645 0.369,-0.891 l 3.464,-3.464 -3.464,-3.463 c -0.246,-0.246 -0.369,-0.569 -0.369,-0.892 0,-0.322 0.123,-0.645 0.369,-0.891 0.492,-0.491 1.29,-0.491 1.782,0 L 0,0 Z"
             style="fill:#ed1c24;fill-opacity:1;fill-rule:nonzero;stroke:none"
             id="path1546"
             inkscape:connector-curvature="0" /></g><g
           id="g1632"
           transform="translate(62.3376,173.9003)"><path
             d="m 0,0 3.464,-3.464 c 0.492,-0.491 1.29,-0.491 1.782,0 0.492,0.493 0.492,1.29 0,1.783 L 1.782,1.782 5.246,5.246 c 0.492,0.492 0.492,1.29 0,1.782 -0.492,0.492 -1.29,0.492 -1.782,0 L 0,3.564 -3.464,7.028 c -0.492,0.492 -1.29,0.492 -1.782,0 -0.246,-0.246 -0.369,-0.569 -0.369,-0.891 0,-0.322 0.123,-0.645 0.369,-0.891 l 3.464,-3.464 -3.464,-3.463 c -0.246,-0.246 -0.369,-0.569 -0.369,-0.892 0,-0.322 0.123,-0.645 0.369,-0.891 0.492,-0.491 1.29,-0.491 1.782,0 L 0,0 Z"
             style="fill:#ed1c24;fill-opacity:1;fill-rule:nonzero;stroke:none"
             id="path1634"
             inkscape:connector-curvature="0" /></g><g
           id="g1636"
           transform="translate(62.3376,159.7272)"><path
             d="m 0,0 3.464,-3.464 c 0.492,-0.491 1.29,-0.491 1.782,0 0.492,0.493 0.492,1.29 0,1.783 L 1.782,1.782 5.246,5.246 c 0.492,0.492 0.492,1.29 0,1.782 -0.492,0.492 -1.29,0.492 -1.782,0 L 0,3.564 -3.464,7.028 c -0.492,0.492 -1.29,0.492 -1.782,0 -0.246,-0.246 -0.369,-0.569 -0.369,-0.891 0,-0.322 0.123,-0.645 0.369,-0.891 l 3.464,-3.464 -3.464,-3.463 c -0.246,-0.246 -0.369,-0.569 -0.369,-0.892 0,-0.322 0.123,-0.645 0.369,-0.891 0.492,-0.491 1.29,-0.491 1.782,0 L 0,0 Z"
             style="fill:#ed1c24;fill-opacity:1;fill-rule:nonzero;stroke:none"
             id="path1638"
             inkscape:connector-curvature="0" /></g><g
           id="g1640"
           transform="translate(62.3376,145.5542)"><path
             d="m 0,0 3.464,-3.464 c 0.492,-0.491 1.29,-0.491 1.782,0 0.492,0.493 0.492,1.29 0,1.783 L 1.782,1.782 5.246,5.246 c 0.492,0.492 0.492,1.29 0,1.782 -0.492,0.492 -1.29,0.492 -1.782,0 L 0,3.564 -3.464,7.028 c -0.492,0.492 -1.29,0.492 -1.782,0 -0.246,-0.246 -0.369,-0.569 -0.369,-0.891 0,-0.322 0.123,-0.645 0.369,-0.891 l 3.464,-3.464 -3.464,-3.463 c -0.246,-0.246 -0.369,-0.569 -0.369,-0.892 0,-0.322 0.123,-0.645 0.369,-0.891 0.492,-0.491 1.29,-0.491 1.782,0 L 0,0 Z"
             style="fill:#ed1c24;fill-opacity:1;fill-rule:nonzero;stroke:none"
             id="path1642"
             inkscape:connector-curvature="0" /></g><g
           id="g1644"
           transform="translate(62.3376,131.3811)"><path
             d="m 0,0 3.464,-3.464 c 0.492,-0.491 1.29,-0.491 1.782,0 0.492,0.493 0.492,1.29 0,1.783 L 1.782,1.782 5.246,5.246 c 0.492,0.492 0.492,1.29 0,1.782 -0.492,0.492 -1.29,0.492 -1.782,0 L 0,3.564 -3.464,7.028 c -0.492,0.492 -1.29,0.492 -1.782,0 -0.246,-0.246 -0.369,-0.569 -0.369,-0.891 0,-0.322 0.123,-0.645 0.369,-0.891 l 3.464,-3.464 -3.464,-3.463 c -0.246,-0.246 -0.369,-0.569 -0.369,-0.892 0,-0.322 0.123,-0.645 0.369,-0.891 0.492,-0.491 1.29,-0.491 1.782,0 L 0,0 Z"
             style="fill:#ed1c24;fill-opacity:1;fill-rule:nonzero;stroke:none"
             id="path1646"
             inkscape:connector-curvature="0" /></g></g></g></g></svg>