<?xml version="1.0" encoding="UTF-8" standalone="no"?>
<!-- Created with Inkscape (http://www.inkscape.org/) -->

<svg
   xmlns:dc="http://purl.org/dc/elements/1.1/"
   xmlns:cc="http://creativecommons.org/ns#"
   xmlns:rdf="http://www.w3.org/1999/02/22-rdf-syntax-ns#"
   xmlns:svg="http://www.w3.org/2000/svg"
   xmlns="http://www.w3.org/2000/svg"
   xmlns:sodipodi="http://sodipodi.sourceforge.net/DTD/sodipodi-0.dtd"
   xmlns:inkscape="http://www.inkscape.org/namespaces/inkscape"
   id="svg2"
   version="1.1"
   inkscape:version="0.91 r13725"
   xml:space="preserve"
   width="350.69376"
   height="456.97375"
   viewBox="0 0 350.69376 456.97375"
   sodipodi:docname="dot.svg"><metadata
     id="metadata8"><rdf:RDF><cc:Work
         rdf:about=""><dc:format>image/svg+xml</dc:format><dc:type
           rdf:resource="http://purl.org/dc/dcmitype/StillImage" /><dc:title></dc:title></cc:Work></rdf:RDF></metadata><defs
     id="defs6"><clipPath
       clipPathUnits="userSpaceOnUse"
       id="clipPath12"><path
         d="M 0.0316467,0 280.545,0 l 0,365.547 -280.5133533,0 0,-365.547 z"
         id="path14"
         inkscape:connector-curvature="0" /></clipPath><clipPath
       clipPathUnits="userSpaceOnUse"
       id="clipPath20"><path
         d="m 0,365.579 280.555,0 L 280.555,0 0,0 0,365.579 Z"
         id="path22"
         inkscape:connector-curvature="0" /></clipPath></defs><sodipodi:namedview
     pagecolor="#ffffff"
     bordercolor="#666666"
     borderopacity="1"
     objecttolerance="10"
     gridtolerance="10"
     guidetolerance="10"
     inkscape:pageopacity="0"
     inkscape:pageshadow="2"
     inkscape:window-width="1600"
     inkscape:window-height="837"
     id="namedview4"
     showgrid="false"
     inkscape:zoom="1.0328821"
     inkscape:cx="168.58114"
     inkscape:cy="212.09402"
     inkscape:window-x="-8"
     inkscape:window-y="-8"
     inkscape:window-maximized="1"
     inkscape:current-layer="g18" /><g
     id="g10"
     inkscape:groupmode="layer"
     inkscape:label="vania-hiksove"
     transform="matrix(1.25,0,0,-1.25,0,456.97375)"
     clip-path="url(#clipPath12)"><g
       id="g16"><g
         id="g18"
         clip-path="url(#clipPath20)"><g
           id="g924"
           transform="translate(161.5475,117.208)"><path
             d="m 0,0 3.464,-3.464 c 0.492,-0.491 1.29,-0.491 1.782,0 0.492,0.493 0.492,1.29 0,1.783 L 1.782,1.782 5.246,5.246 c 0.492,0.492 0.492,1.29 0,1.782 -0.492,0.492 -1.29,0.492 -1.782,0 L 0,3.564 -3.464,7.028 c -0.492,0.492 -1.29,0.492 -1.782,0 -0.246,-0.246 -0.369,-0.569 -0.369,-0.891 0,-0.322 0.123,-0.645 0.369,-0.891 l 3.464,-3.464 -3.464,-3.463 c -0.246,-0.246 -0.369,-0.569 -0.369,-0.892 0,-0.322 0.123,-0.645 0.369,-0.891 0.492,-0.491 1.29,-0.491 1.782,0 L 0,0 Z"
             style="fill:#ed1c24;fill-opacity:1;fill-rule:nonzero;stroke:none"
             id="path926"
             inkscape:connector-curvature="0" /></g><g
           id="g928"
           transform="translate(161.5475,103.0349)"><path
             d="m 0,0 3.464,-3.464 c 0.492,-0.491 1.29,-0.491 1.782,0 0.492,0.493 0.492,1.29 0,1.783 L 1.782,1.782 5.246,5.246 c 0.492,0.492 0.492,1.29 0,1.782 -0.492,0.492 -1.29,0.492 -1.782,0 L 0,3.564 -3.464,7.028 c -0.492,0.492 -1.29,0.492 -1.782,0 -0.246,-0.246 -0.369,-0.569 -0.369,-0.891 0,-0.322 0.123,-0.645 0.369,-0.891 l 3.464,-3.464 -3.464,-3.463 c -0.246,-0.246 -0.369,-0.569 -0.369,-0.892 0,-0.322 0.123,-0.645 0.369,-0.891 0.492,-0.491 1.29,-0.491 1.782,0 L 0,0 Z"
             style="fill:#ed1c24;fill-opacity:1;fill-rule:nonzero;stroke:none"
             id="path930"
             inkscape:connector-curvature="0" /></g><g
           id="g1024"
           transform="translate(147.3747,131.3811)"><path
             d="m 0,0 3.464,-3.464 c 0.492,-0.491 1.29,-0.491 1.782,0 0.492,0.493 0.492,1.29 0,1.783 L 1.782,1.782 5.246,5.246 c 0.492,0.492 0.492,1.29 0,1.782 -0.492,0.492 -1.29,0.492 -1.782,0 L 0,3.564 -3.464,7.028 c -0.492,0.492 -1.29,0.492 -1.782,0 -0.246,-0.246 -0.369,-0.569 -0.369,-0.891 0,-0.322 0.123,-0.645 0.369,-0.891 l 3.464,-3.464 -3.464,-3.463 c -0.246,-0.246 -0.369,-0.569 -0.369,-0.892 0,-0.322 0.123,-0.645 0.369,-0.891 0.492,-0.491 1.29,-0.491 1.782,0 L 0,0 Z"
             style="fill:#ed1c24;fill-opacity:1;fill-rule:nonzero;stroke:none"
             id="path1026"
             inkscape:connector-curvature="0" /></g><g
           id="g1028"
           transform="translate(147.3747,117.208)"><path
             d="m 0,0 3.464,-3.464 c 0.492,-0.491 1.29,-0.491 1.782,0 0.492,0.493 0.492,1.29 0,1.783 L 1.782,1.782 5.246,5.246 c 0.492,0.492 0.492,1.29 0,1.782 -0.492,0.492 -1.29,0.492 -1.782,0 L 0,3.564 -3.464,7.028 c -0.492,0.492 -1.29,0.492 -1.782,0 -0.246,-0.246 -0.369,-0.569 -0.369,-0.891 0,-0.322 0.123,-0.645 0.369,-0.891 l 3.464,-3.464 -3.464,-3.463 c -0.246,-0.246 -0.369,-0.569 -0.369,-0.892 0,-0.322 0.123,-0.645 0.369,-0.891 0.492,-0.491 1.29,-0.491 1.782,0 L 0,0 Z"
             style="fill:#ed1c24;fill-opacity:1;fill-rule:nonzero;stroke:none"
             id="path1030"
             inkscape:connector-curvature="0" /></g><g
           id="g1032"
           transform="translate(147.3747,103.0349)"><path
             d="m 0,0 3.464,-3.464 c 0.492,-0.491 1.29,-0.491 1.782,0 0.492,0.493 0.492,1.29 0,1.783 L 1.782,1.782 5.246,5.246 c 0.492,0.492 0.492,1.29 0,1.782 -0.492,0.492 -1.29,0.492 -1.782,0 L 0,3.564 -3.464,7.028 c -0.492,0.492 -1.29,0.492 -1.782,0 -0.246,-0.246 -0.369,-0.569 -0.369,-0.891 0,-0.322 0.123,-0.645 0.369,-0.891 l 3.464,-3.464 -3.464,-3.463 c -0.246,-0.246 -0.369,-0.569 -0.369,-0.892 0,-0.322 0.123,-0.645 0.369,-0.891 0.492,-0.491 1.29,-0.491 1.782,0 L 0,0 Z"
             style="fill:#ed1c24;fill-opacity:1;fill-rule:nonzero;stroke:none"
             id="path1034"
             inkscape:connector-curvature="0" /></g><g
           id="g1036"
           transform="translate(147.3747,88.8618)"><path
             d="m 0,0 3.464,-3.464 c 0.492,-0.491 1.29,-0.491 1.782,0 0.492,0.493 0.492,1.29 0,1.783 L 1.782,1.782 5.246,5.246 c 0.492,0.492 0.492,1.29 0,1.782 -0.492,0.492 -1.29,0.492 -1.782,0 L 0,3.564 -3.464,7.028 c -0.492,0.492 -1.29,0.492 -1.782,0 -0.246,-0.246 -0.369,-0.569 -0.369,-0.891 0,-0.322 0.123,-0.645 0.369,-0.891 l 3.464,-3.464 -3.464,-3.463 c -0.246,-0.246 -0.369,-0.569 -0.369,-0.892 0,-0.322 0.123,-0.645 0.369,-0.891 0.492,-0.491 1.29,-0.491 1.782,0 L 0,0 Z"
             style="fill:#ed1c24;fill-opacity:1;fill-rule:nonzero;stroke:none"
             id="path1038"
             inkscape:connector-curvature="0" /></g><g
           id="g1128"
           transform="translate(133.2018,131.3811)"><path
             d="m 0,0 3.464,-3.464 c 0.492,-0.491 1.29,-0.491 1.782,0 0.492,0.493 0.492,1.29 0,1.783 L 1.782,1.782 5.246,5.246 c 0.492,0.492 0.492,1.29 0,1.782 -0.492,0.492 -1.29,0.492 -1.782,0 L 0,3.564 -3.464,7.028 c -0.492,0.492 -1.29,0.492 -1.782,0 -0.246,-0.246 -0.369,-0.569 -0.369,-0.891 0,-0.322 0.123,-0.645 0.369,-0.891 l 3.464,-3.464 -3.464,-3.463 c -0.246,-0.246 -0.369,-0.569 -0.369,-0.892 0,-0.322 0.123,-0.645 0.369,-0.891 0.492,-0.491 1.29,-0.491 1.782,0 L 0,0 Z"
             style="fill:#ed1c24;fill-opacity:1;fill-rule:nonzero;stroke:none"
             id="path1130"
             inkscape:connector-curvature="0" /></g><g
           id="g1132"
           transform="translate(133.2018,117.208)"><path
             d="m 0,0 3.464,-3.464 c 0.492,-0.491 1.29,-0.491 1.782,0 0.492,0.493 0.492,1.29 0,1.783 L 1.782,1.782 5.246,5.246 c 0.492,0.492 0.492,1.29 0,1.782 -0.492,0.492 -1.29,0.492 -1.782,0 L 0,3.564 -3.464,7.028 c -0.492,0.492 -1.29,0.492 -1.782,0 -0.246,-0.246 -0.369,-0.569 -0.369,-0.891 0,-0.322 0.123,-0.645 0.369,-0.891 l 3.464,-3.464 -3.464,-3.463 c -0.246,-0.246 -0.369,-0.569 -0.369,-0.892 0,-0.322 0.123,-0.645 0.369,-0.891 0.492,-0.491 1.29,-0.491 1.782,0 L 0,0 Z"
             style="fill:#ed1c24;fill-opacity:1;fill-rule:nonzero;stroke:none"
             id="path1134"
             inkscape:connector-curvature="0" /></g><g
           id="g1136"
           transform="translate(133.2018,103.0349)"><path
             d="m 0,0 3.464,-3.464 c 0.492,-0.491 1.29,-0.491 1.782,0 0.492,0.493 0.492,1.29 0,1.783 L 1.782,1.782 5.246,5.246 c 0.492,0.492 0.492,1.29 0,1.782 -0.492,0.492 -1.29,0.492 -1.782,0 L 0,3.564 -3.464,7.028 c -0.492,0.492 -1.29,0.492 -1.782,0 -0.246,-0.246 -0.369,-0.569 -0.369,-0.891 0,-0.322 0.123,-0.645 0.369,-0.891 l 3.464,-3.464 -3.464,-3.463 c -0.246,-0.246 -0.369,-0.569 -0.369,-0.892 0,-0.322 0.123,-0.645 0.369,-0.891 0.492,-0.491 1.29,-0.491 1.782,0 L 0,0 Z"
             style="fill:#ed1c24;fill-opacity:1;fill-rule:nonzero;stroke:none"
             id="path1138"
             inkscape:connector-curvature="0" /></g><g
           id="g1140"
           transform="translate(133.2018,88.8618)"><path
             d="m 0,0 3.464,-3.464 c 0.492,-0.491 1.29,-0.491 1.782,0 0.492,0.493 0.492,1.29 0,1.783 L 1.782,1.782 5.246,5.246 c 0.492,0.492 0.492,1.29 0,1.782 -0.492,0.492 -1.29,0.492 -1.782,0 L 0,3.564 -3.464,7.028 c -0.492,0.492 -1.29,0.492 -1.782,0 -0.246,-0.246 -0.369,-0.569 -0.369,-0.891 0,-0.322 0.123,-0.645 0.369,-0.891 l 3.464,-3.464 -3.464,-3.463 c -0.246,-0.246 -0.369,-0.569 -0.369,-0.892 0,-0.322 0.123,-0.645 0.369,-0.891 0.492,-0.491 1.29,-0.491 1.782,0 L 0,0 Z"
             style="fill:#ed1c24;fill-opacity:1;fill-rule:nonzero;stroke:none"
             id="path1142"
             inkscape:connector-curvature="0" /></g><g
           id="g1236"
           transform="translate(119.029,117.208)"><path
             d="m 0,0 3.464,-3.464 c 0.492,-0.491 1.29,-0.491 1.782,0 0.492,0.493 0.492,1.29 0,1.783 L 1.782,1.782 5.246,5.246 c 0.492,0.492 0.492,1.29 0,1.782 -0.492,0.492 -1.29,0.492 -1.782,0 L 0,3.564 -3.464,7.028 c -0.492,0.492 -1.29,0.492 -1.782,0 -0.246,-0.246 -0.369,-0.569 -0.369,-0.891 0,-0.322 0.123,-0.645 0.369,-0.891 l 3.464,-3.464 -3.464,-3.463 c -0.246,-0.246 -0.369,-0.569 -0.369,-0.892 0,-0.322 0.123,-0.645 0.369,-0.891 0.492,-0.491 1.29,-0.491 1.782,0 L 0,0 Z"
             style="fill:#ed1c24;fill-opacity:1;fill-rule:nonzero;stroke:none"
             id="path1238"
             inkscape:connector-curvature="0" /></g><g
           id="g1240"
           transform="translate(119.029,103.0349)"><path
             d="m 0,0 3.464,-3.464 c 0.492,-0.491 1.29,-0.491 1.782,0 0.492,0.493 0.492,1.29 0,1.783 L 1.782,1.782 5.246,5.246 c 0.492,0.492 0.492,1.29 0,1.782 -0.492,0.492 -1.29,0.492 -1.782,0 L 0,3.564 -3.464,7.028 c -0.492,0.492 -1.29,0.492 -1.782,0 -0.246,-0.246 -0.369,-0.569 -0.369,-0.891 0,-0.322 0.123,-0.645 0.369,-0.891 l 3.464,-3.464 -3.464,-3.463 c -0.246,-0.246 -0.369,-0.569 -0.369,-0.892 0,-0.322 0.123,-0.645 0.369,-0.891 0.492,-0.491 1.29,-0.491 1.782,0 L 0,0 Z"
             style="fill:#ed1c24;fill-opacity:1;fill-rule:nonzero;stroke:none"
             id="path1242"
             inkscape:connector-curvature="0" /></g></g></g></g></svg>