<?xml version="1.0" encoding="UTF-8" standalone="no"?>
<!-- Created with Inkscape (http://www.inkscape.org/) -->

<svg
   xmlns:dc="http://purl.org/dc/elements/1.1/"
   xmlns:cc="http://creativecommons.org/ns#"
   xmlns:rdf="http://www.w3.org/1999/02/22-rdf-syntax-ns#"
   xmlns:svg="http://www.w3.org/2000/svg"
   xmlns="http://www.w3.org/2000/svg"
   xmlns:sodipodi="http://sodipodi.sourceforge.net/DTD/sodipodi-0.dtd"
   xmlns:inkscape="http://www.inkscape.org/namespaces/inkscape"
   id="svg2"
   version="1.1"
   inkscape:version="0.91 r13725"
   xml:space="preserve"
   width="350.69376"
   height="456.97375"
   viewBox="0 0 350.69376 456.97375"
   sodipodi:docname="e.svg"><metadata
     id="metadata8"><rdf:RDF><cc:Work
         rdf:about=""><dc:format>image/svg+xml</dc:format><dc:type
           rdf:resource="http://purl.org/dc/dcmitype/StillImage" /><dc:title></dc:title></cc:Work></rdf:RDF></metadata><defs
     id="defs6"><clipPath
       clipPathUnits="userSpaceOnUse"
       id="clipPath12"><path
         d="M 0.0316467,0 280.545,0 l 0,365.547 -280.5133533,0 0,-365.547 z"
         id="path14"
         inkscape:connector-curvature="0" /></clipPath><clipPath
       clipPathUnits="userSpaceOnUse"
       id="clipPath20"><path
         d="m 0,365.579 280.555,0 L 280.555,0 0,0 0,365.579 Z"
         id="path22"
         inkscape:connector-curvature="0" /></clipPath></defs><sodipodi:namedview
     pagecolor="#ffffff"
     bordercolor="#666666"
     borderopacity="1"
     objecttolerance="10"
     gridtolerance="10"
     guidetolerance="10"
     inkscape:pageopacity="0"
     inkscape:pageshadow="2"
     inkscape:window-width="1600"
     inkscape:window-height="837"
     id="namedview4"
     showgrid="false"
     inkscape:zoom="1.0328821"
     inkscape:cx="240.36496"
     inkscape:cy="242.17104"
     inkscape:window-x="-8"
     inkscape:window-y="-8"
     inkscape:window-maximized="1"
     inkscape:current-layer="g18" /><g
     id="g10"
     inkscape:groupmode="layer"
     inkscape:label="vania-hiksove"
     transform="matrix(1.25,0,0,-1.25,0,456.97375)"
     clip-path="url(#clipPath12)"><g
       id="g16"><g
         id="g18"
         clip-path="url(#clipPath20)"><g
           id="g488"
           transform="translate(218.2389,173.6734)"><path
             d="m 0,0 3.464,-3.464 c 0.492,-0.491 1.29,-0.491 1.782,0 0.492,0.493 0.492,1.29 0,1.783 L 1.782,1.782 5.246,5.246 c 0.492,0.492 0.492,1.29 0,1.782 -0.492,0.492 -1.29,0.492 -1.782,0 L 0,3.564 -3.464,7.028 c -0.492,0.492 -1.29,0.492 -1.782,0 -0.246,-0.246 -0.369,-0.569 -0.369,-0.891 0,-0.322 0.123,-0.645 0.369,-0.891 l 3.464,-3.464 -3.464,-3.463 c -0.246,-0.246 -0.369,-0.569 -0.369,-0.892 0,-0.322 0.123,-0.645 0.369,-0.891 0.492,-0.491 1.29,-0.491 1.782,0 L 0,0 Z"
             style="fill:#ed1c24;fill-opacity:1;fill-rule:nonzero;stroke:none"
             id="path490"
             inkscape:connector-curvature="0" /></g><g
           id="g584"
           transform="translate(204.0661,187.6196)"><path
             d="m 0,0 3.464,-3.464 c 0.492,-0.491 1.29,-0.491 1.782,0 0.492,0.493 0.492,1.29 0,1.783 L 1.782,1.782 5.246,5.246 c 0.492,0.492 0.492,1.29 0,1.782 -0.492,0.492 -1.29,0.492 -1.782,0 L 0,3.564 -3.464,7.028 c -0.492,0.492 -1.29,0.492 -1.782,0 -0.246,-0.246 -0.369,-0.569 -0.369,-0.891 0,-0.322 0.123,-0.645 0.369,-0.891 l 3.464,-3.464 -3.464,-3.463 c -0.246,-0.246 -0.369,-0.569 -0.369,-0.892 0,-0.322 0.123,-0.645 0.369,-0.891 0.492,-0.491 1.29,-0.491 1.782,0 L 0,0 Z"
             style="fill:#ed1c24;fill-opacity:1;fill-rule:nonzero;stroke:none"
             id="path586"
             inkscape:connector-curvature="0" /></g><g
           id="g592"
           transform="translate(204.0661,173.6734)"><path
             d="m 0,0 3.464,-3.464 c 0.492,-0.491 1.29,-0.491 1.782,0 0.492,0.493 0.492,1.29 0,1.783 L 1.782,1.782 5.246,5.246 c 0.492,0.492 0.492,1.29 0,1.782 -0.492,0.492 -1.29,0.492 -1.782,0 L 0,3.564 -3.464,7.028 c -0.492,0.492 -1.29,0.492 -1.782,0 -0.246,-0.246 -0.369,-0.569 -0.369,-0.891 0,-0.322 0.123,-0.645 0.369,-0.891 l 3.464,-3.464 -3.464,-3.463 c -0.246,-0.246 -0.369,-0.569 -0.369,-0.892 0,-0.322 0.123,-0.645 0.369,-0.891 0.492,-0.491 1.29,-0.491 1.782,0 L 0,0 Z"
             style="fill:#ed1c24;fill-opacity:1;fill-rule:nonzero;stroke:none"
             id="path594"
             inkscape:connector-curvature="0" /></g><g
           id="g596"
           transform="translate(204.0661,159.5003)"><path
             d="m 0,0 3.464,-3.464 c 0.492,-0.491 1.29,-0.491 1.782,0 0.492,0.493 0.492,1.29 0,1.783 L 1.782,1.782 5.246,5.246 c 0.492,0.492 0.492,1.29 0,1.782 -0.492,0.492 -1.29,0.492 -1.782,0 L 0,3.564 -3.464,7.028 c -0.492,0.492 -1.29,0.492 -1.782,0 -0.246,-0.246 -0.369,-0.569 -0.369,-0.891 0,-0.322 0.123,-0.645 0.369,-0.891 l 3.464,-3.464 -3.464,-3.463 c -0.246,-0.246 -0.369,-0.569 -0.369,-0.892 0,-0.322 0.123,-0.645 0.369,-0.891 0.492,-0.491 1.29,-0.491 1.782,0 L 0,0 Z"
             style="fill:#ed1c24;fill-opacity:1;fill-rule:nonzero;stroke:none"
             id="path598"
             inkscape:connector-curvature="0" /></g><g
           id="g680"
           transform="translate(189.8932,215.9658)"><path
             d="m 0,0 3.464,-3.464 c 0.492,-0.491 1.29,-0.491 1.782,0 0.492,0.493 0.492,1.29 0,1.783 L 1.782,1.782 5.246,5.246 c 0.492,0.492 0.492,1.29 0,1.782 -0.492,0.492 -1.29,0.492 -1.782,0 L 0,3.564 -3.464,7.028 c -0.492,0.492 -1.29,0.492 -1.782,0 -0.246,-0.246 -0.369,-0.569 -0.369,-0.891 0,-0.322 0.123,-0.645 0.369,-0.891 l 3.464,-3.464 -3.464,-3.463 c -0.246,-0.246 -0.369,-0.569 -0.369,-0.892 0,-0.322 0.123,-0.645 0.369,-0.891 0.492,-0.491 1.29,-0.491 1.782,0 L 0,0 Z"
             style="fill:#ed1c24;fill-opacity:1;fill-rule:nonzero;stroke:none"
             id="path682"
             inkscape:connector-curvature="0" /></g><g
           id="g684"
           transform="translate(189.8932,201.7927)"><path
             d="m 0,0 3.464,-3.464 c 0.492,-0.491 1.29,-0.491 1.782,0 0.492,0.493 0.492,1.29 0,1.783 L 1.782,1.782 5.246,5.246 c 0.492,0.492 0.492,1.29 0,1.782 -0.492,0.492 -1.29,0.492 -1.782,0 L 0,3.564 -3.464,7.028 c -0.492,0.492 -1.29,0.492 -1.782,0 -0.246,-0.246 -0.369,-0.569 -0.369,-0.891 0,-0.322 0.123,-0.645 0.369,-0.891 l 3.464,-3.464 -3.464,-3.463 c -0.246,-0.246 -0.369,-0.569 -0.369,-0.892 0,-0.322 0.123,-0.645 0.369,-0.891 0.492,-0.491 1.29,-0.491 1.782,0 L 0,0 Z"
             style="fill:#ed1c24;fill-opacity:1;fill-rule:nonzero;stroke:none"
             id="path686"
             inkscape:connector-curvature="0" /></g><g
           id="g688"
           transform="translate(189.8932,187.6196)"><path
             d="m 0,0 3.464,-3.464 c 0.492,-0.491 1.29,-0.491 1.782,0 0.492,0.493 0.492,1.29 0,1.783 L 1.782,1.782 5.246,5.246 c 0.492,0.492 0.492,1.29 0,1.782 -0.492,0.492 -1.29,0.492 -1.782,0 L 0,3.564 -3.464,7.028 c -0.492,0.492 -1.29,0.492 -1.782,0 -0.246,-0.246 -0.369,-0.569 -0.369,-0.891 0,-0.322 0.123,-0.645 0.369,-0.891 l 3.464,-3.464 -3.464,-3.463 c -0.246,-0.246 -0.369,-0.569 -0.369,-0.892 0,-0.322 0.123,-0.645 0.369,-0.891 0.492,-0.491 1.29,-0.491 1.782,0 L 0,0 Z"
             style="fill:#ed1c24;fill-opacity:1;fill-rule:nonzero;stroke:none"
             id="path690"
             inkscape:connector-curvature="0" /></g><g
           id="g700"
           transform="translate(189.8932,159.5003)"><path
             d="m 0,0 3.464,-3.464 c 0.492,-0.491 1.29,-0.491 1.782,0 0.492,0.493 0.492,1.29 0,1.783 L 1.782,1.782 5.246,5.246 c 0.492,0.492 0.492,1.29 0,1.782 -0.492,0.492 -1.29,0.492 -1.782,0 L 0,3.564 -3.464,7.028 c -0.492,0.492 -1.29,0.492 -1.782,0 -0.246,-0.246 -0.369,-0.569 -0.369,-0.891 0,-0.322 0.123,-0.645 0.369,-0.891 l 3.464,-3.464 -3.464,-3.463 c -0.246,-0.246 -0.369,-0.569 -0.369,-0.892 0,-0.322 0.123,-0.645 0.369,-0.891 0.492,-0.491 1.29,-0.491 1.782,0 L 0,0 Z"
             style="fill:#ed1c24;fill-opacity:1;fill-rule:nonzero;stroke:none"
             id="path702"
             inkscape:connector-curvature="0" /></g><g
           id="g704"
           transform="translate(189.8932,145.3272)"><path
             d="m 0,0 3.464,-3.464 c 0.492,-0.491 1.29,-0.491 1.782,0 0.492,0.493 0.492,1.29 0,1.783 L 1.782,1.782 5.246,5.246 c 0.492,0.492 0.492,1.29 0,1.782 -0.492,0.492 -1.29,0.492 -1.782,0 L 0,3.564 -3.464,7.028 c -0.492,0.492 -1.29,0.492 -1.782,0 -0.246,-0.246 -0.369,-0.569 -0.369,-0.891 0,-0.322 0.123,-0.645 0.369,-0.891 l 3.464,-3.464 -3.464,-3.463 c -0.246,-0.246 -0.369,-0.569 -0.369,-0.892 0,-0.322 0.123,-0.645 0.369,-0.891 0.492,-0.491 1.29,-0.491 1.782,0 L 0,0 Z"
             style="fill:#ed1c24;fill-opacity:1;fill-rule:nonzero;stroke:none"
             id="path706"
             inkscape:connector-curvature="0" /></g><g
           id="g720"
           transform="translate(189.8932,103.0349)"><path
             d="m 0,0 3.464,-3.464 c 0.492,-0.491 1.29,-0.491 1.782,0 0.492,0.493 0.492,1.29 0,1.783 L 1.782,1.782 5.246,5.246 c 0.492,0.492 0.492,1.29 0,1.782 -0.492,0.492 -1.29,0.492 -1.782,0 L 0,3.564 -3.464,7.028 c -0.492,0.492 -1.29,0.492 -1.782,0 -0.246,-0.246 -0.369,-0.569 -0.369,-0.891 0,-0.322 0.123,-0.645 0.369,-0.891 l 3.464,-3.464 -3.464,-3.463 c -0.246,-0.246 -0.369,-0.569 -0.369,-0.892 0,-0.322 0.123,-0.645 0.369,-0.891 0.492,-0.491 1.29,-0.491 1.782,0 L 0,0 Z"
             style="fill:#ed1c24;fill-opacity:1;fill-rule:nonzero;stroke:none"
             id="path722"
             inkscape:connector-curvature="0" /></g><g
           id="g724"
           transform="translate(189.8932,88.8618)"><path
             d="m 0,0 3.464,-3.464 c 0.492,-0.491 1.29,-0.491 1.782,0 0.492,0.493 0.492,1.29 0,1.783 L 1.782,1.782 5.246,5.246 c 0.492,0.492 0.492,1.29 0,1.782 -0.492,0.492 -1.29,0.492 -1.782,0 L 0,3.564 -3.464,7.028 c -0.492,0.492 -1.29,0.492 -1.782,0 -0.246,-0.246 -0.369,-0.569 -0.369,-0.891 0,-0.322 0.123,-0.645 0.369,-0.891 l 3.464,-3.464 -3.464,-3.463 c -0.246,-0.246 -0.369,-0.569 -0.369,-0.892 0,-0.322 0.123,-0.645 0.369,-0.891 0.492,-0.491 1.29,-0.491 1.782,0 L 0,0 Z"
             style="fill:#ed1c24;fill-opacity:1;fill-rule:nonzero;stroke:none"
             id="path726"
             inkscape:connector-curvature="0" /></g><g
           id="g784"
           transform="translate(175.7204,215.9658)"><path
             d="m 0,0 3.464,-3.464 c 0.492,-0.491 1.29,-0.491 1.782,0 0.492,0.493 0.492,1.29 0,1.783 L 1.782,1.782 5.246,5.246 c 0.492,0.492 0.492,1.29 0,1.782 -0.492,0.492 -1.29,0.492 -1.782,0 L 0,3.564 -3.464,7.028 c -0.492,0.492 -1.29,0.492 -1.782,0 -0.246,-0.246 -0.369,-0.569 -0.369,-0.891 0,-0.322 0.123,-0.645 0.369,-0.891 l 3.464,-3.464 -3.464,-3.463 c -0.246,-0.246 -0.369,-0.569 -0.369,-0.892 0,-0.322 0.123,-0.645 0.369,-0.891 0.492,-0.491 1.29,-0.491 1.782,0 L 0,0 Z"
             style="fill:#ed1c24;fill-opacity:1;fill-rule:nonzero;stroke:none"
             id="path786"
             inkscape:connector-curvature="0" /></g><g
           id="g788"
           transform="translate(175.7204,201.7927)"><path
             d="m 0,0 3.464,-3.464 c 0.492,-0.491 1.29,-0.491 1.782,0 0.492,0.493 0.492,1.29 0,1.783 L 1.782,1.782 5.246,5.246 c 0.492,0.492 0.492,1.29 0,1.782 -0.492,0.492 -1.29,0.492 -1.782,0 L 0,3.564 -3.464,7.028 c -0.492,0.492 -1.29,0.492 -1.782,0 -0.246,-0.246 -0.369,-0.569 -0.369,-0.891 0,-0.322 0.123,-0.645 0.369,-0.891 l 3.464,-3.464 -3.464,-3.463 c -0.246,-0.246 -0.369,-0.569 -0.369,-0.892 0,-0.322 0.123,-0.645 0.369,-0.891 0.492,-0.491 1.29,-0.491 1.782,0 L 0,0 Z"
             style="fill:#ed1c24;fill-opacity:1;fill-rule:nonzero;stroke:none"
             id="path790"
             inkscape:connector-curvature="0" /></g><g
           id="g804"
           transform="translate(175.7204,159.5003)"><path
             d="m 0,0 3.464,-3.464 c 0.492,-0.491 1.29,-0.491 1.782,0 0.492,0.493 0.492,1.29 0,1.783 L 1.782,1.782 5.246,5.246 c 0.492,0.492 0.492,1.29 0,1.782 -0.492,0.492 -1.29,0.492 -1.782,0 L 0,3.564 -3.464,7.028 c -0.492,0.492 -1.29,0.492 -1.782,0 -0.246,-0.246 -0.369,-0.569 -0.369,-0.891 0,-0.322 0.123,-0.645 0.369,-0.891 l 3.464,-3.464 -3.464,-3.463 c -0.246,-0.246 -0.369,-0.569 -0.369,-0.892 0,-0.322 0.123,-0.645 0.369,-0.891 0.492,-0.491 1.29,-0.491 1.782,0 L 0,0 Z"
             style="fill:#ed1c24;fill-opacity:1;fill-rule:nonzero;stroke:none"
             id="path806"
             inkscape:connector-curvature="0" /></g><g
           id="g808"
           transform="translate(175.7204,145.3272)"><path
             d="m 0,0 3.464,-3.464 c 0.492,-0.491 1.29,-0.491 1.782,0 0.492,0.493 0.492,1.29 0,1.783 L 1.782,1.782 5.246,5.246 c 0.492,0.492 0.492,1.29 0,1.782 -0.492,0.492 -1.29,0.492 -1.782,0 L 0,3.564 -3.464,7.028 c -0.492,0.492 -1.29,0.492 -1.782,0 -0.246,-0.246 -0.369,-0.569 -0.369,-0.891 0,-0.322 0.123,-0.645 0.369,-0.891 l 3.464,-3.464 -3.464,-3.463 c -0.246,-0.246 -0.369,-0.569 -0.369,-0.892 0,-0.322 0.123,-0.645 0.369,-0.891 0.492,-0.491 1.29,-0.491 1.782,0 L 0,0 Z"
             style="fill:#ed1c24;fill-opacity:1;fill-rule:nonzero;stroke:none"
             id="path810"
             inkscape:connector-curvature="0" /></g><g
           id="g824"
           transform="translate(175.7204,103.0349)"><path
             d="m 0,0 3.464,-3.464 c 0.492,-0.491 1.29,-0.491 1.782,0 0.492,0.493 0.492,1.29 0,1.783 L 1.782,1.782 5.246,5.246 c 0.492,0.492 0.492,1.29 0,1.782 -0.492,0.492 -1.29,0.492 -1.782,0 L 0,3.564 -3.464,7.028 c -0.492,0.492 -1.29,0.492 -1.782,0 -0.246,-0.246 -0.369,-0.569 -0.369,-0.891 0,-0.322 0.123,-0.645 0.369,-0.891 l 3.464,-3.464 -3.464,-3.463 c -0.246,-0.246 -0.369,-0.569 -0.369,-0.892 0,-0.322 0.123,-0.645 0.369,-0.891 0.492,-0.491 1.29,-0.491 1.782,0 L 0,0 Z"
             style="fill:#ed1c24;fill-opacity:1;fill-rule:nonzero;stroke:none"
             id="path826"
             inkscape:connector-curvature="0" /></g><g
           id="g828"
           transform="translate(175.7204,88.8618)"><path
             d="m 0,0 3.464,-3.464 c 0.492,-0.491 1.29,-0.491 1.782,0 0.492,0.493 0.492,1.29 0,1.783 L 1.782,1.782 5.246,5.246 c 0.492,0.492 0.492,1.29 0,1.782 -0.492,0.492 -1.29,0.492 -1.782,0 L 0,3.564 -3.464,7.028 c -0.492,0.492 -1.29,0.492 -1.782,0 -0.246,-0.246 -0.369,-0.569 -0.369,-0.891 0,-0.322 0.123,-0.645 0.369,-0.891 l 3.464,-3.464 -3.464,-3.463 c -0.246,-0.246 -0.369,-0.569 -0.369,-0.892 0,-0.322 0.123,-0.645 0.369,-0.891 0.492,-0.491 1.29,-0.491 1.782,0 L 0,0 Z"
             style="fill:#ed1c24;fill-opacity:1;fill-rule:nonzero;stroke:none"
             id="path830"
             inkscape:connector-curvature="0" /></g><g
           id="g888"
           transform="translate(161.5475,215.9658)"><path
             d="m 0,0 3.464,-3.464 c 0.492,-0.491 1.29,-0.491 1.782,0 0.492,0.493 0.492,1.29 0,1.783 L 1.782,1.782 5.246,5.246 c 0.492,0.492 0.492,1.29 0,1.782 -0.492,0.492 -1.29,0.492 -1.782,0 L 0,3.564 -3.464,7.028 c -0.492,0.492 -1.29,0.492 -1.782,0 -0.246,-0.246 -0.369,-0.569 -0.369,-0.891 0,-0.322 0.123,-0.645 0.369,-0.891 l 3.464,-3.464 -3.464,-3.463 c -0.246,-0.246 -0.369,-0.569 -0.369,-0.892 0,-0.322 0.123,-0.645 0.369,-0.891 0.492,-0.491 1.29,-0.491 1.782,0 L 0,0 Z"
             style="fill:#ed1c24;fill-opacity:1;fill-rule:nonzero;stroke:none"
             id="path890"
             inkscape:connector-curvature="0" /></g><g
           id="g892"
           transform="translate(161.5475,201.7927)"><path
             d="m 0,0 3.464,-3.464 c 0.492,-0.491 1.29,-0.491 1.782,0 0.492,0.493 0.492,1.29 0,1.783 L 1.782,1.782 5.246,5.246 c 0.492,0.492 0.492,1.29 0,1.782 -0.492,0.492 -1.29,0.492 -1.782,0 L 0,3.564 -3.464,7.028 c -0.492,0.492 -1.29,0.492 -1.782,0 -0.246,-0.246 -0.369,-0.569 -0.369,-0.891 0,-0.322 0.123,-0.645 0.369,-0.891 l 3.464,-3.464 -3.464,-3.463 c -0.246,-0.246 -0.369,-0.569 -0.369,-0.892 0,-0.322 0.123,-0.645 0.369,-0.891 0.492,-0.491 1.29,-0.491 1.782,0 L 0,0 Z"
             style="fill:#ed1c24;fill-opacity:1;fill-rule:nonzero;stroke:none"
             id="path894"
             inkscape:connector-curvature="0" /></g><g
           id="g912"
           transform="translate(161.5475,145.3272)"><path
             d="m 0,0 3.464,-3.464 c 0.492,-0.491 1.29,-0.491 1.782,0 0.492,0.493 0.492,1.29 0,1.783 L 1.782,1.782 5.246,5.246 c 0.492,0.492 0.492,1.29 0,1.782 -0.492,0.492 -1.29,0.492 -1.782,0 L 0,3.564 -3.464,7.028 c -0.492,0.492 -1.29,0.492 -1.782,0 -0.246,-0.246 -0.369,-0.569 -0.369,-0.891 0,-0.322 0.123,-0.645 0.369,-0.891 l 3.464,-3.464 -3.464,-3.463 c -0.246,-0.246 -0.369,-0.569 -0.369,-0.892 0,-0.322 0.123,-0.645 0.369,-0.891 0.492,-0.491 1.29,-0.491 1.782,0 L 0,0 Z"
             style="fill:#ed1c24;fill-opacity:1;fill-rule:nonzero;stroke:none"
             id="path914"
             inkscape:connector-curvature="0" /></g><g
           id="g928"
           transform="translate(161.5475,103.0349)"><path
             d="m 0,0 3.464,-3.464 c 0.492,-0.491 1.29,-0.491 1.782,0 0.492,0.493 0.492,1.29 0,1.783 L 1.782,1.782 5.246,5.246 c 0.492,0.492 0.492,1.29 0,1.782 -0.492,0.492 -1.29,0.492 -1.782,0 L 0,3.564 -3.464,7.028 c -0.492,0.492 -1.29,0.492 -1.782,0 -0.246,-0.246 -0.369,-0.569 -0.369,-0.891 0,-0.322 0.123,-0.645 0.369,-0.891 l 3.464,-3.464 -3.464,-3.463 c -0.246,-0.246 -0.369,-0.569 -0.369,-0.892 0,-0.322 0.123,-0.645 0.369,-0.891 0.492,-0.491 1.29,-0.491 1.782,0 L 0,0 Z"
             style="fill:#ed1c24;fill-opacity:1;fill-rule:nonzero;stroke:none"
             id="path930"
             inkscape:connector-curvature="0" /></g><g
           id="g932"
           transform="translate(161.5475,88.8618)"><path
             d="m 0,0 3.464,-3.464 c 0.492,-0.491 1.29,-0.491 1.782,0 0.492,0.493 0.492,1.29 0,1.783 L 1.782,1.782 5.246,5.246 c 0.492,0.492 0.492,1.29 0,1.782 -0.492,0.492 -1.29,0.492 -1.782,0 L 0,3.564 -3.464,7.028 c -0.492,0.492 -1.29,0.492 -1.782,0 -0.246,-0.246 -0.369,-0.569 -0.369,-0.891 0,-0.322 0.123,-0.645 0.369,-0.891 l 3.464,-3.464 -3.464,-3.463 c -0.246,-0.246 -0.369,-0.569 -0.369,-0.892 0,-0.322 0.123,-0.645 0.369,-0.891 0.492,-0.491 1.29,-0.491 1.782,0 L 0,0 Z"
             style="fill:#ed1c24;fill-opacity:1;fill-rule:nonzero;stroke:none"
             id="path934"
             inkscape:connector-curvature="0" /></g><g
           id="g992"
           transform="translate(147.3747,215.9658)"><path
             d="m 0,0 3.464,-3.464 c 0.492,-0.491 1.29,-0.491 1.782,0 0.492,0.493 0.492,1.29 0,1.783 L 1.782,1.782 5.246,5.246 c 0.492,0.492 0.492,1.29 0,1.782 -0.492,0.492 -1.29,0.492 -1.782,0 L 0,3.564 -3.464,7.028 c -0.492,0.492 -1.29,0.492 -1.782,0 -0.246,-0.246 -0.369,-0.569 -0.369,-0.891 0,-0.322 0.123,-0.645 0.369,-0.891 l 3.464,-3.464 -3.464,-3.463 c -0.246,-0.246 -0.369,-0.569 -0.369,-0.892 0,-0.322 0.123,-0.645 0.369,-0.891 0.492,-0.491 1.29,-0.491 1.782,0 L 0,0 Z"
             style="fill:#ed1c24;fill-opacity:1;fill-rule:nonzero;stroke:none"
             id="path994"
             inkscape:connector-curvature="0" /></g><g
           id="g996"
           transform="translate(147.3747,201.7927)"><path
             d="m 0,0 3.464,-3.464 c 0.492,-0.491 1.29,-0.491 1.782,0 0.492,0.493 0.492,1.29 0,1.783 L 1.782,1.782 5.246,5.246 c 0.492,0.492 0.492,1.29 0,1.782 -0.492,0.492 -1.29,0.492 -1.782,0 L 0,3.564 -3.464,7.028 c -0.492,0.492 -1.29,0.492 -1.782,0 -0.246,-0.246 -0.369,-0.569 -0.369,-0.891 0,-0.322 0.123,-0.645 0.369,-0.891 l 3.464,-3.464 -3.464,-3.463 c -0.246,-0.246 -0.369,-0.569 -0.369,-0.892 0,-0.322 0.123,-0.645 0.369,-0.891 0.492,-0.491 1.29,-0.491 1.782,0 L 0,0 Z"
             style="fill:#ed1c24;fill-opacity:1;fill-rule:nonzero;stroke:none"
             id="path998"
             inkscape:connector-curvature="0" /></g><g
           id="g1016"
           transform="translate(147.3747,145.3272)"><path
             d="m 0,0 3.464,-3.464 c 0.492,-0.491 1.29,-0.491 1.782,0 0.492,0.493 0.492,1.29 0,1.783 L 1.782,1.782 5.246,5.246 c 0.492,0.492 0.492,1.29 0,1.782 -0.492,0.492 -1.29,0.492 -1.782,0 L 0,3.564 -3.464,7.028 c -0.492,0.492 -1.29,0.492 -1.782,0 -0.246,-0.246 -0.369,-0.569 -0.369,-0.891 0,-0.322 0.123,-0.645 0.369,-0.891 l 3.464,-3.464 -3.464,-3.463 c -0.246,-0.246 -0.369,-0.569 -0.369,-0.892 0,-0.322 0.123,-0.645 0.369,-0.891 0.492,-0.491 1.29,-0.491 1.782,0 L 0,0 Z"
             style="fill:#ed1c24;fill-opacity:1;fill-rule:nonzero;stroke:none"
             id="path1018"
             inkscape:connector-curvature="0" /></g><g
           id="g1032"
           transform="translate(147.3747,103.0349)"><path
             d="m 0,0 3.464,-3.464 c 0.492,-0.491 1.29,-0.491 1.782,0 0.492,0.493 0.492,1.29 0,1.783 L 1.782,1.782 5.246,5.246 c 0.492,0.492 0.492,1.29 0,1.782 -0.492,0.492 -1.29,0.492 -1.782,0 L 0,3.564 -3.464,7.028 c -0.492,0.492 -1.29,0.492 -1.782,0 -0.246,-0.246 -0.369,-0.569 -0.369,-0.891 0,-0.322 0.123,-0.645 0.369,-0.891 l 3.464,-3.464 -3.464,-3.463 c -0.246,-0.246 -0.369,-0.569 -0.369,-0.892 0,-0.322 0.123,-0.645 0.369,-0.891 0.492,-0.491 1.29,-0.491 1.782,0 L 0,0 Z"
             style="fill:#ed1c24;fill-opacity:1;fill-rule:nonzero;stroke:none"
             id="path1034"
             inkscape:connector-curvature="0" /></g><g
           id="g1036"
           transform="translate(147.3747,88.8618)"><path
             d="m 0,0 3.464,-3.464 c 0.492,-0.491 1.29,-0.491 1.782,0 0.492,0.493 0.492,1.29 0,1.783 L 1.782,1.782 5.246,5.246 c 0.492,0.492 0.492,1.29 0,1.782 -0.492,0.492 -1.29,0.492 -1.782,0 L 0,3.564 -3.464,7.028 c -0.492,0.492 -1.29,0.492 -1.782,0 -0.246,-0.246 -0.369,-0.569 -0.369,-0.891 0,-0.322 0.123,-0.645 0.369,-0.891 l 3.464,-3.464 -3.464,-3.463 c -0.246,-0.246 -0.369,-0.569 -0.369,-0.892 0,-0.322 0.123,-0.645 0.369,-0.891 0.492,-0.491 1.29,-0.491 1.782,0 L 0,0 Z"
             style="fill:#ed1c24;fill-opacity:1;fill-rule:nonzero;stroke:none"
             id="path1038"
             inkscape:connector-curvature="0" /></g><g
           id="g1096"
           transform="translate(133.2018,215.9658)"><path
             d="m 0,0 3.464,-3.464 c 0.492,-0.491 1.29,-0.491 1.782,0 0.492,0.493 0.492,1.29 0,1.783 L 1.782,1.782 5.246,5.246 c 0.492,0.492 0.492,1.29 0,1.782 -0.492,0.492 -1.29,0.492 -1.782,0 L 0,3.564 -3.464,7.028 c -0.492,0.492 -1.29,0.492 -1.782,0 -0.246,-0.246 -0.369,-0.569 -0.369,-0.891 0,-0.322 0.123,-0.645 0.369,-0.891 l 3.464,-3.464 -3.464,-3.463 c -0.246,-0.246 -0.369,-0.569 -0.369,-0.892 0,-0.322 0.123,-0.645 0.369,-0.891 0.492,-0.491 1.29,-0.491 1.782,0 L 0,0 Z"
             style="fill:#ed1c24;fill-opacity:1;fill-rule:nonzero;stroke:none"
             id="path1098"
             inkscape:connector-curvature="0" /></g><g
           id="g1100"
           transform="translate(133.2018,201.7927)"><path
             d="m 0,0 3.464,-3.464 c 0.492,-0.491 1.29,-0.491 1.782,0 0.492,0.493 0.492,1.29 0,1.783 L 1.782,1.782 5.246,5.246 c 0.492,0.492 0.492,1.29 0,1.782 -0.492,0.492 -1.29,0.492 -1.782,0 L 0,3.564 -3.464,7.028 c -0.492,0.492 -1.29,0.492 -1.782,0 -0.246,-0.246 -0.369,-0.569 -0.369,-0.891 0,-0.322 0.123,-0.645 0.369,-0.891 l 3.464,-3.464 -3.464,-3.463 c -0.246,-0.246 -0.369,-0.569 -0.369,-0.892 0,-0.322 0.123,-0.645 0.369,-0.891 0.492,-0.491 1.29,-0.491 1.782,0 L 0,0 Z"
             style="fill:#ed1c24;fill-opacity:1;fill-rule:nonzero;stroke:none"
             id="path1102"
             inkscape:connector-curvature="0" /></g><g
           id="g1120"
           transform="translate(133.2018,145.3272)"><path
             d="m 0,0 3.464,-3.464 c 0.492,-0.491 1.29,-0.491 1.782,0 0.492,0.493 0.492,1.29 0,1.783 L 1.782,1.782 5.246,5.246 c 0.492,0.492 0.492,1.29 0,1.782 -0.492,0.492 -1.29,0.492 -1.782,0 L 0,3.564 -3.464,7.028 c -0.492,0.492 -1.29,0.492 -1.782,0 -0.246,-0.246 -0.369,-0.569 -0.369,-0.891 0,-0.322 0.123,-0.645 0.369,-0.891 l 3.464,-3.464 -3.464,-3.463 c -0.246,-0.246 -0.369,-0.569 -0.369,-0.892 0,-0.322 0.123,-0.645 0.369,-0.891 0.492,-0.491 1.29,-0.491 1.782,0 L 0,0 Z"
             style="fill:#ed1c24;fill-opacity:1;fill-rule:nonzero;stroke:none"
             id="path1122"
             inkscape:connector-curvature="0" /></g><g
           id="g1136"
           transform="translate(133.2018,103.0349)"><path
             d="m 0,0 3.464,-3.464 c 0.492,-0.491 1.29,-0.491 1.782,0 0.492,0.493 0.492,1.29 0,1.783 L 1.782,1.782 5.246,5.246 c 0.492,0.492 0.492,1.29 0,1.782 -0.492,0.492 -1.29,0.492 -1.782,0 L 0,3.564 -3.464,7.028 c -0.492,0.492 -1.29,0.492 -1.782,0 -0.246,-0.246 -0.369,-0.569 -0.369,-0.891 0,-0.322 0.123,-0.645 0.369,-0.891 l 3.464,-3.464 -3.464,-3.463 c -0.246,-0.246 -0.369,-0.569 -0.369,-0.892 0,-0.322 0.123,-0.645 0.369,-0.891 0.492,-0.491 1.29,-0.491 1.782,0 L 0,0 Z"
             style="fill:#ed1c24;fill-opacity:1;fill-rule:nonzero;stroke:none"
             id="path1138"
             inkscape:connector-curvature="0" /></g><g
           id="g1140"
           transform="translate(133.2018,88.8618)"><path
             d="m 0,0 3.464,-3.464 c 0.492,-0.491 1.29,-0.491 1.782,0 0.492,0.493 0.492,1.29 0,1.783 L 1.782,1.782 5.246,5.246 c 0.492,0.492 0.492,1.29 0,1.782 -0.492,0.492 -1.29,0.492 -1.782,0 L 0,3.564 -3.464,7.028 c -0.492,0.492 -1.29,0.492 -1.782,0 -0.246,-0.246 -0.369,-0.569 -0.369,-0.891 0,-0.322 0.123,-0.645 0.369,-0.891 l 3.464,-3.464 -3.464,-3.463 c -0.246,-0.246 -0.369,-0.569 -0.369,-0.892 0,-0.322 0.123,-0.645 0.369,-0.891 0.492,-0.491 1.29,-0.491 1.782,0 L 0,0 Z"
             style="fill:#ed1c24;fill-opacity:1;fill-rule:nonzero;stroke:none"
             id="path1142"
             inkscape:connector-curvature="0" /></g><g
           id="g1200"
           transform="translate(119.029,215.9658)"><path
             d="m 0,0 3.464,-3.464 c 0.492,-0.491 1.29,-0.491 1.782,0 0.492,0.493 0.492,1.29 0,1.783 L 1.782,1.782 5.246,5.246 c 0.492,0.492 0.492,1.29 0,1.782 -0.492,0.492 -1.29,0.492 -1.782,0 L 0,3.564 -3.464,7.028 c -0.492,0.492 -1.29,0.492 -1.782,0 -0.246,-0.246 -0.369,-0.569 -0.369,-0.891 0,-0.322 0.123,-0.645 0.369,-0.891 l 3.464,-3.464 -3.464,-3.463 c -0.246,-0.246 -0.369,-0.569 -0.369,-0.892 0,-0.322 0.123,-0.645 0.369,-0.891 0.492,-0.491 1.29,-0.491 1.782,0 L 0,0 Z"
             style="fill:#ed1c24;fill-opacity:1;fill-rule:nonzero;stroke:none"
             id="path1202"
             inkscape:connector-curvature="0" /></g><g
           id="g1204"
           transform="translate(119.029,201.7927)"><path
             d="m 0,0 3.464,-3.464 c 0.492,-0.491 1.29,-0.491 1.782,0 0.492,0.493 0.492,1.29 0,1.783 L 1.782,1.782 5.246,5.246 c 0.492,0.492 0.492,1.29 0,1.782 -0.492,0.492 -1.29,0.492 -1.782,0 L 0,3.564 -3.464,7.028 c -0.492,0.492 -1.29,0.492 -1.782,0 -0.246,-0.246 -0.369,-0.569 -0.369,-0.891 0,-0.322 0.123,-0.645 0.369,-0.891 l 3.464,-3.464 -3.464,-3.463 c -0.246,-0.246 -0.369,-0.569 -0.369,-0.892 0,-0.322 0.123,-0.645 0.369,-0.891 0.492,-0.491 1.29,-0.491 1.782,0 L 0,0 Z"
             style="fill:#ed1c24;fill-opacity:1;fill-rule:nonzero;stroke:none"
             id="path1206"
             inkscape:connector-curvature="0" /></g><g
           id="g1224"
           transform="translate(119.029,145.3272)"><path
             d="m 0,0 3.464,-3.464 c 0.492,-0.491 1.29,-0.491 1.782,0 0.492,0.493 0.492,1.29 0,1.783 L 1.782,1.782 5.246,5.246 c 0.492,0.492 0.492,1.29 0,1.782 -0.492,0.492 -1.29,0.492 -1.782,0 L 0,3.564 -3.464,7.028 c -0.492,0.492 -1.29,0.492 -1.782,0 -0.246,-0.246 -0.369,-0.569 -0.369,-0.891 0,-0.322 0.123,-0.645 0.369,-0.891 l 3.464,-3.464 -3.464,-3.463 c -0.246,-0.246 -0.369,-0.569 -0.369,-0.892 0,-0.322 0.123,-0.645 0.369,-0.891 0.492,-0.491 1.29,-0.491 1.782,0 L 0,0 Z"
             style="fill:#ed1c24;fill-opacity:1;fill-rule:nonzero;stroke:none"
             id="path1226"
             inkscape:connector-curvature="0" /></g><g
           id="g1240"
           transform="translate(119.029,103.0349)"><path
             d="m 0,0 3.464,-3.464 c 0.492,-0.491 1.29,-0.491 1.782,0 0.492,0.493 0.492,1.29 0,1.783 L 1.782,1.782 5.246,5.246 c 0.492,0.492 0.492,1.29 0,1.782 -0.492,0.492 -1.29,0.492 -1.782,0 L 0,3.564 -3.464,7.028 c -0.492,0.492 -1.29,0.492 -1.782,0 -0.246,-0.246 -0.369,-0.569 -0.369,-0.891 0,-0.322 0.123,-0.645 0.369,-0.891 l 3.464,-3.464 -3.464,-3.463 c -0.246,-0.246 -0.369,-0.569 -0.369,-0.892 0,-0.322 0.123,-0.645 0.369,-0.891 0.492,-0.491 1.29,-0.491 1.782,0 L 0,0 Z"
             style="fill:#ed1c24;fill-opacity:1;fill-rule:nonzero;stroke:none"
             id="path1242"
             inkscape:connector-curvature="0" /></g><g
           id="g1244"
           transform="translate(119.029,88.8618)"><path
             d="m 0,0 3.464,-3.464 c 0.492,-0.491 1.29,-0.491 1.782,0 0.492,0.493 0.492,1.29 0,1.783 L 1.782,1.782 5.246,5.246 c 0.492,0.492 0.492,1.29 0,1.782 -0.492,0.492 -1.29,0.492 -1.782,0 L 0,3.564 -3.464,7.028 c -0.492,0.492 -1.29,0.492 -1.782,0 -0.246,-0.246 -0.369,-0.569 -0.369,-0.891 0,-0.322 0.123,-0.645 0.369,-0.891 l 3.464,-3.464 -3.464,-3.463 c -0.246,-0.246 -0.369,-0.569 -0.369,-0.892 0,-0.322 0.123,-0.645 0.369,-0.891 0.492,-0.491 1.29,-0.491 1.782,0 L 0,0 Z"
             style="fill:#ed1c24;fill-opacity:1;fill-rule:nonzero;stroke:none"
             id="path1246"
             inkscape:connector-curvature="0" /></g><g
           id="g1304"
           transform="translate(104.8561,215.9658)"><path
             d="m 0,0 3.464,-3.464 c 0.492,-0.491 1.29,-0.491 1.782,0 0.492,0.493 0.492,1.29 0,1.783 L 1.782,1.782 5.246,5.246 c 0.492,0.492 0.492,1.29 0,1.782 -0.492,0.492 -1.29,0.492 -1.782,0 L 0,3.564 -3.464,7.028 c -0.492,0.492 -1.29,0.492 -1.782,0 -0.246,-0.246 -0.369,-0.569 -0.369,-0.891 0,-0.322 0.123,-0.645 0.369,-0.891 l 3.464,-3.464 -3.464,-3.463 c -0.246,-0.246 -0.369,-0.569 -0.369,-0.892 0,-0.322 0.123,-0.645 0.369,-0.891 0.492,-0.491 1.29,-0.491 1.782,0 L 0,0 Z"
             style="fill:#ed1c24;fill-opacity:1;fill-rule:nonzero;stroke:none"
             id="path1306"
             inkscape:connector-curvature="0" /></g><g
           id="g1308"
           transform="translate(104.8561,201.7927)"><path
             d="m 0,0 3.464,-3.464 c 0.492,-0.491 1.29,-0.491 1.782,0 0.492,0.493 0.492,1.29 0,1.783 L 1.782,1.782 5.246,5.246 c 0.492,0.492 0.492,1.29 0,1.782 -0.492,0.492 -1.29,0.492 -1.782,0 L 0,3.564 -3.464,7.028 c -0.492,0.492 -1.29,0.492 -1.782,0 -0.246,-0.246 -0.369,-0.569 -0.369,-0.891 0,-0.322 0.123,-0.645 0.369,-0.891 l 3.464,-3.464 -3.464,-3.463 c -0.246,-0.246 -0.369,-0.569 -0.369,-0.892 0,-0.322 0.123,-0.645 0.369,-0.891 0.492,-0.491 1.29,-0.491 1.782,0 L 0,0 Z"
             style="fill:#ed1c24;fill-opacity:1;fill-rule:nonzero;stroke:none"
             id="path1310"
             inkscape:connector-curvature="0" /></g><g
           id="g1312"
           transform="translate(104.8561,187.6196)"><path
             d="m 0,0 3.464,-3.464 c 0.492,-0.491 1.29,-0.491 1.782,0 0.492,0.493 0.492,1.29 0,1.783 L 1.782,1.782 5.246,5.246 c 0.492,0.492 0.492,1.29 0,1.782 -0.492,0.492 -1.29,0.492 -1.782,0 L 0,3.564 -3.464,7.028 c -0.492,0.492 -1.29,0.492 -1.782,0 -0.246,-0.246 -0.369,-0.569 -0.369,-0.891 0,-0.322 0.123,-0.645 0.369,-0.891 l 3.464,-3.464 -3.464,-3.463 c -0.246,-0.246 -0.369,-0.569 -0.369,-0.892 0,-0.322 0.123,-0.645 0.369,-0.891 0.492,-0.491 1.29,-0.491 1.782,0 L 0,0 Z"
             style="fill:#ed1c24;fill-opacity:1;fill-rule:nonzero;stroke:none"
             id="path1314"
             inkscape:connector-curvature="0" /></g><g
           id="g1328"
           transform="translate(104.8561,145.3272)"><path
             d="m 0,0 3.464,-3.464 c 0.492,-0.491 1.29,-0.491 1.782,0 0.492,0.493 0.492,1.29 0,1.783 L 1.782,1.782 5.246,5.246 c 0.492,0.492 0.492,1.29 0,1.782 -0.492,0.492 -1.29,0.492 -1.782,0 L 0,3.564 -3.464,7.028 c -0.492,0.492 -1.29,0.492 -1.782,0 -0.246,-0.246 -0.369,-0.569 -0.369,-0.891 0,-0.322 0.123,-0.645 0.369,-0.891 l 3.464,-3.464 -3.464,-3.463 c -0.246,-0.246 -0.369,-0.569 -0.369,-0.892 0,-0.322 0.123,-0.645 0.369,-0.891 0.492,-0.491 1.29,-0.491 1.782,0 L 0,0 Z"
             style="fill:#ed1c24;fill-opacity:1;fill-rule:nonzero;stroke:none"
             id="path1330"
             inkscape:connector-curvature="0" /></g><g
           id="g1344"
           transform="translate(104.8561,103.0349)"><path
             d="m 0,0 3.464,-3.464 c 0.492,-0.491 1.29,-0.491 1.782,0 0.492,0.493 0.492,1.29 0,1.783 L 1.782,1.782 5.246,5.246 c 0.492,0.492 0.492,1.29 0,1.782 -0.492,0.492 -1.29,0.492 -1.782,0 L 0,3.564 -3.464,7.028 c -0.492,0.492 -1.29,0.492 -1.782,0 -0.246,-0.246 -0.369,-0.569 -0.369,-0.891 0,-0.322 0.123,-0.645 0.369,-0.891 l 3.464,-3.464 -3.464,-3.463 c -0.246,-0.246 -0.369,-0.569 -0.369,-0.892 0,-0.322 0.123,-0.645 0.369,-0.891 0.492,-0.491 1.29,-0.491 1.782,0 L 0,0 Z"
             style="fill:#ed1c24;fill-opacity:1;fill-rule:nonzero;stroke:none"
             id="path1346"
             inkscape:connector-curvature="0" /></g><g
           id="g1348"
           transform="translate(104.8561,88.8618)"><path
             d="m 0,0 3.464,-3.464 c 0.492,-0.491 1.29,-0.491 1.782,0 0.492,0.493 0.492,1.29 0,1.783 L 1.782,1.782 5.246,5.246 c 0.492,0.492 0.492,1.29 0,1.782 -0.492,0.492 -1.29,0.492 -1.782,0 L 0,3.564 -3.464,7.028 c -0.492,0.492 -1.29,0.492 -1.782,0 -0.246,-0.246 -0.369,-0.569 -0.369,-0.891 0,-0.322 0.123,-0.645 0.369,-0.891 l 3.464,-3.464 -3.464,-3.463 c -0.246,-0.246 -0.369,-0.569 -0.369,-0.892 0,-0.322 0.123,-0.645 0.369,-0.891 0.492,-0.491 1.29,-0.491 1.782,0 L 0,0 Z"
             style="fill:#ed1c24;fill-opacity:1;fill-rule:nonzero;stroke:none"
             id="path1350"
             inkscape:connector-curvature="0" /></g><g
           id="g1408"
           transform="translate(90.6833,215.9658)"><path
             d="m 0,0 3.464,-3.464 c 0.492,-0.491 1.29,-0.491 1.782,0 0.492,0.493 0.492,1.29 0,1.783 L 1.782,1.782 5.246,5.246 c 0.492,0.492 0.492,1.29 0,1.782 -0.492,0.492 -1.29,0.492 -1.782,0 L 0,3.564 -3.464,7.028 c -0.492,0.492 -1.29,0.492 -1.782,0 -0.246,-0.246 -0.369,-0.569 -0.369,-0.891 0,-0.322 0.123,-0.645 0.369,-0.891 l 3.464,-3.464 -3.464,-3.463 c -0.246,-0.246 -0.369,-0.569 -0.369,-0.892 0,-0.322 0.123,-0.645 0.369,-0.891 0.492,-0.491 1.29,-0.491 1.782,0 L 0,0 Z"
             style="fill:#ed1c24;fill-opacity:1;fill-rule:nonzero;stroke:none"
             id="path1410"
             inkscape:connector-curvature="0" /></g><g
           id="g1412"
           transform="translate(90.6833,201.7927)"><path
             d="m 0,0 3.464,-3.464 c 0.492,-0.491 1.29,-0.491 1.782,0 0.492,0.493 0.492,1.29 0,1.783 L 1.782,1.782 5.246,5.246 c 0.492,0.492 0.492,1.29 0,1.782 -0.492,0.492 -1.29,0.492 -1.782,0 L 0,3.564 -3.464,7.028 c -0.492,0.492 -1.29,0.492 -1.782,0 -0.246,-0.246 -0.369,-0.569 -0.369,-0.891 0,-0.322 0.123,-0.645 0.369,-0.891 l 3.464,-3.464 -3.464,-3.463 c -0.246,-0.246 -0.369,-0.569 -0.369,-0.892 0,-0.322 0.123,-0.645 0.369,-0.891 0.492,-0.491 1.29,-0.491 1.782,0 L 0,0 Z"
             style="fill:#ed1c24;fill-opacity:1;fill-rule:nonzero;stroke:none"
             id="path1414"
             inkscape:connector-curvature="0" /></g><g
           id="g1416"
           transform="translate(90.6833,187.6196)"><path
             d="m 0,0 3.464,-3.464 c 0.492,-0.491 1.29,-0.491 1.782,0 0.492,0.493 0.492,1.29 0,1.783 L 1.782,1.782 5.246,5.246 c 0.492,0.492 0.492,1.29 0,1.782 -0.492,0.492 -1.29,0.492 -1.782,0 L 0,3.564 -3.464,7.028 c -0.492,0.492 -1.29,0.492 -1.782,0 -0.246,-0.246 -0.369,-0.569 -0.369,-0.891 0,-0.322 0.123,-0.645 0.369,-0.891 l 3.464,-3.464 -3.464,-3.463 c -0.246,-0.246 -0.369,-0.569 -0.369,-0.892 0,-0.322 0.123,-0.645 0.369,-0.891 0.492,-0.491 1.29,-0.491 1.782,0 L 0,0 Z"
             style="fill:#ed1c24;fill-opacity:1;fill-rule:nonzero;stroke:none"
             id="path1418"
             inkscape:connector-curvature="0" /></g><g
           id="g1432"
           transform="translate(90.6833,145.3272)"><path
             d="m 0,0 3.464,-3.464 c 0.492,-0.491 1.29,-0.491 1.782,0 0.492,0.493 0.492,1.29 0,1.783 L 1.782,1.782 5.246,5.246 c 0.492,0.492 0.492,1.29 0,1.782 -0.492,0.492 -1.29,0.492 -1.782,0 L 0,3.564 -3.464,7.028 c -0.492,0.492 -1.29,0.492 -1.782,0 -0.246,-0.246 -0.369,-0.569 -0.369,-0.891 0,-0.322 0.123,-0.645 0.369,-0.891 l 3.464,-3.464 -3.464,-3.463 c -0.246,-0.246 -0.369,-0.569 -0.369,-0.892 0,-0.322 0.123,-0.645 0.369,-0.891 0.492,-0.491 1.29,-0.491 1.782,0 L 0,0 Z"
             style="fill:#ed1c24;fill-opacity:1;fill-rule:nonzero;stroke:none"
             id="path1434"
             inkscape:connector-curvature="0" /></g><g
           id="g1448"
           transform="translate(90.6833,103.0349)"><path
             d="m 0,0 3.464,-3.464 c 0.492,-0.491 1.29,-0.491 1.782,0 0.492,0.493 0.492,1.29 0,1.783 L 1.782,1.782 5.246,5.246 c 0.492,0.492 0.492,1.29 0,1.782 -0.492,0.492 -1.29,0.492 -1.782,0 L 0,3.564 -3.464,7.028 c -0.492,0.492 -1.29,0.492 -1.782,0 -0.246,-0.246 -0.369,-0.569 -0.369,-0.891 0,-0.322 0.123,-0.645 0.369,-0.891 l 3.464,-3.464 -3.464,-3.463 c -0.246,-0.246 -0.369,-0.569 -0.369,-0.892 0,-0.322 0.123,-0.645 0.369,-0.891 0.492,-0.491 1.29,-0.491 1.782,0 L 0,0 Z"
             style="fill:#ed1c24;fill-opacity:1;fill-rule:nonzero;stroke:none"
             id="path1450"
             inkscape:connector-curvature="0" /></g><g
           id="g1452"
           transform="translate(90.6833,88.8618)"><path
             d="m 0,0 3.464,-3.464 c 0.492,-0.491 1.29,-0.491 1.782,0 0.492,0.493 0.492,1.29 0,1.783 L 1.782,1.782 5.246,5.246 c 0.492,0.492 0.492,1.29 0,1.782 -0.492,0.492 -1.29,0.492 -1.782,0 L 0,3.564 -3.464,7.028 c -0.492,0.492 -1.29,0.492 -1.782,0 -0.246,-0.246 -0.369,-0.569 -0.369,-0.891 0,-0.322 0.123,-0.645 0.369,-0.891 l 3.464,-3.464 -3.464,-3.463 c -0.246,-0.246 -0.369,-0.569 -0.369,-0.892 0,-0.322 0.123,-0.645 0.369,-0.891 0.492,-0.491 1.29,-0.491 1.782,0 L 0,0 Z"
             style="fill:#ed1c24;fill-opacity:1;fill-rule:nonzero;stroke:none"
             id="path1454"
             inkscape:connector-curvature="0" /></g><g
           id="g1520"
           transform="translate(76.5104,187.6196)"><path
             d="m 0,0 3.464,-3.464 c 0.492,-0.491 1.29,-0.491 1.782,0 0.492,0.493 0.492,1.29 0,1.783 L 1.782,1.782 5.246,5.246 c 0.492,0.492 0.492,1.29 0,1.782 -0.492,0.492 -1.29,0.492 -1.782,0 L 0,3.564 -3.464,7.028 c -0.492,0.492 -1.29,0.492 -1.782,0 -0.246,-0.246 -0.369,-0.569 -0.369,-0.891 0,-0.322 0.123,-0.645 0.369,-0.891 l 3.464,-3.464 -3.464,-3.463 c -0.246,-0.246 -0.369,-0.569 -0.369,-0.892 0,-0.322 0.123,-0.645 0.369,-0.891 0.492,-0.491 1.29,-0.491 1.782,0 L 0,0 Z"
             style="fill:#ed1c24;fill-opacity:1;fill-rule:nonzero;stroke:none"
             id="path1522"
             inkscape:connector-curvature="0" /></g><g
           id="g1528"
           transform="translate(76.5104,173.6734)"><path
             d="m 0,0 3.464,-3.464 c 0.492,-0.491 1.29,-0.491 1.782,0 0.492,0.493 0.492,1.29 0,1.783 L 1.782,1.782 5.246,5.246 c 0.492,0.492 0.492,1.29 0,1.782 -0.492,0.492 -1.29,0.492 -1.782,0 L 0,3.564 -3.464,7.028 c -0.492,0.492 -1.29,0.492 -1.782,0 -0.246,-0.246 -0.369,-0.569 -0.369,-0.891 0,-0.322 0.123,-0.645 0.369,-0.891 l 3.464,-3.464 -3.464,-3.463 c -0.246,-0.246 -0.369,-0.569 -0.369,-0.892 0,-0.322 0.123,-0.645 0.369,-0.891 0.492,-0.491 1.29,-0.491 1.782,0 L 0,0 Z"
             style="fill:#ed1c24;fill-opacity:1;fill-rule:nonzero;stroke:none"
             id="path1530"
             inkscape:connector-curvature="0" /></g><g
           id="g1532"
           transform="translate(76.5104,159.5003)"><path
             d="m 0,0 3.464,-3.464 c 0.492,-0.491 1.29,-0.491 1.782,0 0.492,0.493 0.492,1.29 0,1.783 L 1.782,1.782 5.246,5.246 c 0.492,0.492 0.492,1.29 0,1.782 -0.492,0.492 -1.29,0.492 -1.782,0 L 0,3.564 -3.464,7.028 c -0.492,0.492 -1.29,0.492 -1.782,0 -0.246,-0.246 -0.369,-0.569 -0.369,-0.891 0,-0.322 0.123,-0.645 0.369,-0.891 l 3.464,-3.464 -3.464,-3.463 c -0.246,-0.246 -0.369,-0.569 -0.369,-0.892 0,-0.322 0.123,-0.645 0.369,-0.891 0.492,-0.491 1.29,-0.491 1.782,0 L 0,0 Z"
             style="fill:#ed1c24;fill-opacity:1;fill-rule:nonzero;stroke:none"
             id="path1534"
             inkscape:connector-curvature="0" /></g><g
           id="g1536"
           transform="translate(76.5104,145.3272)"><path
             d="m 0,0 3.464,-3.464 c 0.492,-0.491 1.29,-0.491 1.782,0 0.492,0.493 0.492,1.29 0,1.783 L 1.782,1.782 5.246,5.246 c 0.492,0.492 0.492,1.29 0,1.782 -0.492,0.492 -1.29,0.492 -1.782,0 L 0,3.564 -3.464,7.028 c -0.492,0.492 -1.29,0.492 -1.782,0 -0.246,-0.246 -0.369,-0.569 -0.369,-0.891 0,-0.322 0.123,-0.645 0.369,-0.891 l 3.464,-3.464 -3.464,-3.463 c -0.246,-0.246 -0.369,-0.569 -0.369,-0.892 0,-0.322 0.123,-0.645 0.369,-0.891 0.492,-0.491 1.29,-0.491 1.782,0 L 0,0 Z"
             style="fill:#ed1c24;fill-opacity:1;fill-rule:nonzero;stroke:none"
             id="path1538"
             inkscape:connector-curvature="0" /></g><g
           id="g1544"
           transform="translate(76.5104,131.3811)"><path
             d="m 0,0 3.464,-3.464 c 0.492,-0.491 1.29,-0.491 1.782,0 0.492,0.493 0.492,1.29 0,1.783 L 1.782,1.782 5.246,5.246 c 0.492,0.492 0.492,1.29 0,1.782 -0.492,0.492 -1.29,0.492 -1.782,0 L 0,3.564 -3.464,7.028 c -0.492,0.492 -1.29,0.492 -1.782,0 -0.246,-0.246 -0.369,-0.569 -0.369,-0.891 0,-0.322 0.123,-0.645 0.369,-0.891 l 3.464,-3.464 -3.464,-3.463 c -0.246,-0.246 -0.369,-0.569 -0.369,-0.892 0,-0.322 0.123,-0.645 0.369,-0.891 0.492,-0.491 1.29,-0.491 1.782,0 L 0,0 Z"
             style="fill:#ed1c24;fill-opacity:1;fill-rule:nonzero;stroke:none"
             id="path1546"
             inkscape:connector-curvature="0" /></g><g
           id="g1548"
           transform="translate(76.5104,117.208)"><path
             d="m 0,0 3.464,-3.464 c 0.492,-0.491 1.29,-0.491 1.782,0 0.492,0.493 0.492,1.29 0,1.783 L 1.782,1.782 5.246,5.246 c 0.492,0.492 0.492,1.29 0,1.782 -0.492,0.492 -1.29,0.492 -1.782,0 L 0,3.564 -3.464,7.028 c -0.492,0.492 -1.29,0.492 -1.782,0 -0.246,-0.246 -0.369,-0.569 -0.369,-0.891 0,-0.322 0.123,-0.645 0.369,-0.891 l 3.464,-3.464 -3.464,-3.463 c -0.246,-0.246 -0.369,-0.569 -0.369,-0.892 0,-0.322 0.123,-0.645 0.369,-0.891 0.492,-0.491 1.29,-0.491 1.782,0 L 0,0 Z"
             style="fill:#ed1c24;fill-opacity:1;fill-rule:nonzero;stroke:none"
             id="path1550"
             inkscape:connector-curvature="0" /></g><g
           id="g1632"
           transform="translate(62.3376,173.6734)"><path
             d="m 0,0 3.464,-3.464 c 0.492,-0.491 1.29,-0.491 1.782,0 0.492,0.493 0.492,1.29 0,1.783 L 1.782,1.782 5.246,5.246 c 0.492,0.492 0.492,1.29 0,1.782 -0.492,0.492 -1.29,0.492 -1.782,0 L 0,3.564 -3.464,7.028 c -0.492,0.492 -1.29,0.492 -1.782,0 -0.246,-0.246 -0.369,-0.569 -0.369,-0.891 0,-0.322 0.123,-0.645 0.369,-0.891 l 3.464,-3.464 -3.464,-3.463 c -0.246,-0.246 -0.369,-0.569 -0.369,-0.892 0,-0.322 0.123,-0.645 0.369,-0.891 0.492,-0.491 1.29,-0.491 1.782,0 L 0,0 Z"
             style="fill:#ed1c24;fill-opacity:1;fill-rule:nonzero;stroke:none"
             id="path1634"
             inkscape:connector-curvature="0" /></g><g
           id="g1636"
           transform="translate(62.3376,159.5003)"><path
             d="m 0,0 3.464,-3.464 c 0.492,-0.491 1.29,-0.491 1.782,0 0.492,0.493 0.492,1.29 0,1.783 L 1.782,1.782 5.246,5.246 c 0.492,0.492 0.492,1.29 0,1.782 -0.492,0.492 -1.29,0.492 -1.782,0 L 0,3.564 -3.464,7.028 c -0.492,0.492 -1.29,0.492 -1.782,0 -0.246,-0.246 -0.369,-0.569 -0.369,-0.891 0,-0.322 0.123,-0.645 0.369,-0.891 l 3.464,-3.464 -3.464,-3.463 c -0.246,-0.246 -0.369,-0.569 -0.369,-0.892 0,-0.322 0.123,-0.645 0.369,-0.891 0.492,-0.491 1.29,-0.491 1.782,0 L 0,0 Z"
             style="fill:#ed1c24;fill-opacity:1;fill-rule:nonzero;stroke:none"
             id="path1638"
             inkscape:connector-curvature="0" /></g><g
           id="g1640"
           transform="translate(62.3376,145.3272)"><path
             d="m 0,0 3.464,-3.464 c 0.492,-0.491 1.29,-0.491 1.782,0 0.492,0.493 0.492,1.29 0,1.783 L 1.782,1.782 5.246,5.246 c 0.492,0.492 0.492,1.29 0,1.782 -0.492,0.492 -1.29,0.492 -1.782,0 L 0,3.564 -3.464,7.028 c -0.492,0.492 -1.29,0.492 -1.782,0 -0.246,-0.246 -0.369,-0.569 -0.369,-0.891 0,-0.322 0.123,-0.645 0.369,-0.891 l 3.464,-3.464 -3.464,-3.463 c -0.246,-0.246 -0.369,-0.569 -0.369,-0.892 0,-0.322 0.123,-0.645 0.369,-0.891 0.492,-0.491 1.29,-0.491 1.782,0 L 0,0 Z"
             style="fill:#ed1c24;fill-opacity:1;fill-rule:nonzero;stroke:none"
             id="path1642"
             inkscape:connector-curvature="0" /></g><g
           id="g1648"
           transform="translate(62.3376,131.3811)"><path
             d="m 0,0 3.464,-3.464 c 0.492,-0.491 1.29,-0.491 1.782,0 0.492,0.493 0.492,1.29 0,1.783 L 1.782,1.782 5.246,5.246 c 0.492,0.492 0.492,1.29 0,1.782 -0.492,0.492 -1.29,0.492 -1.782,0 L 0,3.564 -3.464,7.028 c -0.492,0.492 -1.29,0.492 -1.782,0 -0.246,-0.246 -0.369,-0.569 -0.369,-0.891 0,-0.322 0.123,-0.645 0.369,-0.891 l 3.464,-3.464 -3.464,-3.463 c -0.246,-0.246 -0.369,-0.569 -0.369,-0.892 0,-0.322 0.123,-0.645 0.369,-0.891 0.492,-0.491 1.29,-0.491 1.782,0 L 0,0 Z"
             style="fill:#ed1c24;fill-opacity:1;fill-rule:nonzero;stroke:none"
             id="path1650"
             inkscape:connector-curvature="0" /></g></g></g></g></svg>