<?xml version="1.0" encoding="UTF-8" standalone="no"?>
<!-- Created with Inkscape (http://www.inkscape.org/) -->

<svg
   xmlns:dc="http://purl.org/dc/elements/1.1/"
   xmlns:cc="http://creativecommons.org/ns#"
   xmlns:rdf="http://www.w3.org/1999/02/22-rdf-syntax-ns#"
   xmlns:svg="http://www.w3.org/2000/svg"
   xmlns="http://www.w3.org/2000/svg"
   xmlns:sodipodi="http://sodipodi.sourceforge.net/DTD/sodipodi-0.dtd"
   xmlns:inkscape="http://www.inkscape.org/namespaces/inkscape"
   id="svg2"
   version="1.1"
   inkscape:version="0.91 r13725"
   xml:space="preserve"
   width="350.69376"
   height="456.97375"
   viewBox="0 0 350.69376 456.97375"
   sodipodi:docname="x.svg"><metadata
     id="metadata8"><rdf:RDF><cc:Work
         rdf:about=""><dc:format>image/svg+xml</dc:format><dc:type
           rdf:resource="http://purl.org/dc/dcmitype/StillImage" /><dc:title></dc:title></cc:Work></rdf:RDF></metadata><defs
     id="defs6"><clipPath
       clipPathUnits="userSpaceOnUse"
       id="clipPath12"><path
         d="M 0.0316467,0 280.545,0 l 0,365.547 -280.5133533,0 0,-365.547 z"
         id="path14"
         inkscape:connector-curvature="0" /></clipPath><clipPath
       clipPathUnits="userSpaceOnUse"
       id="clipPath20"><path
         d="m 0,365.579 280.555,0 L 280.555,0 0,0 0,365.579 Z"
         id="path22"
         inkscape:connector-curvature="0" /></clipPath></defs><sodipodi:namedview
     pagecolor="#ffffff"
     bordercolor="#666666"
     borderopacity="1"
     objecttolerance="10"
     gridtolerance="10"
     guidetolerance="10"
     inkscape:pageopacity="0"
     inkscape:pageshadow="2"
     inkscape:window-width="1600"
     inkscape:window-height="837"
     id="namedview4"
     showgrid="false"
     inkscape:zoom="1.0328821"
     inkscape:cx="189.03351"
     inkscape:cy="220.91661"
     inkscape:window-x="-8"
     inkscape:window-y="-8"
     inkscape:window-maximized="1"
     inkscape:current-layer="g18" /><g
     id="g10"
     inkscape:groupmode="layer"
     inkscape:label="vania-hiksove"
     transform="matrix(1.25,0,0,-1.25,0,456.97375)"
     clip-path="url(#clipPath12)"><g
       id="g16"><g
         id="g18"
         clip-path="url(#clipPath20)"><g
           id="g584"
           transform="translate(204.0661,216.4196)"><path
             d="m 0,0 3.464,-3.464 c 0.492,-0.491 1.29,-0.491 1.782,0 0.492,0.493 0.492,1.29 0,1.783 L 1.782,1.782 5.246,5.246 c 0.492,0.492 0.492,1.29 0,1.782 -0.492,0.492 -1.29,0.492 -1.782,0 L 0,3.564 -3.464,7.028 c -0.492,0.492 -1.29,0.492 -1.782,0 -0.246,-0.246 -0.369,-0.569 -0.369,-0.891 0,-0.322 0.123,-0.645 0.369,-0.891 l 3.464,-3.464 -3.464,-3.463 c -0.246,-0.246 -0.369,-0.569 -0.369,-0.892 0,-0.322 0.123,-0.645 0.369,-0.891 0.492,-0.491 1.29,-0.491 1.782,0 L 0,0 Z"
             style="fill:#ed1c24;fill-opacity:1;fill-rule:nonzero;stroke:none"
             id="path586"
             inkscape:connector-curvature="0" /></g><g
           id="g620"
           transform="translate(204.0661,88.8618)"><path
             d="m 0,0 3.464,-3.464 c 0.492,-0.491 1.29,-0.491 1.782,0 0.492,0.493 0.492,1.29 0,1.783 L 1.782,1.782 5.246,5.246 c 0.492,0.492 0.492,1.29 0,1.782 -0.492,0.492 -1.29,0.492 -1.782,0 L 0,3.564 -3.464,7.028 c -0.492,0.492 -1.29,0.492 -1.782,0 -0.246,-0.246 -0.369,-0.569 -0.369,-0.891 0,-0.322 0.123,-0.645 0.369,-0.891 l 3.464,-3.464 -3.464,-3.463 c -0.246,-0.246 -0.369,-0.569 -0.369,-0.892 0,-0.322 0.123,-0.645 0.369,-0.891 0.492,-0.491 1.29,-0.491 1.782,0 L 0,0 Z"
             style="fill:#ed1c24;fill-opacity:1;fill-rule:nonzero;stroke:none"
             id="path622"
             inkscape:connector-curvature="0" /></g><g
           id="g688"
           transform="translate(189.8932,216.4196)"><path
             d="m 0,0 3.464,-3.464 c 0.492,-0.491 1.29,-0.491 1.782,0 0.492,0.493 0.492,1.29 0,1.783 L 1.782,1.782 5.246,5.246 c 0.492,0.492 0.492,1.29 0,1.782 -0.492,0.492 -1.29,0.492 -1.782,0 L 0,3.564 -3.464,7.028 c -0.492,0.492 -1.29,0.492 -1.782,0 -0.246,-0.246 -0.369,-0.569 -0.369,-0.891 0,-0.322 0.123,-0.645 0.369,-0.891 l 3.464,-3.464 -3.464,-3.463 c -0.246,-0.246 -0.369,-0.569 -0.369,-0.892 0,-0.322 0.123,-0.645 0.369,-0.891 0.492,-0.491 1.29,-0.491 1.782,0 L 0,0 Z"
             style="fill:#ed1c24;fill-opacity:1;fill-rule:nonzero;stroke:none"
             id="path690"
             inkscape:connector-curvature="0" /></g><g
           id="g692"
           transform="translate(189.8932,202.2465)"><path
             d="m 0,0 3.464,-3.464 c 0.492,-0.491 1.29,-0.491 1.782,0 0.492,0.493 0.492,1.29 0,1.783 L 1.782,1.782 5.246,5.246 c 0.492,0.492 0.492,1.29 0,1.782 -0.492,0.492 -1.29,0.492 -1.782,0 L 0,3.564 -3.464,7.028 c -0.492,0.492 -1.29,0.492 -1.782,0 -0.246,-0.246 -0.369,-0.569 -0.369,-0.891 0,-0.322 0.123,-0.645 0.369,-0.891 l 3.464,-3.464 -3.464,-3.463 c -0.246,-0.246 -0.369,-0.569 -0.369,-0.892 0,-0.322 0.123,-0.645 0.369,-0.891 0.492,-0.491 1.29,-0.491 1.782,0 L 0,0 Z"
             style="fill:#ed1c24;fill-opacity:1;fill-rule:nonzero;stroke:none"
             id="path694"
             inkscape:connector-curvature="0" /></g><g
           id="g720"
           transform="translate(189.8932,103.0349)"><path
             d="m 0,0 3.464,-3.464 c 0.492,-0.491 1.29,-0.491 1.782,0 0.492,0.493 0.492,1.29 0,1.783 L 1.782,1.782 5.246,5.246 c 0.492,0.492 0.492,1.29 0,1.782 -0.492,0.492 -1.29,0.492 -1.782,0 L 0,3.564 -3.464,7.028 c -0.492,0.492 -1.29,0.492 -1.782,0 -0.246,-0.246 -0.369,-0.569 -0.369,-0.891 0,-0.322 0.123,-0.645 0.369,-0.891 l 3.464,-3.464 -3.464,-3.463 c -0.246,-0.246 -0.369,-0.569 -0.369,-0.892 0,-0.322 0.123,-0.645 0.369,-0.891 0.492,-0.491 1.29,-0.491 1.782,0 L 0,0 Z"
             style="fill:#ed1c24;fill-opacity:1;fill-rule:nonzero;stroke:none"
             id="path722"
             inkscape:connector-curvature="0" /></g><g
           id="g724"
           transform="translate(189.8932,88.8618)"><path
             d="m 0,0 3.464,-3.464 c 0.492,-0.491 1.29,-0.491 1.782,0 0.492,0.493 0.492,1.29 0,1.783 L 1.782,1.782 5.246,5.246 c 0.492,0.492 0.492,1.29 0,1.782 -0.492,0.492 -1.29,0.492 -1.782,0 L 0,3.564 -3.464,7.028 c -0.492,0.492 -1.29,0.492 -1.782,0 -0.246,-0.246 -0.369,-0.569 -0.369,-0.891 0,-0.322 0.123,-0.645 0.369,-0.891 l 3.464,-3.464 -3.464,-3.463 c -0.246,-0.246 -0.369,-0.569 -0.369,-0.892 0,-0.322 0.123,-0.645 0.369,-0.891 0.492,-0.491 1.29,-0.491 1.782,0 L 0,0 Z"
             style="fill:#ed1c24;fill-opacity:1;fill-rule:nonzero;stroke:none"
             id="path726"
             inkscape:connector-curvature="0" /></g><g
           id="g792"
           transform="translate(175.7204,216.4196)"><path
             d="m 0,0 3.464,-3.464 c 0.492,-0.491 1.29,-0.491 1.782,0 0.492,0.493 0.492,1.29 0,1.783 L 1.782,1.782 5.246,5.246 c 0.492,0.492 0.492,1.29 0,1.782 -0.492,0.492 -1.29,0.492 -1.782,0 L 0,3.564 -3.464,7.028 c -0.492,0.492 -1.29,0.492 -1.782,0 -0.246,-0.246 -0.369,-0.569 -0.369,-0.891 0,-0.322 0.123,-0.645 0.369,-0.891 l 3.464,-3.464 -3.464,-3.463 c -0.246,-0.246 -0.369,-0.569 -0.369,-0.892 0,-0.322 0.123,-0.645 0.369,-0.891 0.492,-0.491 1.29,-0.491 1.782,0 L 0,0 Z"
             style="fill:#ed1c24;fill-opacity:1;fill-rule:nonzero;stroke:none"
             id="path794"
             inkscape:connector-curvature="0" /></g><g
           id="g796"
           transform="translate(175.7204,202.2465)"><path
             d="m 0,0 3.464,-3.464 c 0.492,-0.491 1.29,-0.491 1.782,0 0.492,0.493 0.492,1.29 0,1.783 L 1.782,1.782 5.246,5.246 c 0.492,0.492 0.492,1.29 0,1.782 -0.492,0.492 -1.29,0.492 -1.782,0 L 0,3.564 -3.464,7.028 c -0.492,0.492 -1.29,0.492 -1.782,0 -0.246,-0.246 -0.369,-0.569 -0.369,-0.891 0,-0.322 0.123,-0.645 0.369,-0.891 l 3.464,-3.464 -3.464,-3.463 c -0.246,-0.246 -0.369,-0.569 -0.369,-0.892 0,-0.322 0.123,-0.645 0.369,-0.891 0.492,-0.491 1.29,-0.491 1.782,0 L 0,0 Z"
             style="fill:#ed1c24;fill-opacity:1;fill-rule:nonzero;stroke:none"
             id="path798"
             inkscape:connector-curvature="0" /></g><g
           id="g800"
           transform="translate(175.7204,188.0734)"><path
             d="m 0,0 3.464,-3.464 c 0.492,-0.491 1.29,-0.491 1.782,0 0.492,0.493 0.492,1.29 0,1.783 L 1.782,1.782 5.246,5.246 c 0.492,0.492 0.492,1.29 0,1.782 -0.492,0.492 -1.29,0.492 -1.782,0 L 0,3.564 -3.464,7.028 c -0.492,0.492 -1.29,0.492 -1.782,0 -0.246,-0.246 -0.369,-0.569 -0.369,-0.891 0,-0.322 0.123,-0.645 0.369,-0.891 l 3.464,-3.464 -3.464,-3.463 c -0.246,-0.246 -0.369,-0.569 -0.369,-0.892 0,-0.322 0.123,-0.645 0.369,-0.891 0.492,-0.491 1.29,-0.491 1.782,0 L 0,0 Z"
             style="fill:#ed1c24;fill-opacity:1;fill-rule:nonzero;stroke:none"
             id="path802"
             inkscape:connector-curvature="0" /></g><g
           id="g816"
           transform="translate(175.7204,131.3811)"><path
             d="m 0,0 3.464,-3.464 c 0.492,-0.491 1.29,-0.491 1.782,0 0.492,0.493 0.492,1.29 0,1.783 L 1.782,1.782 5.246,5.246 c 0.492,0.492 0.492,1.29 0,1.782 -0.492,0.492 -1.29,0.492 -1.782,0 L 0,3.564 -3.464,7.028 c -0.492,0.492 -1.29,0.492 -1.782,0 -0.246,-0.246 -0.369,-0.569 -0.369,-0.891 0,-0.322 0.123,-0.645 0.369,-0.891 l 3.464,-3.464 -3.464,-3.463 c -0.246,-0.246 -0.369,-0.569 -0.369,-0.892 0,-0.322 0.123,-0.645 0.369,-0.891 0.492,-0.491 1.29,-0.491 1.782,0 L 0,0 Z"
             style="fill:#ed1c24;fill-opacity:1;fill-rule:nonzero;stroke:none"
             id="path818"
             inkscape:connector-curvature="0" /></g><g
           id="g820"
           transform="translate(175.7204,117.208)"><path
             d="m 0,0 3.464,-3.464 c 0.492,-0.491 1.29,-0.491 1.782,0 0.492,0.493 0.492,1.29 0,1.783 L 1.782,1.782 5.246,5.246 c 0.492,0.492 0.492,1.29 0,1.782 -0.492,0.492 -1.29,0.492 -1.782,0 L 0,3.564 -3.464,7.028 c -0.492,0.492 -1.29,0.492 -1.782,0 -0.246,-0.246 -0.369,-0.569 -0.369,-0.891 0,-0.322 0.123,-0.645 0.369,-0.891 l 3.464,-3.464 -3.464,-3.463 c -0.246,-0.246 -0.369,-0.569 -0.369,-0.892 0,-0.322 0.123,-0.645 0.369,-0.891 0.492,-0.491 1.29,-0.491 1.782,0 L 0,0 Z"
             style="fill:#ed1c24;fill-opacity:1;fill-rule:nonzero;stroke:none"
             id="path822"
             inkscape:connector-curvature="0" /></g><g
           id="g824"
           transform="translate(175.7204,103.0349)"><path
             d="m 0,0 3.464,-3.464 c 0.492,-0.491 1.29,-0.491 1.782,0 0.492,0.493 0.492,1.29 0,1.783 L 1.782,1.782 5.246,5.246 c 0.492,0.492 0.492,1.29 0,1.782 -0.492,0.492 -1.29,0.492 -1.782,0 L 0,3.564 -3.464,7.028 c -0.492,0.492 -1.29,0.492 -1.782,0 -0.246,-0.246 -0.369,-0.569 -0.369,-0.891 0,-0.322 0.123,-0.645 0.369,-0.891 l 3.464,-3.464 -3.464,-3.463 c -0.246,-0.246 -0.369,-0.569 -0.369,-0.892 0,-0.322 0.123,-0.645 0.369,-0.891 0.492,-0.491 1.29,-0.491 1.782,0 L 0,0 Z"
             style="fill:#ed1c24;fill-opacity:1;fill-rule:nonzero;stroke:none"
             id="path826"
             inkscape:connector-curvature="0" /></g><g
           id="g828"
           transform="translate(175.7204,88.8618)"><path
             d="m 0,0 3.464,-3.464 c 0.492,-0.491 1.29,-0.491 1.782,0 0.492,0.493 0.492,1.29 0,1.783 L 1.782,1.782 5.246,5.246 c 0.492,0.492 0.492,1.29 0,1.782 -0.492,0.492 -1.29,0.492 -1.782,0 L 0,3.564 -3.464,7.028 c -0.492,0.492 -1.29,0.492 -1.782,0 -0.246,-0.246 -0.369,-0.569 -0.369,-0.891 0,-0.322 0.123,-0.645 0.369,-0.891 l 3.464,-3.464 -3.464,-3.463 c -0.246,-0.246 -0.369,-0.569 -0.369,-0.892 0,-0.322 0.123,-0.645 0.369,-0.891 0.492,-0.491 1.29,-0.491 1.782,0 L 0,0 Z"
             style="fill:#ed1c24;fill-opacity:1;fill-rule:nonzero;stroke:none"
             id="path830"
             inkscape:connector-curvature="0" /></g><g
           id="g904"
           transform="translate(161.5475,188.0734)"><path
             d="m 0,0 3.464,-3.464 c 0.492,-0.491 1.29,-0.491 1.782,0 0.492,0.493 0.492,1.29 0,1.783 L 1.782,1.782 5.246,5.246 c 0.492,0.492 0.492,1.29 0,1.782 -0.492,0.492 -1.29,0.492 -1.782,0 L 0,3.564 -3.464,7.028 c -0.492,0.492 -1.29,0.492 -1.782,0 -0.246,-0.246 -0.369,-0.569 -0.369,-0.891 0,-0.322 0.123,-0.645 0.369,-0.891 l 3.464,-3.464 -3.464,-3.463 c -0.246,-0.246 -0.369,-0.569 -0.369,-0.892 0,-0.322 0.123,-0.645 0.369,-0.891 0.492,-0.491 1.29,-0.491 1.782,0 L 0,0 Z"
             style="fill:#ed1c24;fill-opacity:1;fill-rule:nonzero;stroke:none"
             id="path906"
             inkscape:connector-curvature="0" /></g><g
           id="g908"
           transform="translate(161.5475,173.9003)"><path
             d="m 0,0 3.464,-3.464 c 0.492,-0.491 1.29,-0.491 1.782,0 0.492,0.493 0.492,1.29 0,1.783 L 1.782,1.782 5.246,5.246 c 0.492,0.492 0.492,1.29 0,1.782 -0.492,0.492 -1.29,0.492 -1.782,0 L 0,3.564 -3.464,7.028 c -0.492,0.492 -1.29,0.492 -1.782,0 -0.246,-0.246 -0.369,-0.569 -0.369,-0.891 0,-0.322 0.123,-0.645 0.369,-0.891 l 3.464,-3.464 -3.464,-3.463 c -0.246,-0.246 -0.369,-0.569 -0.369,-0.892 0,-0.322 0.123,-0.645 0.369,-0.891 0.492,-0.491 1.29,-0.491 1.782,0 L 0,0 Z"
             style="fill:#ed1c24;fill-opacity:1;fill-rule:nonzero;stroke:none"
             id="path910"
             inkscape:connector-curvature="0" /></g><g
           id="g912"
           transform="translate(161.5475,159.7272)"><path
             d="m 0,0 3.464,-3.464 c 0.492,-0.491 1.29,-0.491 1.782,0 0.492,0.493 0.492,1.29 0,1.783 L 1.782,1.782 5.246,5.246 c 0.492,0.492 0.492,1.29 0,1.782 -0.492,0.492 -1.29,0.492 -1.782,0 L 0,3.564 -3.464,7.028 c -0.492,0.492 -1.29,0.492 -1.782,0 -0.246,-0.246 -0.369,-0.569 -0.369,-0.891 0,-0.322 0.123,-0.645 0.369,-0.891 l 3.464,-3.464 -3.464,-3.463 c -0.246,-0.246 -0.369,-0.569 -0.369,-0.892 0,-0.322 0.123,-0.645 0.369,-0.891 0.492,-0.491 1.29,-0.491 1.782,0 L 0,0 Z"
             style="fill:#ed1c24;fill-opacity:1;fill-rule:nonzero;stroke:none"
             id="path914"
             inkscape:connector-curvature="0" /></g><g
           id="g916"
           transform="translate(161.5475,145.5542)"><path
             d="m 0,0 3.464,-3.464 c 0.492,-0.491 1.29,-0.491 1.782,0 0.492,0.493 0.492,1.29 0,1.783 L 1.782,1.782 5.246,5.246 c 0.492,0.492 0.492,1.29 0,1.782 -0.492,0.492 -1.29,0.492 -1.782,0 L 0,3.564 -3.464,7.028 c -0.492,0.492 -1.29,0.492 -1.782,0 -0.246,-0.246 -0.369,-0.569 -0.369,-0.891 0,-0.322 0.123,-0.645 0.369,-0.891 l 3.464,-3.464 -3.464,-3.463 c -0.246,-0.246 -0.369,-0.569 -0.369,-0.892 0,-0.322 0.123,-0.645 0.369,-0.891 0.492,-0.491 1.29,-0.491 1.782,0 L 0,0 Z"
             style="fill:#ed1c24;fill-opacity:1;fill-rule:nonzero;stroke:none"
             id="path918"
             inkscape:connector-curvature="0" /></g><g
           id="g920"
           transform="translate(161.5475,131.3811)"><path
             d="m 0,0 3.464,-3.464 c 0.492,-0.491 1.29,-0.491 1.782,0 0.492,0.493 0.492,1.29 0,1.783 L 1.782,1.782 5.246,5.246 c 0.492,0.492 0.492,1.29 0,1.782 -0.492,0.492 -1.29,0.492 -1.782,0 L 0,3.564 -3.464,7.028 c -0.492,0.492 -1.29,0.492 -1.782,0 -0.246,-0.246 -0.369,-0.569 -0.369,-0.891 0,-0.322 0.123,-0.645 0.369,-0.891 l 3.464,-3.464 -3.464,-3.463 c -0.246,-0.246 -0.369,-0.569 -0.369,-0.892 0,-0.322 0.123,-0.645 0.369,-0.891 0.492,-0.491 1.29,-0.491 1.782,0 L 0,0 Z"
             style="fill:#ed1c24;fill-opacity:1;fill-rule:nonzero;stroke:none"
             id="path922"
             inkscape:connector-curvature="0" /></g><g
           id="g924"
           transform="translate(161.5475,117.208)"><path
             d="m 0,0 3.464,-3.464 c 0.492,-0.491 1.29,-0.491 1.782,0 0.492,0.493 0.492,1.29 0,1.783 L 1.782,1.782 5.246,5.246 c 0.492,0.492 0.492,1.29 0,1.782 -0.492,0.492 -1.29,0.492 -1.782,0 L 0,3.564 -3.464,7.028 c -0.492,0.492 -1.29,0.492 -1.782,0 -0.246,-0.246 -0.369,-0.569 -0.369,-0.891 0,-0.322 0.123,-0.645 0.369,-0.891 l 3.464,-3.464 -3.464,-3.463 c -0.246,-0.246 -0.369,-0.569 -0.369,-0.892 0,-0.322 0.123,-0.645 0.369,-0.891 0.492,-0.491 1.29,-0.491 1.782,0 L 0,0 Z"
             style="fill:#ed1c24;fill-opacity:1;fill-rule:nonzero;stroke:none"
             id="path926"
             inkscape:connector-curvature="0" /></g><g
           id="g1016"
           transform="translate(147.3747,159.7272)"><path
             d="m 0,0 3.464,-3.464 c 0.492,-0.491 1.29,-0.491 1.782,0 0.492,0.493 0.492,1.29 0,1.783 L 1.782,1.782 5.246,5.246 c 0.492,0.492 0.492,1.29 0,1.782 -0.492,0.492 -1.29,0.492 -1.782,0 L 0,3.564 -3.464,7.028 c -0.492,0.492 -1.29,0.492 -1.782,0 -0.246,-0.246 -0.369,-0.569 -0.369,-0.891 0,-0.322 0.123,-0.645 0.369,-0.891 l 3.464,-3.464 -3.464,-3.463 c -0.246,-0.246 -0.369,-0.569 -0.369,-0.892 0,-0.322 0.123,-0.645 0.369,-0.891 0.492,-0.491 1.29,-0.491 1.782,0 L 0,0 Z"
             style="fill:#ed1c24;fill-opacity:1;fill-rule:nonzero;stroke:none"
             id="path1018"
             inkscape:connector-curvature="0" /></g><g
           id="g1020"
           transform="translate(147.3747,145.5542)"><path
             d="m 0,0 3.464,-3.464 c 0.492,-0.491 1.29,-0.491 1.782,0 0.492,0.493 0.492,1.29 0,1.783 L 1.782,1.782 5.246,5.246 c 0.492,0.492 0.492,1.29 0,1.782 -0.492,0.492 -1.29,0.492 -1.782,0 L 0,3.564 -3.464,7.028 c -0.492,0.492 -1.29,0.492 -1.782,0 -0.246,-0.246 -0.369,-0.569 -0.369,-0.891 0,-0.322 0.123,-0.645 0.369,-0.891 l 3.464,-3.464 -3.464,-3.463 c -0.246,-0.246 -0.369,-0.569 -0.369,-0.892 0,-0.322 0.123,-0.645 0.369,-0.891 0.492,-0.491 1.29,-0.491 1.782,0 L 0,0 Z"
             style="fill:#ed1c24;fill-opacity:1;fill-rule:nonzero;stroke:none"
             id="path1022"
             inkscape:connector-curvature="0" /></g><g
           id="g1120"
           transform="translate(133.2018,159.7272)"><path
             d="m 0,0 3.464,-3.464 c 0.492,-0.491 1.29,-0.491 1.782,0 0.492,0.493 0.492,1.29 0,1.783 L 1.782,1.782 5.246,5.246 c 0.492,0.492 0.492,1.29 0,1.782 -0.492,0.492 -1.29,0.492 -1.782,0 L 0,3.564 -3.464,7.028 c -0.492,0.492 -1.29,0.492 -1.782,0 -0.246,-0.246 -0.369,-0.569 -0.369,-0.891 0,-0.322 0.123,-0.645 0.369,-0.891 l 3.464,-3.464 -3.464,-3.463 c -0.246,-0.246 -0.369,-0.569 -0.369,-0.892 0,-0.322 0.123,-0.645 0.369,-0.891 0.492,-0.491 1.29,-0.491 1.782,0 L 0,0 Z"
             style="fill:#ed1c24;fill-opacity:1;fill-rule:nonzero;stroke:none"
             id="path1122"
             inkscape:connector-curvature="0" /></g><g
           id="g1124"
           transform="translate(133.2018,145.5542)"><path
             d="m 0,0 3.464,-3.464 c 0.492,-0.491 1.29,-0.491 1.782,0 0.492,0.493 0.492,1.29 0,1.783 L 1.782,1.782 5.246,5.246 c 0.492,0.492 0.492,1.29 0,1.782 -0.492,0.492 -1.29,0.492 -1.782,0 L 0,3.564 -3.464,7.028 c -0.492,0.492 -1.29,0.492 -1.782,0 -0.246,-0.246 -0.369,-0.569 -0.369,-0.891 0,-0.322 0.123,-0.645 0.369,-0.891 l 3.464,-3.464 -3.464,-3.463 c -0.246,-0.246 -0.369,-0.569 -0.369,-0.892 0,-0.322 0.123,-0.645 0.369,-0.891 0.492,-0.491 1.29,-0.491 1.782,0 L 0,0 Z"
             style="fill:#ed1c24;fill-opacity:1;fill-rule:nonzero;stroke:none"
             id="path1126"
             inkscape:connector-curvature="0" /></g><g
           id="g1216"
           transform="translate(119.029,188.0734)"><path
             d="m 0,0 3.464,-3.464 c 0.492,-0.491 1.29,-0.491 1.782,0 0.492,0.493 0.492,1.29 0,1.783 L 1.782,1.782 5.246,5.246 c 0.492,0.492 0.492,1.29 0,1.782 -0.492,0.492 -1.29,0.492 -1.782,0 L 0,3.564 -3.464,7.028 c -0.492,0.492 -1.29,0.492 -1.782,0 -0.246,-0.246 -0.369,-0.569 -0.369,-0.891 0,-0.322 0.123,-0.645 0.369,-0.891 l 3.464,-3.464 -3.464,-3.463 c -0.246,-0.246 -0.369,-0.569 -0.369,-0.892 0,-0.322 0.123,-0.645 0.369,-0.891 0.492,-0.491 1.29,-0.491 1.782,0 L 0,0 Z"
             style="fill:#ed1c24;fill-opacity:1;fill-rule:nonzero;stroke:none"
             id="path1218"
             inkscape:connector-curvature="0" /></g><g
           id="g1220"
           transform="translate(119.029,173.9003)"><path
             d="m 0,0 3.464,-3.464 c 0.492,-0.491 1.29,-0.491 1.782,0 0.492,0.493 0.492,1.29 0,1.783 L 1.782,1.782 5.246,5.246 c 0.492,0.492 0.492,1.29 0,1.782 -0.492,0.492 -1.29,0.492 -1.782,0 L 0,3.564 -3.464,7.028 c -0.492,0.492 -1.29,0.492 -1.782,0 -0.246,-0.246 -0.369,-0.569 -0.369,-0.891 0,-0.322 0.123,-0.645 0.369,-0.891 l 3.464,-3.464 -3.464,-3.463 c -0.246,-0.246 -0.369,-0.569 -0.369,-0.892 0,-0.322 0.123,-0.645 0.369,-0.891 0.492,-0.491 1.29,-0.491 1.782,0 L 0,0 Z"
             style="fill:#ed1c24;fill-opacity:1;fill-rule:nonzero;stroke:none"
             id="path1222"
             inkscape:connector-curvature="0" /></g><g
           id="g1224"
           transform="translate(119.029,159.7272)"><path
             d="m 0,0 3.464,-3.464 c 0.492,-0.491 1.29,-0.491 1.782,0 0.492,0.493 0.492,1.29 0,1.783 L 1.782,1.782 5.246,5.246 c 0.492,0.492 0.492,1.29 0,1.782 -0.492,0.492 -1.29,0.492 -1.782,0 L 0,3.564 -3.464,7.028 c -0.492,0.492 -1.29,0.492 -1.782,0 -0.246,-0.246 -0.369,-0.569 -0.369,-0.891 0,-0.322 0.123,-0.645 0.369,-0.891 l 3.464,-3.464 -3.464,-3.463 c -0.246,-0.246 -0.369,-0.569 -0.369,-0.892 0,-0.322 0.123,-0.645 0.369,-0.891 0.492,-0.491 1.29,-0.491 1.782,0 L 0,0 Z"
             style="fill:#ed1c24;fill-opacity:1;fill-rule:nonzero;stroke:none"
             id="path1226"
             inkscape:connector-curvature="0" /></g><g
           id="g1228"
           transform="translate(119.029,145.5542)"><path
             d="m 0,0 3.464,-3.464 c 0.492,-0.491 1.29,-0.491 1.782,0 0.492,0.493 0.492,1.29 0,1.783 L 1.782,1.782 5.246,5.246 c 0.492,0.492 0.492,1.29 0,1.782 -0.492,0.492 -1.29,0.492 -1.782,0 L 0,3.564 -3.464,7.028 c -0.492,0.492 -1.29,0.492 -1.782,0 -0.246,-0.246 -0.369,-0.569 -0.369,-0.891 0,-0.322 0.123,-0.645 0.369,-0.891 l 3.464,-3.464 -3.464,-3.463 c -0.246,-0.246 -0.369,-0.569 -0.369,-0.892 0,-0.322 0.123,-0.645 0.369,-0.891 0.492,-0.491 1.29,-0.491 1.782,0 L 0,0 Z"
             style="fill:#ed1c24;fill-opacity:1;fill-rule:nonzero;stroke:none"
             id="path1230"
             inkscape:connector-curvature="0" /></g><g
           id="g1232"
           transform="translate(119.029,131.3811)"><path
             d="m 0,0 3.464,-3.464 c 0.492,-0.491 1.29,-0.491 1.782,0 0.492,0.493 0.492,1.29 0,1.783 L 1.782,1.782 5.246,5.246 c 0.492,0.492 0.492,1.29 0,1.782 -0.492,0.492 -1.29,0.492 -1.782,0 L 0,3.564 -3.464,7.028 c -0.492,0.492 -1.29,0.492 -1.782,0 -0.246,-0.246 -0.369,-0.569 -0.369,-0.891 0,-0.322 0.123,-0.645 0.369,-0.891 l 3.464,-3.464 -3.464,-3.463 c -0.246,-0.246 -0.369,-0.569 -0.369,-0.892 0,-0.322 0.123,-0.645 0.369,-0.891 0.492,-0.491 1.29,-0.491 1.782,0 L 0,0 Z"
             style="fill:#ed1c24;fill-opacity:1;fill-rule:nonzero;stroke:none"
             id="path1234"
             inkscape:connector-curvature="0" /></g><g
           id="g1236"
           transform="translate(119.029,117.208)"><path
             d="m 0,0 3.464,-3.464 c 0.492,-0.491 1.29,-0.491 1.782,0 0.492,0.493 0.492,1.29 0,1.783 L 1.782,1.782 5.246,5.246 c 0.492,0.492 0.492,1.29 0,1.782 -0.492,0.492 -1.29,0.492 -1.782,0 L 0,3.564 -3.464,7.028 c -0.492,0.492 -1.29,0.492 -1.782,0 -0.246,-0.246 -0.369,-0.569 -0.369,-0.891 0,-0.322 0.123,-0.645 0.369,-0.891 l 3.464,-3.464 -3.464,-3.463 c -0.246,-0.246 -0.369,-0.569 -0.369,-0.892 0,-0.322 0.123,-0.645 0.369,-0.891 0.492,-0.491 1.29,-0.491 1.782,0 L 0,0 Z"
             style="fill:#ed1c24;fill-opacity:1;fill-rule:nonzero;stroke:none"
             id="path1238"
             inkscape:connector-curvature="0" /></g><g
           id="g1312"
           transform="translate(104.8561,216.4196)"><path
             d="m 0,0 3.464,-3.464 c 0.492,-0.491 1.29,-0.491 1.782,0 0.492,0.493 0.492,1.29 0,1.783 L 1.782,1.782 5.246,5.246 c 0.492,0.492 0.492,1.29 0,1.782 -0.492,0.492 -1.29,0.492 -1.782,0 L 0,3.564 -3.464,7.028 c -0.492,0.492 -1.29,0.492 -1.782,0 -0.246,-0.246 -0.369,-0.569 -0.369,-0.891 0,-0.322 0.123,-0.645 0.369,-0.891 l 3.464,-3.464 -3.464,-3.463 c -0.246,-0.246 -0.369,-0.569 -0.369,-0.892 0,-0.322 0.123,-0.645 0.369,-0.891 0.492,-0.491 1.29,-0.491 1.782,0 L 0,0 Z"
             style="fill:#ed1c24;fill-opacity:1;fill-rule:nonzero;stroke:none"
             id="path1314"
             inkscape:connector-curvature="0" /></g><g
           id="g1316"
           transform="translate(104.8561,202.2465)"><path
             d="m 0,0 3.464,-3.464 c 0.492,-0.491 1.29,-0.491 1.782,0 0.492,0.493 0.492,1.29 0,1.783 L 1.782,1.782 5.246,5.246 c 0.492,0.492 0.492,1.29 0,1.782 -0.492,0.492 -1.29,0.492 -1.782,0 L 0,3.564 -3.464,7.028 c -0.492,0.492 -1.29,0.492 -1.782,0 -0.246,-0.246 -0.369,-0.569 -0.369,-0.891 0,-0.322 0.123,-0.645 0.369,-0.891 l 3.464,-3.464 -3.464,-3.463 c -0.246,-0.246 -0.369,-0.569 -0.369,-0.892 0,-0.322 0.123,-0.645 0.369,-0.891 0.492,-0.491 1.29,-0.491 1.782,0 L 0,0 Z"
             style="fill:#ed1c24;fill-opacity:1;fill-rule:nonzero;stroke:none"
             id="path1318"
             inkscape:connector-curvature="0" /></g><g
           id="g1320"
           transform="translate(104.8561,188.0734)"><path
             d="m 0,0 3.464,-3.464 c 0.492,-0.491 1.29,-0.491 1.782,0 0.492,0.493 0.492,1.29 0,1.783 L 1.782,1.782 5.246,5.246 c 0.492,0.492 0.492,1.29 0,1.782 -0.492,0.492 -1.29,0.492 -1.782,0 L 0,3.564 -3.464,7.028 c -0.492,0.492 -1.29,0.492 -1.782,0 -0.246,-0.246 -0.369,-0.569 -0.369,-0.891 0,-0.322 0.123,-0.645 0.369,-0.891 l 3.464,-3.464 -3.464,-3.463 c -0.246,-0.246 -0.369,-0.569 -0.369,-0.892 0,-0.322 0.123,-0.645 0.369,-0.891 0.492,-0.491 1.29,-0.491 1.782,0 L 0,0 Z"
             style="fill:#ed1c24;fill-opacity:1;fill-rule:nonzero;stroke:none"
             id="path1322"
             inkscape:connector-curvature="0" /></g><g
           id="g1336"
           transform="translate(104.8561,131.3811)"><path
             d="m 0,0 3.464,-3.464 c 0.492,-0.491 1.29,-0.491 1.782,0 0.492,0.493 0.492,1.29 0,1.783 L 1.782,1.782 5.246,5.246 c 0.492,0.492 0.492,1.29 0,1.782 -0.492,0.492 -1.29,0.492 -1.782,0 L 0,3.564 -3.464,7.028 c -0.492,0.492 -1.29,0.492 -1.782,0 -0.246,-0.246 -0.369,-0.569 -0.369,-0.891 0,-0.322 0.123,-0.645 0.369,-0.891 l 3.464,-3.464 -3.464,-3.463 c -0.246,-0.246 -0.369,-0.569 -0.369,-0.892 0,-0.322 0.123,-0.645 0.369,-0.891 0.492,-0.491 1.29,-0.491 1.782,0 L 0,0 Z"
             style="fill:#ed1c24;fill-opacity:1;fill-rule:nonzero;stroke:none"
             id="path1338"
             inkscape:connector-curvature="0" /></g><g
           id="g1340"
           transform="translate(104.8561,117.208)"><path
             d="m 0,0 3.464,-3.464 c 0.492,-0.491 1.29,-0.491 1.782,0 0.492,0.493 0.492,1.29 0,1.783 L 1.782,1.782 5.246,5.246 c 0.492,0.492 0.492,1.29 0,1.782 -0.492,0.492 -1.29,0.492 -1.782,0 L 0,3.564 -3.464,7.028 c -0.492,0.492 -1.29,0.492 -1.782,0 -0.246,-0.246 -0.369,-0.569 -0.369,-0.891 0,-0.322 0.123,-0.645 0.369,-0.891 l 3.464,-3.464 -3.464,-3.463 c -0.246,-0.246 -0.369,-0.569 -0.369,-0.892 0,-0.322 0.123,-0.645 0.369,-0.891 0.492,-0.491 1.29,-0.491 1.782,0 L 0,0 Z"
             style="fill:#ed1c24;fill-opacity:1;fill-rule:nonzero;stroke:none"
             id="path1342"
             inkscape:connector-curvature="0" /></g><g
           id="g1344"
           transform="translate(104.8561,103.0349)"><path
             d="m 0,0 3.464,-3.464 c 0.492,-0.491 1.29,-0.491 1.782,0 0.492,0.493 0.492,1.29 0,1.783 L 1.782,1.782 5.246,5.246 c 0.492,0.492 0.492,1.29 0,1.782 -0.492,0.492 -1.29,0.492 -1.782,0 L 0,3.564 -3.464,7.028 c -0.492,0.492 -1.29,0.492 -1.782,0 -0.246,-0.246 -0.369,-0.569 -0.369,-0.891 0,-0.322 0.123,-0.645 0.369,-0.891 l 3.464,-3.464 -3.464,-3.463 c -0.246,-0.246 -0.369,-0.569 -0.369,-0.892 0,-0.322 0.123,-0.645 0.369,-0.891 0.492,-0.491 1.29,-0.491 1.782,0 L 0,0 Z"
             style="fill:#ed1c24;fill-opacity:1;fill-rule:nonzero;stroke:none"
             id="path1346"
             inkscape:connector-curvature="0" /></g><g
           id="g1348"
           transform="translate(104.8561,88.8618)"><path
             d="m 0,0 3.464,-3.464 c 0.492,-0.491 1.29,-0.491 1.782,0 0.492,0.493 0.492,1.29 0,1.783 L 1.782,1.782 5.246,5.246 c 0.492,0.492 0.492,1.29 0,1.782 -0.492,0.492 -1.29,0.492 -1.782,0 L 0,3.564 -3.464,7.028 c -0.492,0.492 -1.29,0.492 -1.782,0 -0.246,-0.246 -0.369,-0.569 -0.369,-0.891 0,-0.322 0.123,-0.645 0.369,-0.891 l 3.464,-3.464 -3.464,-3.463 c -0.246,-0.246 -0.369,-0.569 -0.369,-0.892 0,-0.322 0.123,-0.645 0.369,-0.891 0.492,-0.491 1.29,-0.491 1.782,0 L 0,0 Z"
             style="fill:#ed1c24;fill-opacity:1;fill-rule:nonzero;stroke:none"
             id="path1350"
             inkscape:connector-curvature="0" /></g><g
           id="g1416"
           transform="translate(90.6833,216.4196)"><path
             d="m 0,0 3.464,-3.464 c 0.492,-0.491 1.29,-0.491 1.782,0 0.492,0.493 0.492,1.29 0,1.783 L 1.782,1.782 5.246,5.246 c 0.492,0.492 0.492,1.29 0,1.782 -0.492,0.492 -1.29,0.492 -1.782,0 L 0,3.564 -3.464,7.028 c -0.492,0.492 -1.29,0.492 -1.782,0 -0.246,-0.246 -0.369,-0.569 -0.369,-0.891 0,-0.322 0.123,-0.645 0.369,-0.891 l 3.464,-3.464 -3.464,-3.463 c -0.246,-0.246 -0.369,-0.569 -0.369,-0.892 0,-0.322 0.123,-0.645 0.369,-0.891 0.492,-0.491 1.29,-0.491 1.782,0 L 0,0 Z"
             style="fill:#ed1c24;fill-opacity:1;fill-rule:nonzero;stroke:none"
             id="path1418"
             inkscape:connector-curvature="0" /></g><g
           id="g1420"
           transform="translate(90.6833,202.2465)"><path
             d="m 0,0 3.464,-3.464 c 0.492,-0.491 1.29,-0.491 1.782,0 0.492,0.493 0.492,1.29 0,1.783 L 1.782,1.782 5.246,5.246 c 0.492,0.492 0.492,1.29 0,1.782 -0.492,0.492 -1.29,0.492 -1.782,0 L 0,3.564 -3.464,7.028 c -0.492,0.492 -1.29,0.492 -1.782,0 -0.246,-0.246 -0.369,-0.569 -0.369,-0.891 0,-0.322 0.123,-0.645 0.369,-0.891 l 3.464,-3.464 -3.464,-3.463 c -0.246,-0.246 -0.369,-0.569 -0.369,-0.892 0,-0.322 0.123,-0.645 0.369,-0.891 0.492,-0.491 1.29,-0.491 1.782,0 L 0,0 Z"
             style="fill:#ed1c24;fill-opacity:1;fill-rule:nonzero;stroke:none"
             id="path1422"
             inkscape:connector-curvature="0" /></g><g
           id="g1448"
           transform="translate(90.6833,103.0349)"><path
             d="m 0,0 3.464,-3.464 c 0.492,-0.491 1.29,-0.491 1.782,0 0.492,0.493 0.492,1.29 0,1.783 L 1.782,1.782 5.246,5.246 c 0.492,0.492 0.492,1.29 0,1.782 -0.492,0.492 -1.29,0.492 -1.782,0 L 0,3.564 -3.464,7.028 c -0.492,0.492 -1.29,0.492 -1.782,0 -0.246,-0.246 -0.369,-0.569 -0.369,-0.891 0,-0.322 0.123,-0.645 0.369,-0.891 l 3.464,-3.464 -3.464,-3.463 c -0.246,-0.246 -0.369,-0.569 -0.369,-0.892 0,-0.322 0.123,-0.645 0.369,-0.891 0.492,-0.491 1.29,-0.491 1.782,0 L 0,0 Z"
             style="fill:#ed1c24;fill-opacity:1;fill-rule:nonzero;stroke:none"
             id="path1450"
             inkscape:connector-curvature="0" /></g><g
           id="g1452"
           transform="translate(90.6833,88.8618)"><path
             d="m 0,0 3.464,-3.464 c 0.492,-0.491 1.29,-0.491 1.782,0 0.492,0.493 0.492,1.29 0,1.783 L 1.782,1.782 5.246,5.246 c 0.492,0.492 0.492,1.29 0,1.782 -0.492,0.492 -1.29,0.492 -1.782,0 L 0,3.564 -3.464,7.028 c -0.492,0.492 -1.29,0.492 -1.782,0 -0.246,-0.246 -0.369,-0.569 -0.369,-0.891 0,-0.322 0.123,-0.645 0.369,-0.891 l 3.464,-3.464 -3.464,-3.463 c -0.246,-0.246 -0.369,-0.569 -0.369,-0.892 0,-0.322 0.123,-0.645 0.369,-0.891 0.492,-0.491 1.29,-0.491 1.782,0 L 0,0 Z"
             style="fill:#ed1c24;fill-opacity:1;fill-rule:nonzero;stroke:none"
             id="path1454"
             inkscape:connector-curvature="0" /></g><g
           id="g1520"
           transform="translate(76.5104,216.4196)"><path
             d="m 0,0 3.464,-3.464 c 0.492,-0.491 1.29,-0.491 1.782,0 0.492,0.493 0.492,1.29 0,1.783 L 1.782,1.782 5.246,5.246 c 0.492,0.492 0.492,1.29 0,1.782 -0.492,0.492 -1.29,0.492 -1.782,0 L 0,3.564 -3.464,7.028 c -0.492,0.492 -1.29,0.492 -1.782,0 -0.246,-0.246 -0.369,-0.569 -0.369,-0.891 0,-0.322 0.123,-0.645 0.369,-0.891 l 3.464,-3.464 -3.464,-3.463 c -0.246,-0.246 -0.369,-0.569 -0.369,-0.892 0,-0.322 0.123,-0.645 0.369,-0.891 0.492,-0.491 1.29,-0.491 1.782,0 L 0,0 Z"
             style="fill:#ed1c24;fill-opacity:1;fill-rule:nonzero;stroke:none"
             id="path1522"
             inkscape:connector-curvature="0" /></g><g
           id="g1556"
           transform="translate(76.5104,88.8618)"><path
             d="m 0,0 3.464,-3.464 c 0.492,-0.491 1.29,-0.491 1.782,0 0.492,0.493 0.492,1.29 0,1.783 L 1.782,1.782 5.246,5.246 c 0.492,0.492 0.492,1.29 0,1.782 -0.492,0.492 -1.29,0.492 -1.782,0 L 0,3.564 -3.464,7.028 c -0.492,0.492 -1.29,0.492 -1.782,0 -0.246,-0.246 -0.369,-0.569 -0.369,-0.891 0,-0.322 0.123,-0.645 0.369,-0.891 l 3.464,-3.464 -3.464,-3.463 c -0.246,-0.246 -0.369,-0.569 -0.369,-0.892 0,-0.322 0.123,-0.645 0.369,-0.891 0.492,-0.491 1.29,-0.491 1.782,0 L 0,0 Z"
             style="fill:#ed1c24;fill-opacity:1;fill-rule:nonzero;stroke:none"
             id="path1558"
             inkscape:connector-curvature="0" /></g></g></g></g></svg>